<?xml version="1.0" standalone="no"?>
<!DOCTYPE svg PUBLIC "-//W3C//DTD SVG 1.1//EN" "http://www.w3.org/Graphics/SVG/1.1/DTD/svg11.dtd" >
<svg>
<metadata>
Created by FontForge 20090914 at Tue Jun  1 19:53:54 2021
 By www-data
Copyright (c) Olivier Gourvat - Mostardesign Studio, 2012. All rights reserved.
</metadata>
<defs>
<font id="SofiaProRegular" horiz-adv-x="580" >
  <font-face 
    font-family="Sofia Pro Regular"
    font-weight="400"
    font-stretch="normal"
    units-per-em="1000"
    panose-1="2 11 0 0 0 0 0 0 0 0"
    ascent="750"
    descent="-250"
    x-height="467"
    cap-height="689"
    bbox="-172 -251 1141 1091"
    underline-thickness="50"
    underline-position="-200"
    unicode-range="U+0020-U+FB04"
  />
<missing-glyph horiz-adv-x="635" 
d="M80 0v665h475v-665h-475zM185 431l62 0.000976562c0 24.667 7 44.667 21 60s31.667 23 53 23s40 -6.83301 56 -20.5s24 -31.167 24 -52.5c0 -20 -8 -36.667 -24 -50c-10 -11.333 -21 -18.333 -33 -21c-30 -8.66699 -53 -21.334 -69 -38.001s-24 -40.667 -24 -72v-38h62
v38c0 14.667 4.16699 25.5 12.5 32.5s20.833 12.833 37.5 17.5c28.667 8.66699 52.334 24.667 71.001 48s28 51 28 83c0 40 -13.833 72.5 -41.5 97.5s-60.834 37.5 -99.501 37.5c-38 0 -70.167 -13.333 -96.5 -40s-39.5 -61.667 -39.5 -105zM237 131.001
c0 -12 4.5 -22.167 13.5 -30.5s19.833 -12.5 32.5 -12.5c12 0 22.5 4.16699 31.5 12.5s13.5 18.5 13.5 30.5s-4.5 22.167 -13.5 30.5s-19.5 12.5 -31.5 12.5c-12.667 0 -23.5 -4.16699 -32.5 -12.5s-13.5 -18.5 -13.5 -30.5z" />
    <glyph glyph-name="f_f" unicode="ff" horiz-adv-x="707" 
d="M711 721v-87.002h-51c-59.333 0 -88.333 -40 -87 -120v-47h108v-77h-108v-390h-92v390h-272v-390h-92v390h-90v77h90v47c0 64.667 14.667 115.334 44 152.001s74.333 55 135 55h51v-87h-51c-59.333 0 -88.333 -40 -87 -120v-47h272v47
c0 64.667 14.667 115.334 44 152.001s74.333 55 135 55h51z" />
    <glyph glyph-name="fi" unicode="fi" horiz-adv-x="631" 
d="M467 0v389.999h-258v-390h-92v390h-90v77h90v47c0 64.667 14.667 115.334 44 152.001s74.333 55 135 55h51v-87h-51c-59.333 0 -88.333 -40 -87 -120v-47h348v-467h-90zM449 638.999c0 16.667 6.16699 30.667 18.5 42s27.166 17 44.499 17s32.166 -5.66699 44.499 -17
s18.5 -25.333 18.5 -42s-6.16699 -30.667 -18.5 -42s-27.166 -17 -44.499 -17s-32.166 5.66699 -44.499 17s-18.5 25.333 -18.5 42z" />
    <glyph glyph-name="fl" unicode="fl" horiz-adv-x="616" 
d="M449 0v633.999h-153c-59.333 0 -88.333 -40 -87 -120v-47h108v-77h-108v-390h-92v390h-90v77h90v47c0 64.667 14.667 115.334 44 152.001s74.333 55 135 55h244v-721h-91z" />
    <glyph glyph-name="f_f_i" unicode="ffi" horiz-adv-x="995" 
d="M831 390l-258 -0.00195312v-390h-92v390h-272v-390h-92v390h-90v77h90v47c0 64.667 14.667 115.334 44 152.001s74.333 55 135 55h51v-87h-51c-59.333 0 -88.333 -40 -87 -120v-47h272v47c0 64.667 14.667 115.334 44 152.001s74.333 55 135 55h51v-87h-51
c-59.333 0 -88.333 -40 -87 -120v-47h348v-467h-90v390zM813 638.998c0 16.667 6.16699 30.667 18.5 42s27.166 17 44.499 17s32.166 -5.66699 44.499 -17s18.5 -25.333 18.5 -42s-6.16699 -30.667 -18.5 -42s-27.166 -17 -44.499 -17s-32.166 5.66699 -44.499 17
s-18.5 25.333 -18.5 42z" />
    <glyph glyph-name="f_f_l" unicode="ffl" horiz-adv-x="980" 
d="M813 0v633.998h-153c-59.333 0 -88.333 -40 -87 -120v-47h108v-77h-108v-390h-92v390h-272v-390h-92v390h-90v77h90v47c0 64.667 14.667 115.334 44 152.001s74.333 55 135 55h51v-87h-51c-59.333 0 -88.333 -40 -87 -120v-47h272v47c0 64.667 14.667 115.334 44 152.001
s74.333 55 135 55h244v-721h-91z" />
    <glyph glyph-name="f_f_j" unicode="ffj" horiz-adv-x="987" 
d="M683 -229v84.998h54c57.333 0 85.333 38.667 84 116v418h-248v-390h-92v390h-272v-390h-92v390h-90v77h90v47c0 64.667 14.667 115.334 44 152.001s74.333 55 135 55h51v-87h-51c-59.333 0 -88.333 -40 -87 -120v-47h272v47c0 64.667 14.667 115.334 44 152.001
s74.333 55 135 55h51v-87h-51c-59.333 0 -88.333 -40 -87 -120v-47h340v-496c0 -133.333 -56 -200 -168 -200h-62zM804 638.998c0 16.667 6.16699 30.667 18.5 42s27.166 17 44.499 17s32.166 -5.66699 44.499 -17s18.5 -25.333 18.5 -42s-6.16699 -30.667 -18.5 -42
s-27.166 -17 -44.499 -17s-32.166 5.66699 -44.499 17s-18.5 25.333 -18.5 42z" />
    <glyph glyph-name="f_j" unicode="fj" horiz-adv-x="623" 
d="M319 -229v84.999h54c57.333 0 85.333 38.667 84 116v418h-248v-390h-92v390h-90v77h90v47c0 64.667 14.667 115.334 44 152.001s74.333 55 135 55h51v-87h-51c-59.333 0 -88.333 -40 -87 -120v-47h340v-496c0 -133.333 -56 -200 -168 -200h-62zM440 638.999
c0 16.667 6.16699 30.667 18.5 42s27.166 17 44.499 17s32.166 -5.66699 44.499 -17s18.5 -25.333 18.5 -42s-6.16699 -30.667 -18.5 -42s-27.166 -17 -44.499 -17s-32.166 5.66699 -44.499 17s-18.5 25.333 -18.5 42z" />
    <glyph glyph-name=".notdef" horiz-adv-x="635" 
d="M80 0v665h475v-665h-475zM185 431l62 0.000976562c0 24.667 7 44.667 21 60s31.667 23 53 23s40 -6.83301 56 -20.5s24 -31.167 24 -52.5c0 -20 -8 -36.667 -24 -50c-10 -11.333 -21 -18.333 -33 -21c-30 -8.66699 -53 -21.334 -69 -38.001s-24 -40.667 -24 -72v-38h62
v38c0 14.667 4.16699 25.5 12.5 32.5s20.833 12.833 37.5 17.5c28.667 8.66699 52.334 24.667 71.001 48s28 51 28 83c0 40 -13.833 72.5 -41.5 97.5s-60.834 37.5 -99.501 37.5c-38 0 -70.167 -13.333 -96.5 -40s-39.5 -61.667 -39.5 -105zM237 131.001
c0 -12 4.5 -22.167 13.5 -30.5s19.833 -12.5 32.5 -12.5c12 0 22.5 4.16699 31.5 12.5s13.5 18.5 13.5 30.5s-4.5 22.167 -13.5 30.5s-19.5 12.5 -31.5 12.5c-12.667 0 -23.5 -4.16699 -32.5 -12.5s-13.5 -18.5 -13.5 -30.5z" />
    <glyph glyph-name="space" unicode=" " horiz-adv-x="260" 
 />
    <glyph glyph-name="exclam" unicode="!" horiz-adv-x="264" 
d="M177 689l-9 -504h-71l-10 504h90zM66 52c0 18 6.33301 33 19 45s28 18 46 18s33.5 -6 46.5 -18s19.5 -27 19.5 -45s-6.5 -32.833 -19.5 -44.5s-28.5 -17.5 -46.5 -17.5s-33.333 5.83301 -46 17.5s-19 26.5 -19 44.5z" />
    <glyph glyph-name="quotedbl" unicode="&#x22;" horiz-adv-x="355" 
d="M75 689h71v-288h-71v288zM209 689h71v-288h-71v288z" />
    <glyph glyph-name="numbersign" unicode="#" horiz-adv-x="656" 
d="M515 515h105l-23 -85h-106l-48 -175h105l-23 -85h-105l-49 -170h-86l48 170h-107l-49 -170h-85l48 170h-104l23 85h104l47 175h-102l22 85h104l48 174h87l-48 -174h107l48 174h87zM297 430l-48 -175h107l48 175h-107z" />
    <glyph glyph-name="dollar" unicode="$" horiz-adv-x="562" 
d="M314 -9l0.00195312 -109.998h-62v111c-60 7.33301 -109.167 31 -147.5 71s-57.5 85.333 -57.5 136h93c0.666992 -31.333 15 -59.5 43 -84.5s63 -37.5 105 -37.5c41.333 0 73.666 9.66699 96.999 29s37.333 43.333 42 72c2.66699 34 -7.33301 61.167 -30 81.5
s-51.667 34.166 -87 41.499l-89 22c-112 28.667 -168 88.667 -168 180c0 52 19.333 95.667 58 131s85.667 55.666 141 60.999v100h62v-101c54.667 -7.33301 99 -28.666 133 -63.999s51 -80.333 51 -135h-93c0 34 -12.167 61.333 -36.5 82s-55.5 31 -93.5 31
c-34.667 0 -64.834 -9.66699 -90.501 -29s-38.5 -44.333 -38.5 -75c0 -48 32.667 -80 98 -96l90 -22c65.333 -16.667 114 -43.334 146 -80.001s44.667 -82 38 -136c-6 -48 -27 -88.667 -63 -122s-83 -52.333 -141 -57z" />
    <glyph glyph-name="percent" unicode="%" horiz-adv-x="682" 
d="M532 673l-329 -673h-66l329 673h66zM38 539c0 37.333 12.833 69 38.5 95s57.167 39 94.5 39c36.667 0 68.167 -13.167 94.5 -39.5s39.5 -57.833 39.5 -94.5c0 -37.333 -13 -68.833 -39 -94.5s-57.667 -38.5 -95 -38.5s-68.833 12.833 -94.5 38.5s-38.5 57.167 -38.5 94.5
zM108 539c0 -18 6 -33 18 -45s27 -18 45 -18s33.167 6 45.5 18s18.5 27 18.5 45c0 17.333 -6.33301 32.333 -19 45s-27.667 19 -45 19c-18 0 -33 -6.16699 -45 -18.5s-18 -27.5 -18 -45.5zM378 123c0 37.333 12.833 69 38.5 95s57.167 39 94.5 39
c36.667 0 68.167 -13.167 94.5 -39.5s39.5 -57.833 39.5 -94.5c0 -37.333 -13 -68.833 -39 -94.5s-57.667 -38.5 -95 -38.5s-68.833 12.833 -94.5 38.5s-38.5 57.167 -38.5 94.5zM448 123c0 -18 6 -33 18 -45s27 -18 45 -18s33.167 6 45.5 18s18.5 27 18.5 45
c0 17.333 -6.33301 32.333 -19 45s-27.667 19 -45 19c-18 0 -33 -6.16699 -45 -18.5s-18 -27.5 -18 -45.5z" />
    <glyph glyph-name="ampersand" unicode="&#x26;" horiz-adv-x="657" 
d="M283 422h134.999v89h86v-90h87v-73h-87v-137c0 -44 7 -77.667 21 -101s41.667 -35 83 -35v-84c-36.667 0 -68.834 6.83301 -96.501 20.5s-48.167 31.5 -61.5 53.5c-17.333 -23.333 -41.166 -41.5 -71.499 -54.5s-63.166 -19.5 -98.499 -19.5
c-65.333 0 -119.166 21.167 -161.499 63.5s-63.5 94.5 -63.5 156.5c0 37.333 9 72 27 104s43 58 75 78c-32.667 30.667 -49 72 -49 124c0 48 17.333 88.667 52 122s77 50 127 50c34 0 65.833 -9 95.5 -27s53.167 -41.667 70.5 -71l-74 -46c-22.667 38 -53.334 57 -92.001 57
c-26.667 0 -48.667 -8 -66 -24s-26 -36.333 -26 -61s8.33301 -46.667 25 -66s37.667 -29 63 -29zM417.999 348h-137.001c-39.333 0 -72.333 -13.667 -99 -41s-40 -59.333 -40 -96c0 -38 12.833 -69.667 38.5 -95s58.834 -38 99.501 -38c39.333 0 71.833 12 97.5 36
s39.167 54.333 40.5 91v143z" />
    <glyph glyph-name="quotesingle" unicode="'" horiz-adv-x="221" 
d="M75 689h71v-288h-71v288z" />
    <glyph glyph-name="parenleft" unicode="(" horiz-adv-x="363" 
d="M49 232c0 143.333 24.833 256.668 74.5 340.001s116.167 125 199.5 125v-89c-57.333 0 -103.166 -34 -137.499 -102s-51.5 -159.333 -51.5 -274s17.167 -206 51.5 -274s80.166 -102 137.499 -102v-89c-83.333 0 -149.833 41.667 -199.5 125s-74.5 196.666 -74.5 339.999z
" />
    <glyph glyph-name="parenright" unicode=")" horiz-adv-x="363" 
d="M314 232c0 -143.333 -24.833 -256.668 -74.5 -340.001s-116.167 -125 -199.5 -125v89c57.333 0 103.166 34 137.499 102s51.5 159.333 51.5 274s-17.167 206 -51.5 274s-80.166 102 -137.499 102v89c83.333 0 149.833 -41.667 199.5 -125s74.5 -196.666 74.5 -339.999z
" />
    <glyph glyph-name="asterisk" unicode="*" horiz-adv-x="467" 
d="M158 350l-60 46l85 105l-131 37l13 38l6.5 19l5.5 16l125 -49l-8 135h79l-9 -135c11.333 4 32 12 62 24s51.667 20.333 65 25l23 -73l-130 -35l87 -108l-62 -43l-73 111z" />
    <glyph glyph-name="plus" unicode="+" horiz-adv-x="519" 
d="M216 305v162h87v-162h162v-87h-162v-163h-87v163h-162v87h162z" />
    <glyph glyph-name="comma" unicode="," horiz-adv-x="257" 
d="M81 -126l-64 21.001c47.333 65.333 70 138.666 68 219.999h96c-4 -57.333 -15.667 -106.833 -35 -148.5s-41 -72.5 -65 -92.5z" />
    <glyph glyph-name="hyphen" unicode="-" horiz-adv-x="486" 
d="M69 277h348v-87h-348v87z" />
    <glyph glyph-name="period" unicode="." horiz-adv-x="266" 
d="M68 52c0 18 6.33301 33 19 45s28 18 46 18s33.5 -6 46.5 -18s19.5 -27 19.5 -45s-6.5 -32.833 -19.5 -44.5s-28.5 -17.5 -46.5 -17.5s-33.333 5.83301 -46 17.5s-19 26.5 -19 44.5z" />
    <glyph glyph-name="slash" unicode="/" horiz-adv-x="501" 
d="M470 689l-340 -689h-99l340 689h99z" />
    <glyph glyph-name="zero" unicode="0" horiz-adv-x="605" 
d="M66 325c0 49.333 3.66895 93.165 11.002 131.498s19.5 73.5 36.5 105.5s41.5 56.5 73.5 73.5s70.667 25.5 116 25.5c46 0 84.833 -8.5 116.5 -25.5s56 -41.5 73 -73.5s29 -67 36 -105s10.5 -82 10.5 -132c0 -49.333 -3.5 -92.833 -10.5 -130.5s-19 -72.5 -36 -104.5
s-41.5 -56.5 -73.5 -73.5s-70.667 -25.5 -116 -25.5c-36.667 0 -68.834 5.83301 -96.501 17.5s-50.334 27.334 -68.001 47.001s-32 44 -43 73s-18.667 59.333 -23 91s-6.5 66.834 -6.5 105.501zM156.002 324.999c0 -76 10.833 -135.833 32.5 -179.5
s59.834 -65.5 114.501 -65.5s92.834 21.833 114.501 65.5s32.5 103.5 32.5 179.5c0 76.667 -10.833 136.834 -32.5 180.501s-59.834 65.5 -114.501 65.5s-92.834 -21.833 -114.501 -65.5s-32.5 -103.834 -32.5 -180.501z" />
    <glyph glyph-name="one" unicode="1" horiz-adv-x="334" 
d="M148 0v539l-106 -37v86l196 71v-659h-90z" />
    <glyph glyph-name="two" unicode="2" horiz-adv-x="527" 
d="M60 40l265 321c32 37.333 48 73 48 107c0 30.667 -11.167 55.5 -33.5 74.5s-49.833 28.5 -82.5 28.5c-30 0 -56 -9.16699 -78 -27.5s-35.333 -43.5 -40 -75.5l-87 21c8.66699 52 32 93.667 70 125s83 47 135 47c58 0 106.667 -18 146 -54s59 -82.333 59 -139
c0 -58.667 -23.667 -115 -71 -169l-91.5 -107.5l-85.5 -101.5h249v-90h-403v40z" />
    <glyph glyph-name="three" unicode="3" horiz-adv-x="535" 
d="M148 513l-67.0029 53.0039c18 31.333 44 55.833 78 73.5s71 25.167 111 22.5c52.667 -2.66699 96.167 -21.834 130.5 -57.501s50.833 -76.834 49.5 -123.501c0 -12.667 -2 -26 -6 -40c-12 -39.333 -35.667 -69 -71 -89c32.667 -12 58.834 -35.333 78.501 -70
s27.834 -70 24.501 -106c-4.66699 -55.333 -30.5 -101 -77.5 -137s-100.833 -51.667 -161.5 -47c-42.667 2.66699 -81.334 16.5 -116.001 41.5s-60.667 56.5 -78 94.5l79 43c10.667 -23.333 27.334 -43.666 50.001 -60.999s46.667 -27 72 -29h-1
c36.667 -2 69.167 7.5 97.5 28.5s43.166 47.167 44.499 78.5c0.666992 31.333 -11.5 58.666 -36.5 81.999s-54.833 35 -89.5 35h-74v87h74c22.667 -0.666992 42.334 6.16602 59.001 20.499s27 32.5 31 54.5c4.66699 27.333 1 49.666 -11 66.999
c-15.333 23.333 -40.666 36 -75.999 38c-46.667 4 -84.667 -15.667 -114 -59z" />
    <glyph glyph-name="four" unicode="4" horiz-adv-x="592" 
d="M455 134v-134h-89v134h-340l362 519h67v-434h94v-85h-94zM179 219h187v272z" />
    <glyph glyph-name="five" unicode="5" horiz-adv-x="564" 
d="M48 139l77.001 42.001c12.667 -32 31.5 -57.333 56.5 -76s52.833 -28 83.5 -28c52 0 91.167 12.333 117.5 37s39.5 56.667 39.5 96c0 40 -12.833 70.833 -38.5 92.5s-57.834 32.5 -96.501 32.5c-28 0 -53.333 -3.83301 -76 -11.5s-51.334 -21.834 -86.001 -42.501l-56 46
l57 325h348v-86h-274l-36 -185c14.667 10.667 33.834 19.667 57.501 27s45.5 11 65.5 11c63.333 0 116.333 -18.5 159 -55.5s64 -88.167 64 -153.5c0 -66.667 -22.5 -120 -67.5 -160s-104.167 -60 -177.5 -60c-46 0 -88.667 13.5 -128 40.5s-69 63.167 -89 108.5z" />
    <glyph glyph-name="six" unicode="6" horiz-adv-x="556" 
d="M492 535l-80 -34.002c-24.667 50 -61.667 75 -111 75c-45.333 0 -81.5 -21.5 -108.5 -64.5s-37.5 -97.5 -31.5 -163.5c19.333 49.333 64 74 134 74c58 0 106.667 -22.5 146 -67.5s58 -97.167 56 -156.5c-3.33301 -59.333 -26 -109.333 -68 -150s-92.333 -59.667 -151 -57
c-58 2.66699 -105.833 23.834 -143.5 63.501s-59.167 93.167 -64.5 160.5c-6 82 -2.33301 164.333 11 247c10 60 35.167 108.667 75.5 146s89.833 55 148.5 53c41.333 -2 77.833 -12.167 109.5 -30.5s57.5 -50.166 77.5 -95.499zM160 211.998
c0 -36 11.834 -66.333 35.501 -91s52.5 -37.667 86.5 -39s63.167 9.5 87.5 32.5s37.166 52.167 38.499 87.5s-9 65.5 -31 90.5s-50.333 38.167 -85 39.5s-65 -9.5 -91 -32.5s-39.667 -52.167 -41 -87.5z" />
    <glyph glyph-name="seven" unicode="7" horiz-adv-x="530" 
d="M513 653l-358 -653h-105l311 564h-299v89h451z" />
    <glyph glyph-name="eight" unicode="8" horiz-adv-x="562" 
d="M107 494c0 46.667 16.666 86.166 49.999 118.499s74.666 48.5 123.999 48.5s91 -16.167 125 -48.5s51 -71.833 51 -118.5c0 -46 -17 -84.333 -51 -115c31.333 -19.333 55.833 -44.333 73.5 -75s26.5 -64 26.5 -100c0 -59.333 -21.667 -109.666 -65 -150.999
s-96.666 -62 -159.999 -62c-64 0 -117.5 20.5 -160.5 61.5s-64.5 91.5 -64.5 151.5c0 36 8.83301 69.5 26.5 100.5s41.834 55.833 72.501 74.5c-32 30.667 -48 69 -48 115zM145.999 203.999c0 -34.667 13 -64.001 39 -88.001s58 -36 96 -36s70 12 96 36s39 53.333 39 88
s-13 64.334 -39 89.001s-58 37 -96 37h-7c-36 -0.666992 -66.333 -13.5 -91 -38.5s-37 -54.167 -37 -87.5zM195.999 493.998c0 -21.333 7.66699 -39.833 23 -55.5s34.333 -23.834 57 -24.501h8c24 0.666992 43.833 8.83398 59.5 24.501s23.5 34.167 23.5 55.5
s-8.16699 39.5 -24.5 54.5s-36.833 22.5 -61.5 22.5c-24 0 -44.167 -7.5 -60.5 -22.5s-24.5 -33.167 -24.5 -54.5z" />
    <glyph glyph-name="nine" unicode="9" horiz-adv-x="555" 
d="M63 116l80 34.002c24.667 -50 61.667 -75 111 -75c45.333 0 81.5 21.5 108.5 64.5s37.5 97.5 31.5 163.5c-19.333 -49.333 -64 -74 -134 -74c-58 0 -106.667 22.5 -146 67.5s-58 97.167 -56 156.5c3.33301 59.333 26 109.333 68 150s92.333 59.667 151 57
c58 -2.66699 105.833 -23.834 143.5 -63.501s59.167 -93.167 64.5 -160.5c6 -82 2.33301 -164.333 -11 -247c-10 -60 -35.167 -108.667 -75.5 -146s-89.833 -55 -148.5 -53c-41.333 2 -77.833 12.167 -109.5 30.5s-57.5 50.166 -77.5 95.499zM395 439.002
c0 36 -11.834 66.333 -35.501 91s-52.5 37.667 -86.5 39s-63.167 -9.5 -87.5 -32.5s-37.166 -52.167 -38.499 -87.5s9 -65.5 31 -90.5s50.333 -38.167 85 -39.5s65 9.5 91 32.5s39.667 52.167 41 87.5z" />
    <glyph glyph-name="colon" unicode=":" horiz-adv-x="269" 
d="M69 52c0 18 6.5 33 19.5 45s28.5 18 46.5 18s33.333 -6 46 -18s19 -27 19 -45s-6.33301 -32.833 -19 -44.5s-28 -17.5 -46 -17.5s-33.5 5.83301 -46.5 17.5s-19.5 26.5 -19.5 44.5zM69 415c0 18 6.5 32.833 19.5 44.5s28.5 17.5 46.5 17.5s33.333 -5.83301 46 -17.5
s19 -26.5 19 -44.5s-6.33301 -33 -19 -45s-28 -18 -46 -18s-33.5 6 -46.5 18s-19.5 27 -19.5 45z" />
    <glyph glyph-name="semicolon" unicode=";" horiz-adv-x="284" 
d="M98 -126l-69 21.001c47.333 65.333 70 138.666 68 219.999h101c-4 -57.333 -15.5 -106.833 -34.5 -148.5s-40.833 -72.5 -65.5 -92.5zM83 415.001c0 18 6.33301 32.833 19 44.5s28 17.5 46 17.5s33.5 -5.83301 46.5 -17.5s19.5 -26.5 19.5 -44.5s-6.5 -33 -19.5 -45
s-28.5 -18 -46.5 -18s-33.333 6 -46 18s-19 27 -19 45z" />
    <glyph glyph-name="less" unicode="&#x3c;" horiz-adv-x="622" 
d="M554 32l-507 193v87l507 194v-97l-381 -140l381 -142v-95z" />
    <glyph glyph-name="equal" unicode="=" horiz-adv-x="608" 
d="M74 390h460v-87h-460v87zM74 197h460v-87h-460v87z" />
    <glyph glyph-name="greater" unicode="&#x3e;" horiz-adv-x="621" 
d="M574 225l-506 -194v96l380 142l-380 140v97l506 -194v-87z" />
    <glyph glyph-name="question" unicode="?" horiz-adv-x="483" 
d="M129 488h-86.001c0 62.667 19 113.167 57 151.5s84.667 57.5 140 57.5c56 0 104.167 -18 144.5 -54s60.5 -83 60.5 -141c0 -46.667 -13.667 -86.667 -41 -120s-61.666 -56.333 -102.999 -69c-24 -7.33301 -41.833 -16 -53.5 -26s-17.5 -25.667 -17.5 -47l-2 -55h-88v55
c0 45.333 11.5 79.833 34.5 103.5s56.167 42.167 99.5 55.5c22 6 41.167 19 57.5 39s24.5 41.333 24.5 64c0 31.333 -11.667 56.833 -35 76.5s-50.333 29.5 -81 29.5c-30 0 -56 -11 -78 -33s-33 -51 -33 -87zM118.999 53c0 18 6.5 33 19.5 45s28.5 18 46.5 18
s33.333 -6 46 -18s19 -27 19 -45s-6.33301 -32.833 -19 -44.5s-28 -17.5 -46 -17.5s-33.5 5.83301 -46.5 17.5s-19.5 26.5 -19.5 44.5z" />
    <glyph glyph-name="at" unicode="@" horiz-adv-x="970" 
d="M600 257c0 36 -12.502 66.4971 -37.502 91.4971s-55.5 37.5 -91.5 37.5s-66.5 -12.5 -91.5 -37.5s-37.5 -55.5 -37.5 -91.5c0 -35.333 12.667 -65.5 38 -90.5s55.666 -37.5 90.999 -37.5c34 0 67 16 99 48v-85c-32 -22.667 -65 -34 -99 -34
c-55.333 0 -102.5 19.5 -141.5 58.5s-58.5 85.833 -58.5 140.5c0 55.333 19.5 102.5 58.5 141.5s86.167 58.5 141.5 58.5c53.333 0 99.333 -18.333 138 -55c39.333 -37.333 60 -82.666 62 -135.999v-145c0 -44 24 -66 72 -66c22.667 0 42.167 7.16699 58.5 21.5
s28.5 33 36.5 56s13.667 45.667 17 68s5 45.166 5 68.499c0 100 -37.167 183.5 -111.5 250.5s-163.5 100.5 -267.5 100.5c-101.333 0 -186.833 -35.833 -256.5 -107.5s-104.5 -158.5 -104.5 -260.5s34.667 -188.333 104 -259s155 -106 257 -106h23v-71h-23
c-121.333 0 -223.666 42.167 -306.999 126.5s-125 187.5 -125 309.5c0 121.333 41.833 224.833 125.5 310.5s185.834 128.5 306.501 128.5c80.667 0 155.334 -18 224.001 -54s123.667 -86.5 165 -151.5s62 -137.167 62 -216.5c0 -31.333 -3.33301 -62.666 -10 -93.999
s-17 -61.666 -31 -90.999s-33.833 -53.166 -59.5 -71.499s-55.167 -27.5 -88.5 -27.5c-41.333 0 -75.5 11.167 -102.5 33.5s-40.5 58.833 -40.5 109.5v129z" />
    <glyph glyph-name="A" unicode="A" horiz-adv-x="645" 
d="M209 259h228l-114 306zM469 175h-292l-67 -175h-99l262 689h100l261 -689h-98z" />
    <glyph glyph-name="B" unicode="B" horiz-adv-x="628" 
d="M541 511c0 -74 -29 -122 -87 -144c36.667 -7.33301 66.5 -28 89.5 -62s34.5 -69.333 34.5 -106c0 -56 -18.333 -103.167 -55 -141.5s-85.667 -57.5 -147 -57.5h-282v689h260c57.333 0 102.833 -16 136.5 -48s50.5 -75.333 50.5 -130zM188 403h165.999
c29.333 0 52 10 68 30s24 45 24 75s-9.16699 53.333 -27.5 70s-43.166 25 -74.499 25h-156v-200zM368.999 321h-181v-234h184c32.667 0 59.167 11.167 79.5 33.5s30.5 48.833 30.5 79.5c0 30 -10.667 57.667 -32 83s-48.333 38 -81 38z" />
    <glyph glyph-name="C" unicode="C" horiz-adv-x="683" 
d="M589 168l70 -59c-31.333 -37.333 -69.5 -66.5 -114.5 -87.5s-93.833 -31.5 -146.5 -31.5c-97.333 0 -179.833 34.333 -247.5 103s-101.5 152 -101.5 250s33.833 181.5 101.5 250.5s150.167 103.5 247.5 103.5c52 0 100.333 -10.333 145 -31s82.667 -49.334 114 -86.001
l-70 -58c-52 56.667 -115 85 -189 85c-72 0 -132.667 -25.667 -182 -77s-74 -113.666 -74 -186.999s24.667 -135.5 74 -186.5s110 -76.5 182 -76.5c77.333 0 141 29.333 191 88z" />
    <glyph glyph-name="D" unicode="D" horiz-adv-x="724" 
d="M361 0h-267v689h267c95.333 0 170.833 -32.5 226.5 -97.5s83.5 -147.833 83.5 -248.5c0 -100 -27.667 -182.167 -83 -246.5s-131 -96.5 -227 -96.5zM187 87h174c69.333 0 122.833 23.833 160.5 71.5s56.5 109.167 56.5 184.5c0 76 -18.833 138.167 -56.5 186.5
s-91.167 72.5 -160.5 72.5h-174v-515z" />
    <glyph glyph-name="E" unicode="E" horiz-adv-x="565" 
d="M94 689h408v-87h-315v-220h275v-87h-275v-208h325v-87h-418v689z" />
    <glyph glyph-name="F" unicode="F" horiz-adv-x="526" 
d="M94 689h402v-87h-309v-220h245v-87h-245v-295h-93v689z" />
    <glyph glyph-name="G" unicode="G" horiz-adv-x="756" 
d="M630 606l-67.002 -62.0029c-48 42.667 -103.333 64 -166 64c-71.333 0 -131.666 -25.833 -180.999 -77.5s-74 -114.167 -74 -187.5s24.667 -135.666 74 -186.999s109.666 -77 180.999 -77c62.667 0 114.334 16.833 155.001 50.5s62.334 78.834 65.001 135.501h-196v81
h302c0 -118 -29 -206.833 -87 -266.5s-137.667 -89.5 -239 -89.5c-97.333 0 -179.666 34.333 -246.999 103s-101 152 -101 250c0 98.667 33.667 182.334 101 251.001s149.666 103 246.999 103c90 0 167.667 -30.333 233 -91z" />
    <glyph glyph-name="H" unicode="H" horiz-adv-x="708" 
d="M614 689v-689h-94v300h-333v-300h-93v689h93v-304h333v304h94z" />
    <glyph glyph-name="I" unicode="I" horiz-adv-x="281" 
d="M94 689h93v-689h-93v689z" />
    <glyph glyph-name="J" unicode="J" horiz-adv-x="281" 
d="M-100 -240l9 88c16 -5.33301 38 -8 66 -8c40.667 0 70.667 12.333 90 37s29 56.667 29 96v716h93v-716c0 -66 -17.167 -119.833 -51.5 -161.5s-87.833 -62.5 -160.5 -62.5c-14.667 0 -39.667 3.66699 -75 11z" />
    <glyph glyph-name="K" unicode="K" horiz-adv-x="578" 
d="M265 345l320 -345h-125l-273 294v-294h-93v689h93v-298l228 298h115z" />
    <glyph glyph-name="L" unicode="L" horiz-adv-x="495" 
d="M94 689h93v-602h281v-87h-374v689z" />
    <glyph glyph-name="M" unicode="M" horiz-adv-x="934" 
d="M467 183l243 506h85l84 -689h-92l-63 518l-215 -442h-82l-217 442l-63 -518h-92l84 689h85z" />
    <glyph glyph-name="N" unicode="N" horiz-adv-x="684" 
d="M590 0h-89l-314 519v-519h-93v689h92l311 -515v515h93v-689z" />
    <glyph glyph-name="O" unicode="O" horiz-adv-x="796" 
d="M49 343c0 98.667 33.667 182.334 101 251.001s149.666 103 246.999 103c98 0 180.833 -34.333 248.5 -103s101.5 -152.334 101.5 -251.001c0 -98 -33.833 -181.333 -101.5 -250s-150.5 -103 -248.5 -103c-97.333 0 -179.666 34.333 -246.999 103s-101 152 -101 250z
M142 343c0 -73.333 24.499 -135.5 73.499 -186.5s109.5 -76.5 181.5 -76.5s132.667 25.5 182 76.5s74 113.167 74 186.5s-24.667 135.666 -74 186.999s-110 77 -182 77c-71.333 0 -131.666 -25.667 -180.999 -77s-74 -113.666 -74 -186.999z" />
    <glyph glyph-name="P" unicode="P" horiz-adv-x="606" 
d="M94 689h275c68 0 119.167 -21 153.5 -63s51.5 -93 51.5 -153s-17.167 -110.833 -51.5 -152.5s-85.5 -62.5 -153.5 -62.5h-181v-258h-94v689zM368 602l-180 0.000976562v-257h175c39.333 0 68.833 12.5 88.5 37.5s29.5 55.167 29.5 90.5s-9.5 65.666 -28.5 90.999
s-47.167 38 -84.5 38z" />
    <glyph glyph-name="Q" unicode="Q" horiz-adv-x="796" 
d="M583 43l71.999 -114l-72 -44l-77 122c-35.333 -11.333 -71.666 -17 -108.999 -17c-97.333 0 -179.666 34.333 -246.999 103s-101 152 -101 250c0 98.667 33.667 182.334 101 251.001s149.666 103 246.999 103c98 0 180.833 -34.333 248.5 -103
s101.5 -152.334 101.5 -251.001c0 -62 -14.833 -119.5 -44.5 -172.5s-69.5 -95.5 -119.5 -127.5zM455.999 247l78 -126c36.667 23.333 65.667 54.5 87 93.5s32 81.833 32 128.5c0 73.333 -24.667 135.666 -74 186.999s-110 77 -182 77
c-71.333 0 -131.666 -25.667 -180.999 -77s-74 -113.666 -74 -186.999c0 -70 22.5 -129.667 67.5 -179s101.5 -76 169.5 -80c27.333 -2 52.666 -0.666992 75.999 4l-70 114z" />
    <glyph glyph-name="R" unicode="R" horiz-adv-x="619" 
d="M383 261l184.001 -261h-113l-178 258h-88v-258h-94v689h265c68 0 119 -21 153 -63s51 -93 51 -153c0 -56 -14.833 -104 -44.5 -144s-74.834 -62.667 -135.501 -68zM356.001 602l-168.001 0.000976562v-257h164c39.333 0 68.333 12.333 87 37s28 55 28 91
c0 35.333 -9.16699 65.666 -27.5 90.999s-46.166 38 -83.499 38z" />
    <glyph glyph-name="S" unicode="S" horiz-adv-x="573" 
d="M145 199c0.666992 -31.333 15.001 -59.499 43.001 -84.499s63 -37.5 105 -37.5c41.333 0 73.666 9.66699 96.999 29s37.333 43.333 42 72c2.66699 34 -7.16602 61 -29.499 81s-51.5 34 -87.5 42l-89 22c-112 28.667 -168 88.667 -168 180c0 56.667 22 103.167 66 139.5
s96.333 54.5 157 54.5c64 0 117 -18.5 159 -55.5s63 -85.833 63 -146.5h-93c0 34 -12.167 61.333 -36.5 82s-55.5 31 -93.5 31c-34.667 0 -64.834 -9.66699 -90.501 -29s-38.5 -44.333 -38.5 -75c0 -48 32.667 -80 98 -96l90 -22c65.333 -16.667 114 -43.334 146 -80.001
s44.667 -82 38 -136c-6 -52 -29.5 -95 -70.5 -129s-94.167 -51 -159.5 -51c-68.667 0 -126 20.833 -172 62.5s-69 90.5 -69 146.5h93z" />
    <glyph glyph-name="T" unicode="T" horiz-adv-x="568" 
d="M28 689h512v-88h-209v-601h-94v601h-209v88z" />
    <glyph glyph-name="U" unicode="U" horiz-adv-x="678" 
d="M339 80c44 0 81.333 14.667 112 44s46 67 46 113v452h94v-452c0 -73.333 -24.5 -132.833 -73.5 -178.5s-108.5 -68.5 -178.5 -68.5s-129.5 22.833 -178.5 68.5s-73.5 105.167 -73.5 178.5v452h94v-452c0 -46 15.333 -83.667 46 -113s68 -44 112 -44z" />
    <glyph glyph-name="V" unicode="V" horiz-adv-x="562" 
d="M125 689l156 -532l156 532h96l-207 -689h-89l-209 689h97z" />
    <glyph glyph-name="W" unicode="W" horiz-adv-x="901" 
d="M786 689h100l-233 -689h-81l-122 430l-121 -430h-81l-233 689h100l173 -539l127 446h71l127 -446z" />
    <glyph glyph-name="X" unicode="X" horiz-adv-x="615" 
d="M363 370l241 -370h-112l-185 293l-185 -293h-111l240 370l-214 319h112l158 -243l159 243h112z" />
    <glyph glyph-name="Y" unicode="Y" horiz-adv-x="628" 
d="M362 0h-96v317l-261 372h111l198 -279l200 279h112l-264 -372v-317z" />
    <glyph glyph-name="Z" unicode="Z" horiz-adv-x="573" 
d="M42 81l364 520h-350v88h468v-81l-366 -520h366v-88h-482v81z" />
    <glyph glyph-name="bracketleft" unicode="[" horiz-adv-x="327" 
d="M84 -227v916h201v-83h-111v-750h111v-83h-201z" />
    <glyph glyph-name="backslash" unicode="\" horiz-adv-x="501" 
d="M371 0l-340 689h99l340 -689h-99z" />
    <glyph glyph-name="bracketright" unicode="]" horiz-adv-x="327" 
d="M243 689v-916h-201v83h111v750h-111v83h201z" />
    <glyph glyph-name="underscore" unicode="_" horiz-adv-x="699" 
d="M69 -28h561v-81h-561v81z" />
    <glyph glyph-name="grave" unicode="`" horiz-adv-x="512" 
d="M248 554l-119 154h109l97 -154h-87z" />
    <glyph glyph-name="a" unicode="a" horiz-adv-x="612" 
d="M446 0v71.999c-15.333 -26 -38 -46.167 -68 -60.5s-62 -21.5 -96 -21.5c-66 0 -122 22.667 -168 68s-69 104 -69 176c0 72.667 23 131.334 69 176.001s102 67 168 67c34 0 66.167 -7 96.5 -21s52.833 -33.667 67.5 -59v70h90v-467h-90zM445 234.999
c0 47.333 -15.667 84.665 -47 111.998s-67.333 41 -108 41c-43.333 0 -79.5 -14.167 -108.5 -42.5s-43.5 -65.166 -43.5 -110.499s14.667 -82.666 44 -111.999s65.333 -44 108 -44c43.333 0 80 14 110 42s45 66 45 114z" />
    <glyph glyph-name="b" unicode="b" horiz-adv-x="612" 
d="M167 72l0.00195312 -71.999h-91v721h91v-324c15.333 26 37.666 45.833 66.999 59.5s61.666 20.5 96.999 20.5c66.667 0 122.667 -22.333 168 -67s68 -103.334 68 -176.001c0 -72 -23 -130.667 -69 -176s-102 -68 -168 -68c-33.333 0 -65 7.16699 -95 21.5
s-52.667 34.5 -68 60.5zM168.002 235.001c0 -48 15 -85.999 45 -113.999s66.667 -42 110 -42c42.667 0 78.5 14.667 107.5 44s43.5 66.666 43.5 111.999s-14.5 82.166 -43.5 110.499s-64.833 42.5 -107.5 42.5c-40.667 0 -76.667 -13.667 -108 -41s-47 -64.666 -47 -111.999
z" />
    <glyph glyph-name="c" unicode="c" horiz-adv-x="512" 
d="M45 235c0 72 24 130.332 72 174.999s106.333 67 175 67c74 0 134 -25 180 -75l-69 -58c-29.333 29.333 -66.333 44 -111 44c-43.333 0 -80.333 -14.167 -111 -42.5s-46 -65.166 -46 -110.499c0 -46 15.333 -83.667 46 -113s67.667 -44 111 -44
c44.667 0 81.667 15.333 111 46l70 -58c-46.667 -50.667 -107 -76 -181 -76c-68.667 0 -127 22.833 -175 68.5s-72 104.5 -72 176.5z" />
    <glyph glyph-name="d" unicode="d" horiz-adv-x="612" 
d="M445 0v71.999c-15.333 -26 -38 -46.167 -68 -60.5s-62 -21.5 -96 -21.5c-66 0 -121.833 22.667 -167.5 68s-68.5 104 -68.5 176c0 72.667 22.667 131.334 68 176.001s101 67 167 67c35.333 0 67.833 -6.83301 97.5 -20.5s52.167 -33.5 67.5 -59.5v324h91v-721h-91z
M444 234.999c0 47.333 -15.667 84.666 -47 111.999s-67.333 41 -108 41c-42.667 0 -78.5 -14.167 -107.5 -42.5s-43.5 -65.166 -43.5 -110.499s14.5 -82.666 43.5 -111.999s64.833 -44 107.5 -44s79.167 14.167 109.5 42.5s45.5 66.166 45.5 113.499z" />
    <glyph glyph-name="e" unicode="e" horiz-adv-x="556" 
d="M136 270h290c-5.33301 38.667 -20.833 69.167 -46.5 91.5s-57.5 33.5 -95.5 33.5c-39.333 0 -72.5 -11.167 -99.5 -33.5s-43.167 -52.833 -48.5 -91.5zM516 235c0 -17.333 -0.332031 -29.334 -0.999023 -36.001h-379c5.33301 -38.667 21.833 -69.5 49.5 -92.5
s61.5 -34.5 101.5 -34.5c28.667 0 55 6.33301 79 19s42.333 30.334 55 53.001l40 -15.5l38 -14.5c-19.333 -40 -48.333 -70.667 -87 -92s-81.334 -32 -128.001 -32c-68 0 -124.833 22.667 -170.5 68s-68.5 104.333 -68.5 177s22.833 131.167 68.5 175.5
s102.5 66.5 170.5 66.5c67.333 0 122.833 -22.167 166.5 -66.5s65.5 -102.833 65.5 -175.5z" />
    <glyph glyph-name="f" unicode="f" horiz-adv-x="343" 
d="M347 721v-87.001h-51c-59.333 0 -88.333 -40 -87 -120v-47h108v-77h-108v-390h-92v390h-90v77h90v47c0 64.667 14.667 115.334 44 152.001s74.333 55 135 55h51z" />
    <glyph glyph-name="g" unicode="g" horiz-adv-x="611" 
d="M146 -67c13.333 -25.333 32.5 -44.998 57.5 -58.998s50.833 -21 77.5 -21c110.667 0 166 70.667 166 212c0 1.33301 -0.166992 3.16602 -0.5 5.49902s-0.5 4.16602 -0.5 5.49902c-13.333 -26.667 -35.5 -47.667 -66.5 -63s-63.5 -23 -97.5 -23c-66 0 -122 22.333 -168 67
s-69 103 -69 175c0 72.667 23 131.667 69 177s102 68 168 68c34 0 66.167 -7.33301 96.5 -22s52.833 -35 67.5 -61v73h90v-396c0 -202.667 -85 -304 -255 -304c-44 0 -84.667 11 -122 33s-67 53 -89 93c4.66699 2 18 9 40 21s34 18.333 36 19zM445 233.002
c0 48 -15 85.833 -45 113.5s-66.667 41.5 -110 41.5c-42.667 0 -78.667 -14.667 -108 -44s-44 -66.333 -44 -111c0 -46.667 14.5 -84 43.5 -112s65.167 -42 108.5 -42c40.667 0 76.667 14 108 42s47 65.333 47 112z" />
    <glyph glyph-name="h" unicode="h" 
d="M167 252l0.000976562 -252.001h-91v721h91v-324c12.667 26 34.167 45.833 64.5 59.5s60.166 20.5 89.499 20.5c58.667 0 105 -18.167 139 -54.5s50.667 -87.166 50 -152.499v-270h-91v264c0 38 -10.167 68.167 -30.5 90.5s-46.833 33.5 -79.5 33.5
c-37.333 0 -70.333 -11.167 -99 -33.5s-43 -56.5 -43 -102.5z" />
    <glyph glyph-name="i" unicode="i" horiz-adv-x="242" 
d="M166 0v467h-90v-467h90zM58 639c0 16.667 6.16699 30.667 18.5 42s27.166 17 44.499 17s32.166 -5.66699 44.499 -17s18.5 -25.333 18.5 -42s-6.16699 -30.667 -18.5 -42s-27.166 -17 -44.499 -17s-32.166 5.66699 -44.499 17s-18.5 25.333 -18.5 42z" />
    <glyph glyph-name="j" unicode="j" horiz-adv-x="244" 
d="M-62 -229v85h54c57.333 0 85.333 38.667 84 116v495h92v-496c0 -133.333 -56 -200 -168 -200h-62zM59 639c0 16.667 6.16699 30.667 18.5 42s27.166 17 44.499 17s32.166 -5.66699 44.499 -17s18.5 -25.333 18.5 -42s-6.16699 -30.667 -18.5 -42s-27.166 -17 -44.499 -17
s-32.166 5.66699 -44.499 17s-18.5 25.333 -18.5 42z" />
    <glyph glyph-name="k" unicode="k" horiz-adv-x="502" 
d="M166 228v-228h-90v721h90v-417l161 163h124l-200 -202l248 -265h-120z" />
    <glyph glyph-name="l" unicode="l" horiz-adv-x="243" 
d="M76 721h91v-721h-91v721z" />
    <glyph glyph-name="m" unicode="m" horiz-adv-x="881" 
d="M613 388c-38 0.666992 -68.167 -11.833 -90.5 -37.5s-33.5 -58.5 -33.5 -98.5v-252h-91v265c0 38 -9.16699 68 -27.5 90s-42.833 33 -73.5 33c-36 0 -66.667 -11.333 -92 -34s-38 -56.667 -38 -102v-252h-91v467h91v-70c11.333 23.333 29.833 41.666 55.5 54.999
s50.167 21 73.5 23c18 0.666992 35 -0.333008 51 -3c59.333 -9.33301 100 -39.666 122 -90.999c33.333 64 87.333 96 162 96c58 0 102.5 -18 133.5 -54s46.5 -87 46.5 -153v-270h-91v264c0 38.667 -9.5 69 -28.5 91s-45.167 33 -78.5 33z" />
    <glyph glyph-name="n" unicode="n" horiz-adv-x="563" 
d="M167 252v-252h-91v467h91v-70c13.333 26 33.833 45.833 61.5 59.5s55.834 20.5 84.501 20.5c58 0 102.5 -18 133.5 -54s46.5 -87 46.5 -153v-270h-91v264c0 38.667 -9.16699 69 -27.5 91s-43.5 33 -75.5 33c-36.667 0 -67.834 -11.167 -93.501 -33.5
s-38.5 -56.5 -38.5 -102.5z" />
    <glyph glyph-name="o" unicode="o" horiz-adv-x="579" 
d="M289 -10c-68 0 -125.667 22.667 -173 68s-71 104.333 -71 177c0 72 23.5 130.333 70.5 175s104.833 67 173.5 67s126.667 -22.333 174 -67s71 -103 71 -175s-23.833 -130.833 -71.5 -176.5s-105.5 -68.5 -173.5 -68.5zM289 78c43.333 0 79.833 14.5 109.5 43.5
s44.5 66.833 44.5 113.5c0 46 -14.833 83 -44.5 111s-66.167 42 -109.5 42s-79.833 -14 -109.5 -42s-44.5 -65 -44.5 -111c0 -46.667 14.833 -84.5 44.5 -113.5s66.167 -43.5 109.5 -43.5z" />
    <glyph glyph-name="p" unicode="p" horiz-adv-x="609" 
d="M167 467l0.000976562 -73c15.333 26 38 46.333 68 61s61.667 22 95 22c65.333 0 120.666 -22.667 165.999 -68s68 -104.333 68 -177c0 -72 -22.5 -130.333 -67.5 -175s-100.5 -67 -166.5 -67c-34 0 -66 6.83301 -96 20.5s-52.333 33.5 -67 59.5v-297h-91v694h91z
M168.001 231c0 -47.333 15.333 -84.5 46 -111.5s66.334 -40.5 107.001 -40.5c43.333 0 79.333 14 108 42s43 64.667 43 110c0 46 -14.5 83.667 -43.5 113s-64.833 44 -107.5 44s-78.834 -14.167 -108.501 -42.5s-44.5 -66.5 -44.5 -114.5z" />
    <glyph glyph-name="q" unicode="q" horiz-adv-x="609" 
d="M442 394l0.00390625 73h91v-694h-91v297c-14.667 -26 -36.834 -45.833 -66.501 -59.5s-61.834 -20.5 -96.501 -20.5c-66 0 -121.5 22.333 -166.5 67s-67.5 103 -67.5 175c0 72.667 22.667 131.667 68 177s100.666 68 165.999 68c33.333 0 65.166 -7.33301 95.499 -22
s52.833 -35 67.5 -61zM442.004 231c0 48 -14.833 86.167 -44.5 114.5s-66.167 42.5 -109.5 42.5c-42.667 0 -78.334 -14.667 -107.001 -44s-43 -67 -43 -113c0 -45.333 14.333 -82 43 -110s64.334 -42 107.001 -42c40.667 0 76.5 13.5 107.5 40.5s46.5 64.167 46.5 111.5z
" />
    <glyph glyph-name="r" unicode="r" horiz-adv-x="395" 
d="M167 170v-170h-91v467h91v-105c22.667 76.667 66 115 130 115c36.667 0 63.667 -6 81 -18l-14 -85c-22 10.667 -45 16 -69 16c-42.667 0 -74.667 -20.167 -96 -60.5s-32 -93.5 -32 -159.5z" />
    <glyph glyph-name="s" unicode="s" horiz-adv-x="439" 
d="M182 206c-44.667 12 -77.666 30.0049 -98.999 54.0049s-30 56.667 -26 98c3.33301 34 20.666 62.333 51.999 85s68 34 110 34c43.333 0 80.166 -10.833 110.499 -32.5s47.5 -54.834 51.5 -99.501h-87c-2.66699 16.667 -10.834 29.667 -24.501 39s-29.834 14 -48.501 14
c-17.333 0 -32.5 -3.83301 -45.5 -11.5s-21.167 -17.834 -24.5 -30.501c-4 -14.667 -3.66699 -27 1 -37c7.33301 -15.333 25.666 -27.333 54.999 -36l69 -17c80.667 -20 121 -65.333 121 -136c0 -42 -17.5 -75.833 -52.5 -101.5s-77.833 -38.5 -128.5 -38.5
c-44.667 0 -84.5 13.667 -119.5 41s-53.167 63.666 -54.5 108.999h83c4 -24.667 16.667 -42.334 38 -53.001c20.667 -12.667 45.334 -18 74.001 -16c21.333 1.33301 38.333 7.66602 51 18.999s19.334 25.333 20.001 42c0.666992 16 -4.66602 28.667 -15.999 38
s-26.666 16.333 -45.999 21z" />
    <glyph glyph-name="t" unicode="t" horiz-adv-x="328" 
d="M202 467h99v-77h-99v-390h-91v390h-84v77h84v176h91v-176z" />
    <glyph glyph-name="u" unicode="u" horiz-adv-x="562" 
d="M395 215l-0.000976562 252h91v-467h-91v70c-13.333 -26 -33.666 -45.833 -60.999 -59.5s-55.333 -20.5 -84 -20.5c-58 0 -102.667 18 -134 54s-46.666 87 -45.999 153v270h91v-264c0 -38.667 9 -69 27 -91s43 -33 75 -33c37.333 0 68.666 11 93.999 33s38 56.333 38 103z
" />
    <glyph glyph-name="v" unicode="v" horiz-adv-x="510" 
d="M17 467h96l142 -351l141 351h97l-195 -467h1h-88z" />
    <glyph glyph-name="w" unicode="w" horiz-adv-x="790" 
d="M596 0h-75l-127 343l-123 -343h-74l-178 467h97l117 -327l117 327h88l117 -327l117 327h97z" />
    <glyph glyph-name="x" unicode="x" horiz-adv-x="500" 
d="M45 467h109l96 -137l97 137h109l-153 -211l185 -256h-108l-130 181l-131 -181h-107l185 256z" />
    <glyph glyph-name="y" unicode="y" horiz-adv-x="509" 
d="M202 -227h-95l98 241l-187 453h97l140 -338l140 338h97z" />
    <glyph glyph-name="z" unicode="z" horiz-adv-x="502" 
d="M453 467v-75l-283 -305h283v-87h-411v75l278 305h-262v87h395z" />
    <glyph glyph-name="braceleft" unicode="{" horiz-adv-x="400" 
d="M186 143l0.000976562 -173.998c0 -32.667 10.667 -60.334 32 -83.001s46.666 -34 75.999 -34h67v-79h-64c-55.333 0 -102 18 -140 54s-57 83.333 -57 142v174c0 13.333 -6.16699 25.166 -18.5 35.499s-26.5 15.5 -42.5 15.5v81c16 0 30.167 5.16699 42.5 15.5
s18.5 22.166 18.5 35.499v176c-0.666992 58.667 18 105.834 56 141.501s85 53.5 141 53.5h64v-79h-67c-30 0 -55.5 -11.333 -76.5 -34s-31.5 -50 -31.5 -82v-176c0 -18.667 -4.33301 -36.667 -13 -54s-20.667 -30 -36 -38c14 -8 25.667 -20.833 35 -38.5
s14 -35.167 14 -52.5z" />
    <glyph glyph-name="bar" unicode="|" horiz-adv-x="230" 
d="M146 795v-914h-62v914h62z" />
    <glyph glyph-name="braceright" unicode="}" horiz-adv-x="400" 
d="M214 -31l0.000976562 173.998c0 17.333 4.66699 34.833 14 52.5s21 30.5 35 38.5c-15.333 8 -27.333 20.667 -36 38s-13 35.333 -13 54v176c0 32 -10.5 59.333 -31.5 82s-46.5 34 -76.5 34h-67v79h64c56 0 103 -17.833 141 -53.5s56.667 -82.834 56 -141.501v-176
c0 -13.333 6.16699 -25.166 18.5 -35.499s26.5 -15.5 42.5 -15.5v-81c-16 0 -30.167 -5.16699 -42.5 -15.5s-18.5 -22.166 -18.5 -35.499v-174c0 -58.667 -19 -106 -57 -142s-84.667 -54 -140 -54h-64v79h67c29.333 0 54.666 11.333 75.999 34s32 50.334 32 83.001z" />
    <glyph glyph-name="exclamdown" unicode="&#xa1;" horiz-adv-x="241" 
d="M156 282l9 -509h-90l10 509h71zM54 415c0 18 6.33301 32.833 19 44.5s28 17.5 46 17.5s33.5 -5.83301 46.5 -17.5s19.5 -26.5 19.5 -44.5s-6.5 -33 -19.5 -45s-28.5 -18 -46.5 -18s-33.333 6 -46 18s-19 27 -19 45z" />
    <glyph glyph-name="cent" unicode="&#xa2;" horiz-adv-x="531" 
d="M251 -117v110.999c-58 10 -106 36.667 -144 80s-57 97 -57 161c0 63.333 19 116.333 57 159s86 69 144 79v106h62v-103c66 -3.33301 120.667 -28 164 -74l-69 -58c-29.333 29.333 -66.333 44 -111 44c-43.333 0 -80.333 -14.167 -111 -42.5s-46 -65.166 -46 -110.499
c0 -46 15.333 -83.667 46 -113s67.667 -44 111 -44c44.667 0 81.667 15.333 111 46l70 -58c-42 -46 -97 -71 -165 -75v-108h-62z" />
    <glyph glyph-name="sterling" unicode="&#xa3;" horiz-adv-x="632" 
d="M140 348l-0.00195312 153.999c0 57.333 20.167 104.166 60.5 140.499s88.5 54.5 144.5 54.5c55.333 0 102 -19.167 140 -57.5s57 -88.833 57 -151.5h-90c0 28.667 -6.66699 53.167 -20 73.5s-30.666 33.5 -51.999 39.5c-16 4.66699 -31 6 -45 4
c-28 -1.33301 -52.667 -11.666 -74 -30.999s-32 -43.333 -32 -72v-154h153v-61h-153v-197h244c11.333 0 17 7.33301 17 22v57h90v-49c0 -35.333 -8.16699 -64.166 -24.5 -86.499s-40.166 -33.5 -71.499 -33.5h-436v90h92v197h-76v61h76z" />
    <glyph glyph-name="currency" unicode="&#xa4;" horiz-adv-x="610" 
d="M195 339c0 -30.667 10.667 -56.667 32 -78s47.333 -32 78 -32s56.834 10.667 78.501 32s32.5 47.333 32.5 78s-10.833 56.834 -32.5 78.501s-47.834 32.5 -78.501 32.5s-56.667 -10.833 -78 -32.5s-32 -47.834 -32 -78.501zM197 177l-70 -71l-55 55l70 71
c-21.333 31.333 -32 67 -32 107c0 39.333 11 75.333 33 108l-71 71l55 55l71 -71c31.333 22 67 33 107 33c39.333 0 75.333 -11 108 -33l70 71l55 -55l-70 -71c22 -34 33 -70 33 -108c0 -40 -11 -75.667 -33 -107l70 -71l-55 -55l-70 71c-32.667 -22 -68.667 -33 -108 -33
s-75.333 11 -108 33z" />
    <glyph glyph-name="yen" unicode="&#xa5;" horiz-adv-x="687" 
d="M390 253v-78h183v-64h-183v-111h-96v111h-181v64h181v78h-181v64h181l-261 372h111l198 -279l200 279h112l-264 -372h183v-64h-183z" />
    <glyph glyph-name="brokenbar" unicode="&#xa6;" horiz-adv-x="234" 
d="M86 405v390h62v-390h-62zM148 269v-388h-62v388h62z" />
    <glyph glyph-name="section" unicode="&#xa7;" horiz-adv-x="516" 
d="M151 491l0.00195312 -159.999c0 -32.667 10.667 -58.834 32 -78.501s47.666 -29.5 78.999 -29.5c20 0 38.667 3.66699 56 11v-89c-20 -5.33301 -38.667 -8 -56 -8c-55.333 0 -102 17.833 -140 53.5s-57 82.5 -57 140.5v160c0 58 19 105 57 141s84.667 54 140 54
c42.667 0 81.167 -12.167 115.5 -36.5s58.833 -57.5 73.5 -99.5l-82 -24c-10 23.333 -24.5 41.5 -43.5 54.5s-40.167 19.5 -63.5 19.5c-30.667 0 -56.834 -10 -78.501 -30s-32.5 -46.333 -32.5 -79zM365.002 78.001l-0.00195312 159.999c0 32.667 -10.667 58.834 -32 78.501
s-47.666 29.5 -78.999 29.5c-19.333 0 -37.333 -3.66699 -54 -11v89c18 5.33301 36 8 54 8c55.333 0 102 -17.833 140 -53.5s57 -82.5 57 -140.5v-160c0 -58 -19 -105 -57 -141s-84.667 -54 -140 -54c-42.667 0 -81.167 12.167 -115.5 36.5s-58.833 57.5 -73.5 99.5l82 24
c10 -23.333 24.5 -41.5 43.5 -54.5s40.167 -19.5 63.5 -19.5c30.667 0 56.834 10 78.501 30s32.5 46.333 32.5 79z" />
    <glyph glyph-name="dieresis" unicode="&#xa8;" horiz-adv-x="533" 
d="M120 630c0 16.667 6 30.667 18 42s26.667 17 44 17c16.667 0 31 -5.66699 43 -17s18 -25.333 18 -42s-6 -30.667 -18 -42s-26.333 -17 -43 -17c-17.333 0 -32 5.66699 -44 17s-18 25.333 -18 42zM289 630c0 16.667 6 30.667 18 42s26.667 17 44 17s32 -5.66699 44 -17
s18 -25.333 18 -42s-6 -30.667 -18 -42s-26.667 -17 -44 -17s-32 5.66699 -44 17s-18 25.333 -18 42z" />
    <glyph glyph-name="copyright" unicode="&#xa9;" horiz-adv-x="809" 
d="M545 222l-44.999 50.001c-32 -32 -63 -48 -93 -48c-31.333 0 -57.833 11.167 -79.5 33.5s-32.5 49.166 -32.5 80.499s10.833 58 32.5 80s48.167 33 79.5 33c30 0 60.333 -15.333 91 -46l46 47c-42 44 -87.667 66 -137 66c-50.667 0 -93.334 -17.5 -128.001 -52.5
s-52 -77.5 -52 -127.5s17.5 -92.667 52.5 -128s77.5 -53 127.5 -53c50.667 0 96.667 21.667 138 65zM55.001 343.001c0 98 33.833 181.5 101.5 250.5s150.167 103.5 247.5 103.5s180 -34.5 248 -103.5s102 -152.5 102 -250.5s-34 -181.333 -102 -250
s-150.667 -103 -248 -103s-179.833 34.333 -247.5 103s-101.5 152 -101.5 250zM116.001 343.001c0 -80.667 28 -149.334 84 -206.001s124 -85 204 -85s148 28.333 204 85s84 125.334 84 206.001s-28 149.5 -84 206.5s-124 85.5 -204 85.5s-148 -28.5 -204 -85.5
s-84 -125.833 -84 -206.5z" />
    <glyph glyph-name="ordfeminine" unicode="&#xaa;" horiz-adv-x="505" 
d="M354 325v49.999c-10 -18 -25.667 -32 -47 -42s-43.666 -15 -66.999 -15c-46 0 -85.167 15.833 -117.5 47.5s-48.5 72.834 -48.5 123.501s16 91.667 48 123s71.333 47 118 47c23.333 0 45.666 -4.83301 66.999 -14.5s37 -23.5 47 -41.5v49h63v-327h-63zM354 489.999
c0 33.333 -11 59.5 -33 78.5s-47.333 28.5 -76 28.5c-30 0 -55.167 -9.83301 -75.5 -29.5s-30.5 -45.5 -30.5 -77.5s10.167 -58.333 30.5 -79s45.5 -31 75.5 -31c30.667 0 56.5 9.83301 77.5 29.5s31.5 46.5 31.5 80.5zM98 214.999v50h315v-50h-315z" />
    <glyph glyph-name="guillemotleft" unicode="&#xab;" horiz-adv-x="489" 
d="M46 233l138 207h79l-138 -207l138 -207h-79zM222 233l138 207h79l-138 -207l138 -207h-79z" />
    <glyph glyph-name="logicalnot" unicode="&#xac;" horiz-adv-x="641" 
d="M563 359v-241h-87v154h-402v87h489z" />
    <glyph glyph-name="registered" unicode="&#xae;" horiz-adv-x="809" 
d="M548 165l-90 127c25.333 6.66699 44.5 20.167 57.5 40.5s19.5 43.5 19.5 69.5c0 31.333 -10 58.5 -30 81.5s-48 34.5 -84 34.5h-137v-353h69v122h23l88 -122h84zM353 450l68.001 -0.000976562c14 0 25.167 -4.66699 33.5 -14s12.5 -20.666 12.5 -33.999
c0 -12.667 -4.33301 -23.667 -13 -33s-20.334 -14 -35.001 -14h-66v95zM55.001 342.999c0 98 33.833 181.5 101.5 250.5s150.167 103.5 247.5 103.5s180 -34.5 248 -103.5s102 -152.5 102 -250.5s-34 -181.333 -102 -250s-150.667 -103 -248 -103
s-179.833 34.333 -247.5 103s-101.5 152 -101.5 250zM116.001 342.999c0 -80.667 28 -149.334 84 -206.001s124 -85 204 -85s148 28.333 204 85s84 125.334 84 206.001s-28 149.5 -84 206.5s-124 85.5 -204 85.5s-148 -28.5 -204 -85.5s-84 -125.833 -84 -206.5z" />
    <glyph glyph-name="macron" unicode="&#xaf;" horiz-adv-x="492" 
d="M120 660h252v-80h-252v80z" />
    <glyph glyph-name="degree" unicode="&#xb0;" horiz-adv-x="370" 
d="M54 566c0 36 12.833 66.833 38.5 92.5s56.5 38.5 92.5 38.5s66.833 -12.833 92.5 -38.5s38.5 -56.5 38.5 -92.5s-12.833 -66.833 -38.5 -92.5s-56.5 -38.5 -92.5 -38.5s-66.833 12.833 -92.5 38.5s-38.5 56.5 -38.5 92.5zM123 566c0 -17.333 6.16699 -32 18.5 -44
s26.833 -18 43.5 -18s31.167 6 43.5 18s18.5 26.667 18.5 44s-6.16699 32 -18.5 44s-26.833 18 -43.5 18s-31.167 -6 -43.5 -18s-18.5 -26.667 -18.5 -44z" />
    <glyph glyph-name="plusminus" unicode="&#xb1;" horiz-adv-x="542" 
d="M227 364v143h87v-143h159v-87h-159v-145h-87v145h-158v87h158zM473 0h-404v82h404v-82z" />
    <glyph glyph-name="twosuperior" unicode="&#xb2;" horiz-adv-x="320" 
d="M37 458l158.003 190.999c18 22.667 27 43 27 61s-6.33301 32.667 -19 44s-28.334 17 -47.001 17c-17.333 0 -32.833 -6 -46.5 -18s-21.834 -27.667 -24.501 -47l-53 14c4.66699 32.667 18.667 58.834 42 78.501s50.666 29.5 81.999 29.5c35.333 0 64.833 -11 88.5 -33
s35.5 -50.333 35.5 -85c0 -36 -14.333 -70 -43 -102l-101 -119h145v-59h-244v28z" />
    <glyph glyph-name="threesuperior" unicode="&#xb3;" horiz-adv-x="320" 
d="M87 738l-40.0029 32c11.333 18.667 27 33.167 47 43.5s42 14.833 66 13.5c32 -1.33301 58.333 -12.666 79 -33.999s30.334 -46 29.001 -74c0 -8 -1 -16 -3 -24c-7.33301 -24 -21.666 -42 -42.999 -54c19.333 -7.33301 35 -21.333 47 -42s17 -41.667 15 -63
c-2.66699 -33.333 -18.167 -60.833 -46.5 -82.5s-60.5 -31.167 -96.5 -28.5c-25.333 2 -48.5 10.5 -69.5 25.5s-36.833 33.833 -47.5 56.5l48 26c6 -14 15.833 -26.333 29.5 -37s28.167 -16.334 43.5 -17.001h-1c22 -1.33301 41.5 4.16699 58.5 16.5
s25.833 28.166 26.5 47.499c0.666992 18.667 -6.5 35 -21.5 49s-32.833 21 -53.5 21h-45v52h45c13.333 0 25 4.33301 35 13s16.333 19.334 19 32.001c2.66699 16.667 0.333984 30 -6.99902 40c-8.66699 14 -23.667 21.667 -45 23c-28.667 2.66699 -51.667 -9 -69 -35z" />
    <glyph glyph-name="acute" unicode="&#xb4;" horiz-adv-x="512" 
d="M335 708l-119 -154h-87l97 154h109z" />
    <glyph glyph-name="mu" unicode="&#xb5;" horiz-adv-x="555" 
d="M83 -153v620h91v-270c0 -36.667 8 -65.334 24 -86.001s38.667 -31 68 -31c36 0 67 11 93 33s39 55.333 39 100v254h91v-467h-91v57c-13.333 -21.333 -32.5 -37.666 -57.5 -48.999s-49.833 -17 -74.5 -17c-42 0 -72.667 10 -92 30v-174h-91z" />
    <glyph glyph-name="paragraph" unicode="&#xb6;" horiz-adv-x="651" 
d="M325 689l-0.000976562 -745h-83v311c-57.333 3.33301 -106.166 26 -146.499 68s-60.5 91.667 -60.5 149c0 60 21 111.167 63 153.5s93.333 63.5 154 63.5h73zM382.999 689h92.999c37.333 0 69.5 -13.5 96.5 -40.5s40.5 -59.167 40.5 -96.5v-85h-82v85
c0 14 -4.16699 26.333 -12.5 37s-19.166 16 -32.499 16h-20v-654c0 -34.667 -13.667 -65.667 -41 -93s-59.333 -42 -96 -44h-88v76h88c14 0 26.5 4.66699 37.5 14s16.5 20 16.5 32v753z" />
    <glyph glyph-name="periodcentered" unicode="&#xb7;" horiz-adv-x="269" 
d="M69 251c0 18 6.33301 33 19 45s28 18 46 18s33.5 -6 46.5 -18s19.5 -27 19.5 -45s-6.5 -32.833 -19.5 -44.5s-28.5 -17.5 -46.5 -17.5s-33.333 5.83301 -46 17.5s-19 26.5 -19 44.5z" />
    <glyph glyph-name="cedilla" unicode="&#xb8;" horiz-adv-x="522" 
d="M227 -117c10 -22 26.667 -29.667 50 -23c10 4.66699 16.833 12 20.5 22s3.5 20.333 -0.5 31l-43 120h49l51 -95c5.33301 -12.667 8 -26.667 8 -42c0 -20 -5.5 -38.167 -16.5 -54.5s-26.5 -28.833 -46.5 -37.5c-12 -5.33301 -25 -8 -39 -8c-19.333 0 -37 5.66699 -53 17
s-28.333 27 -37 47c-6.66699 15.333 -10 31.666 -10 48.999l64 -4c-0.666992 -9.33301 0.333008 -16.666 3 -21.999z" />
    <glyph glyph-name="onesuperior" unicode="&#xb9;" horiz-adv-x="208" 
d="M94 430v305l-68 -35v57l128 70v-397h-60z" />
    <glyph glyph-name="ordmasculine" unicode="&#xba;" horiz-adv-x="497" 
d="M248 318c-48 0 -88.5 16 -121.5 48s-49.5 73.333 -49.5 124c0 50 16.5 90.667 49.5 122s73.5 47 121.5 47s88.667 -15.667 122 -47s50 -72 50 -122c0 -50.667 -16.667 -92 -50 -124s-74 -48 -122 -48zM248 380c30 0 55.5 10.167 76.5 30.5s31.5 46.833 31.5 79.5
c0 32 -10.5 57.833 -31.5 77.5s-46.5 29.5 -76.5 29.5s-55.5 -9.83301 -76.5 -29.5s-31.5 -45.5 -31.5 -77.5c0 -32.667 10.5 -59.167 31.5 -79.5s46.5 -30.5 76.5 -30.5zM85 215v50h331v-50h-331z" />
    <glyph glyph-name="guillemotright" unicode="&#xbb;" horiz-adv-x="489" 
d="M443 233l-138 -207h-79l138 207l-138 207h79zM267 233l-138 -207h-79l138 207l-138 207h79z" />
    <glyph glyph-name="onequarter" unicode="&#xbc;" horiz-adv-x="733" 
d="M163 270h-53v324l-64 -22v51l117 42v-395zM582 295l-113 -164h113v164zM692 80h-57v-80h-53v80h-204l217 312h40v-261h57v-51zM596 670l-450 -680h-68l451 680h67z" />
    <glyph glyph-name="onehalf" unicode="&#xbd;" horiz-adv-x="771" 
d="M164 270h-53v324l-64 -22v51l117 42v-395zM478 0l-0.000976562 24l159 193c19.333 24 29 45.333 29 64s-7.16699 33.667 -21.5 45s-31.5 17 -51.5 17c-18.667 0 -34.5 -5.5 -47.5 -16.5s-20.833 -26.167 -23.5 -45.5l-49 13c4.66699 31.333 18.5 56.333 41.5 75
s50.167 28 81.5 28c34.667 0 63.834 -10.833 87.501 -32.5s35.5 -49.5 35.5 -83.5c0 -34.667 -14.333 -68.667 -43 -102l-106 -125h150v-54h-242zM593.999 670l-450 -680h-68l451 680h67z" />
    <glyph glyph-name="threequarters" unicode="&#xbe;" horiz-adv-x="812" 
d="M548 131l113 164v-164h-113zM714 80h57v51h-57v261h-40l-217 -312h204v-80h53v80zM104 578c-4 4 -10.5029 9.32812 -19.5029 15.9951s-15.833 12 -20.5 16c10.667 18.667 26.167 33.167 46.5 43.5s42.5 14.833 66.5 13.5c31.333 -2 57.5 -13.5 78.5 -34.5
s30.833 -45.5 29.5 -73.5c0 -15.333 -4.16699 -30.166 -12.5 -44.499s-19.5 -25.5 -33.5 -33.5c19.333 -7.33301 35 -21.333 47 -42s17 -41.667 15 -63c-2.66699 -33.333 -18.167 -60.833 -46.5 -82.5s-60.833 -31.167 -97.5 -28.5c-25.333 2 -48.5 10.5 -69.5 25.5
s-36.5 33.833 -46.5 56.5l24 12.5c10.667 5.66699 18.334 9.83398 23.001 12.501c6 -14 16 -26.167 30 -36.5s28.667 -16.166 44 -17.499h-1c22 -1.33301 41.5 4.33398 58.5 17.001s25.833 28.667 26.5 48c0.666992 18.667 -6.66602 35 -21.999 49s-33 21 -53 21h-45v52h45
c14 0 25.833 4.16699 35.5 12.5s15.834 19.166 18.501 32.499c2.66699 16.667 -1 30.834 -11 42.501s-24 18.834 -42 21.501c-28 2 -50.667 -10 -68 -36zM233.997 -10.0049l450 680h-67l-451 -680h68z" />
    <glyph glyph-name="questiondown" unicode="&#xbf;" horiz-adv-x="472" 
d="M349 -24h86.001c0 -62.667 -19 -113.167 -57 -151.5s-84.667 -57.5 -140 -57.5c-56 0 -104.167 18 -144.5 54s-60.5 83 -60.5 141c0 46.667 13.667 86.667 41 120s61.666 56.333 102.999 69c24 7.33301 41.833 16 53.5 26s17.5 25.667 17.5 47l2 59h88v-59
c0 -45.333 -11.5 -79.833 -34.5 -103.5s-56.167 -42.167 -99.5 -55.5c-22 -6 -41.167 -19 -57.5 -39s-24.5 -41.333 -24.5 -64c0 -31.333 11.667 -56.833 35 -76.5s50.333 -29.5 81 -29.5c30 0 56 11 78 33s33 51 33 87zM359.001 415c0 -18 -6.5 -33 -19.5 -45
s-28.5 -18 -46.5 -18s-33.333 6 -46 18s-19 27 -19 45s6.33301 32.833 19 44.5s28 17.5 46 17.5s33.5 -5.83301 46.5 -17.5s19.5 -26.5 19.5 -44.5z" />
    <glyph glyph-name="Agrave" unicode="&#xc0;" horiz-adv-x="645" 
d="M209 259h228l-114 306zM469 175h-292l-67 -175h-99l262 689h100l261 -689h-98zM285 776l-119 154h109l97 -154h-87z" />
    <glyph glyph-name="Aacute" unicode="&#xc1;" horiz-adv-x="645" 
d="M437 259h-228l114 306zM177 175h292l67 -175h98l-261 689h-100l-262 -689h99zM482 930l-119 -154h-87l97 154h109z" />
    <glyph glyph-name="Acircumflex" unicode="&#xc2;" horiz-adv-x="645" 
d="M209 259h228l-114 306zM469 175h-292l-67 -175h-99l262 689h100l261 -689h-98zM397 776l-75 87l-74 -87h-82l110 154h93l110 -154h-82z" />
    <glyph glyph-name="Atilde" unicode="&#xc3;" horiz-adv-x="645" 
d="M209 259h228l-114 306zM469 175h-292l-67 -175h-99l262 689h100l261 -689h-98zM277 832c-6 0 -11.834 -3.66797 -17.501 -11.001s-8.83398 -18.333 -9.50098 -33h-61c2 40.667 11.5 70.334 28.5 89.001s36.833 28 59.5 28c16.667 0 36 -8 58 -24
c14 -11.333 24.333 -17 31 -17s12.834 3.16699 18.501 9.5s8.83398 16.833 9.50098 31.5h61c-2 -40 -11.667 -69 -29 -87s-37.333 -27 -60 -27c-16.667 0 -35.667 8.33301 -57 25c-16 10.667 -26.667 16 -32 16z" />
    <glyph glyph-name="Adieresis" unicode="&#xc4;" horiz-adv-x="645" 
d="M437 259h-228l114 306zM177 175h292l67 -175h98l-261 689h-100l-262 -689h99zM176 852c0 16.667 6 30.667 18 42s26.667 17 44 17c16.667 0 31 -5.66699 43 -17s18 -25.333 18 -42s-6 -30.667 -18 -42s-26.333 -17 -43 -17c-17.333 0 -32 5.66699 -44 17
s-18 25.333 -18 42zM345 852c0 16.667 6 30.667 18 42s26.667 17 44 17s32 -5.66699 44 -17s18 -25.333 18 -42s-6 -30.667 -18 -42s-26.667 -17 -44 -17s-32 5.66699 -44 17s-18 25.333 -18 42z" />
    <glyph glyph-name="Aring" unicode="&#xc5;" horiz-adv-x="645" 
d="M437 259h-228l114 306zM177 175h292l67 -175h98l-261 689h-100l-262 -689h99zM217 867c0 30 10 55.167 30 75.5s44.667 30.5 74 30.5c30 0 55.333 -10.167 76 -30.5s31 -45.5 31 -75.5c0 -29.333 -10.333 -54 -31 -74s-46 -30 -76 -30
c-28.667 0 -53.167 10.167 -73.5 30.5s-30.5 44.833 -30.5 73.5zM270 867c0 -14 4.99805 -26 14.998 -36s22 -15 36 -15c14.667 0 27.334 5 38.001 15s16 22 16 36c0 14.667 -5.16699 27.167 -15.5 37.5s-23.166 15.5 -38.499 15.5c-14 0 -26 -5.16699 -36 -15.5
s-15 -22.833 -15 -37.5z" />
    <glyph glyph-name="AE" unicode="&#xc6;" horiz-adv-x="934" 
d="M220 173l-111 -173h-109l435 689h435v-92h-313v-213h274v-92h-274v-200h324v-92h-416v173h-245zM275 262h190v298z" />
    <glyph glyph-name="Ccedilla" unicode="&#xc7;" horiz-adv-x="684" 
d="M318 -117c10 -22 26.667 -29.668 50 -23.001c10 4.66699 16.833 12 20.5 22s3.5 20.333 -0.5 31l-29 79c-88 9.33301 -161.5 47.5 -220.5 114.5s-88.5 145.833 -88.5 236.5c0 98 33.833 181.5 101.5 250.5s150.167 103.5 247.5 103.5c52 0 100.333 -10.333 145 -31
s82.667 -49.334 114 -86.001l-70 -58c-52 56.667 -115 85 -189 85c-72 0 -132.667 -25.667 -182 -77s-74 -113.666 -74 -186.999s24.667 -135.5 74 -186.5s110 -76.5 182 -76.5c77.333 0 141 29.333 191 88l70 -59c-62 -73.333 -143 -112.666 -243 -117.999l28 -53
c5.33301 -12.667 8 -26.667 8 -42c0 -20 -5.5 -38.167 -16.5 -54.5s-26.5 -28.833 -46.5 -37.5c-12 -5.33301 -25 -8 -39 -8c-19.333 0 -37 5.66699 -53 17s-28.333 27 -37 47c-6.66699 15.333 -10 31.666 -10 48.999l64 -4c-0.666992 -9.33301 0.333008 -16.666 3 -21.999z
" />
    <glyph glyph-name="Egrave" unicode="&#xc8;" horiz-adv-x="565" 
d="M94 689h408v-87h-315v-220h275v-87h-275v-208h325v-87h-418v689zM267 776l-119 154h109l97 -154h-87z" />
    <glyph glyph-name="Eacute" unicode="&#xc9;" horiz-adv-x="565" 
d="M502 689h-408v-689h418v87h-325v208h275v87h-275v220h315v87zM421 930l-119 -154h-87l97 154h109z" />
    <glyph glyph-name="Ecircumflex" unicode="&#xca;" horiz-adv-x="565" 
d="M94 689h408v-87h-315v-220h275v-87h-275v-208h325v-87h-418v689zM357 776l-75 87l-74 -87h-82l110 154h93l110 -154h-82z" />
    <glyph glyph-name="Edieresis" unicode="&#xcb;" horiz-adv-x="565" 
d="M502 689h-408v-689h418v87h-325v208h275v87h-275v220h315v87zM140 852c0 16.667 6 30.667 18 42s26.667 17 44 17c16.667 0 31 -5.66699 43 -17s18 -25.333 18 -42s-6 -30.667 -18 -42s-26.333 -17 -43 -17c-17.333 0 -32 5.66699 -44 17s-18 25.333 -18 42zM309 852
c0 16.667 6 30.667 18 42s26.667 17 44 17s32 -5.66699 44 -17s18 -25.333 18 -42s-6 -30.667 -18 -42s-26.667 -17 -44 -17s-32 5.66699 -44 17s-18 25.333 -18 42z" />
    <glyph glyph-name="Igrave" unicode="&#xcc;" horiz-adv-x="281" 
d="M94 689h93v-689h-93v689zM100 776l-119 154h109l97 -154h-87z" />
    <glyph glyph-name="Iacute" unicode="&#xcd;" horiz-adv-x="281" 
d="M187 689h-93v-689h93v689zM299 930l-119 -154h-87l97 154h109z" />
    <glyph glyph-name="Icircumflex" unicode="&#xce;" horiz-adv-x="281" 
d="M94 689h93v-689h-93v689zM215 776l-75 87l-74 -87h-82l110 154h93l110 -154h-82z" />
    <glyph glyph-name="Idieresis" unicode="&#xcf;" horiz-adv-x="281" 
d="M187 689h-93v-689h93v689zM-6 852c0 16.667 6 30.667 18 42s26.667 17 44 17c16.667 0 31 -5.66699 43 -17s18 -25.333 18 -42s-6 -30.667 -18 -42s-26.333 -17 -43 -17c-17.333 0 -32 5.66699 -44 17s-18 25.333 -18 42zM163 852c0 16.667 6 30.667 18 42
s26.667 17 44 17s32 -5.66699 44 -17s18 -25.333 18 -42s-6 -30.667 -18 -42s-26.667 -17 -44 -17s-32 5.66699 -44 17s-18 25.333 -18 42z" />
    <glyph glyph-name="Eth" unicode="&#xd0;" horiz-adv-x="724" 
d="M363 0h-263v311h-93v68h93v310h263c95.333 0 170.333 -32.333 225 -97s82 -147.667 82 -249c0 -100.667 -27.333 -183 -82 -247s-129.667 -96 -225 -96zM193 379h165v-68h-165v-219h170c68.667 0 121.5 23.167 158.5 69.5s55.5 106.833 55.5 181.5
c0 75.333 -18.5 136.5 -55.5 183.5s-89.833 70.5 -158.5 70.5h-170v-218z" />
    <glyph glyph-name="Ntilde" unicode="&#xd1;" horiz-adv-x="684" 
d="M590 0h-89l-314 519v-519h-93v689h92l311 -515v515h93v-689zM297 832c-6 0 -11.834 -3.66797 -17.501 -11.001s-8.83398 -18.333 -9.50098 -33h-61c2 40.667 11.5 70.334 28.5 89.001s36.833 28 59.5 28c16.667 0 36 -8 58 -24c14 -11.333 24.333 -17 31 -17
s12.834 3.16699 18.501 9.5s8.83398 16.833 9.50098 31.5h61c-2 -40 -11.667 -69 -29 -87s-37.333 -27 -60 -27c-16.667 0 -35.667 8.33301 -57 25c-16 10.667 -26.667 16 -32 16z" />
    <glyph glyph-name="Ograve" unicode="&#xd2;" horiz-adv-x="796" 
d="M49 343c0 98.667 33.667 182.334 101 251.001s149.666 103 246.999 103c98 0 180.833 -34.333 248.5 -103s101.5 -152.334 101.5 -251.001c0 -98 -33.833 -181.333 -101.5 -250s-150.5 -103 -248.5 -103c-97.333 0 -179.666 34.333 -246.999 103s-101 152 -101 250z
M142 343c0 -73.333 24.499 -135.5 73.499 -186.5s109.5 -76.5 181.5 -76.5s132.667 25.5 182 76.5s74 113.167 74 186.5s-24.667 135.666 -74 186.999s-110 77 -182 77c-71.333 0 -131.666 -25.667 -180.999 -77s-74 -113.666 -74 -186.999zM363.999 776l-119 154h109
l97 -154h-87z" />
    <glyph glyph-name="Oacute" unicode="&#xd3;" horiz-adv-x="796" 
d="M49 343c0 -98 33.667 -181.333 101 -250s149.666 -103 246.999 -103c98 0 180.833 34.333 248.5 103s101.5 152 101.5 250c0 98.667 -33.833 182.334 -101.5 251.001s-150.5 103 -248.5 103c-97.333 0 -179.666 -34.333 -246.999 -103s-101 -152.334 -101 -251.001z
M142 343c0 73.333 24.668 135.666 74.001 186.999s109.666 77 180.999 77c72 0 132.667 -25.667 182 -77s74 -113.666 74 -186.999s-24.667 -135.5 -74 -186.5s-110 -76.5 -182 -76.5s-132.5 25.5 -181.5 76.5s-73.5 113.167 -73.5 186.5zM539.001 930l-119 -154h-87l97 154
h109z" />
    <glyph glyph-name="Ocircumflex" unicode="&#xd4;" horiz-adv-x="796" 
d="M49 343c0 98.667 33.667 182.334 101 251.001s149.666 103 246.999 103c98 0 180.833 -34.333 248.5 -103s101.5 -152.334 101.5 -251.001c0 -98 -33.833 -181.333 -101.5 -250s-150.5 -103 -248.5 -103c-97.333 0 -179.666 34.333 -246.999 103s-101 152 -101 250z
M142 343c0 -73.333 24.499 -135.5 73.499 -186.5s109.5 -76.5 181.5 -76.5s132.667 25.5 182 76.5s74 113.167 74 186.5s-24.667 135.666 -74 186.999s-110 77 -182 77c-71.333 0 -131.666 -25.667 -180.999 -77s-74 -113.666 -74 -186.999zM471.999 776l-75 87l-74 -87h-82
l110 154h93l110 -154h-82z" />
    <glyph glyph-name="Otilde" unicode="&#xd5;" horiz-adv-x="796" 
d="M49 343c0 98.667 33.667 182.334 101 251.001s149.666 103 246.999 103c98 0 180.833 -34.333 248.5 -103s101.5 -152.334 101.5 -251.001c0 -98 -33.833 -181.333 -101.5 -250s-150.5 -103 -248.5 -103c-97.333 0 -179.666 34.333 -246.999 103s-101 152 -101 250z
M142 343c0 -73.333 24.499 -135.5 73.499 -186.5s109.5 -76.5 181.5 -76.5s132.667 25.5 182 76.5s74 113.167 74 186.5s-24.667 135.666 -74 186.999s-110 77 -182 77c-71.333 0 -131.666 -25.667 -180.999 -77s-74 -113.666 -74 -186.999zM352.999 832
c-6 0 -11.834 -3.66797 -17.501 -11.001s-8.83398 -18.333 -9.50098 -33h-61c2 40.667 11.5 70.334 28.5 89.001s36.833 28 59.5 28c16.667 0 36 -8 58 -24c14 -11.333 24.333 -17 31 -17s12.834 3.16699 18.501 9.5s8.83398 16.833 9.50098 31.5h61
c-2 -40 -11.667 -69 -29 -87s-37.333 -27 -60 -27c-16.667 0 -35.667 8.33301 -57 25c-16 10.667 -26.667 16 -32 16z" />
    <glyph glyph-name="Odieresis" unicode="&#xd6;" horiz-adv-x="796" 
d="M49 343c0 -98 33.667 -181.333 101 -250s149.666 -103 246.999 -103c98 0 180.833 34.333 248.5 103s101.5 152 101.5 250c0 98.667 -33.833 182.334 -101.5 251.001s-150.5 103 -248.5 103c-97.333 0 -179.666 -34.333 -246.999 -103s-101 -152.334 -101 -251.001z
M142 343c0 73.333 24.668 135.666 74.001 186.999s109.666 77 180.999 77c72 0 132.667 -25.667 182 -77s74 -113.666 74 -186.999s-24.667 -135.5 -74 -186.5s-110 -76.5 -182 -76.5s-132.5 25.5 -181.5 76.5s-73.5 113.167 -73.5 186.5zM251.001 852
c0 16.667 6 30.667 18 42s26.667 17 44 17c16.667 0 31 -5.66699 43 -17s18 -25.333 18 -42s-6 -30.667 -18 -42s-26.333 -17 -43 -17c-17.333 0 -32 5.66699 -44 17s-18 25.333 -18 42zM420.001 852c0 16.667 6 30.667 18 42s26.667 17 44 17s32 -5.66699 44 -17
s18 -25.333 18 -42s-6 -30.667 -18 -42s-26.667 -17 -44 -17s-32 5.66699 -44 17s-18 25.333 -18 42z" />
    <glyph glyph-name="multiply" unicode="&#xd7;" horiz-adv-x="497" 
d="M188 273l-125 124l62 60l123 -123l126 125l60 -63l-124 -123l124 -124l-60 -63l-126 125l-123 -123l-62 60z" />
    <glyph glyph-name="Oslash" unicode="&#xd8;" horiz-adv-x="795" 
d="M178 66l-80 -82.001l-47 47l80 82c-55.333 66 -83 142.667 -83 230c0 98.667 33.667 182.334 101 251.001s149.666 103 246.999 103c84.667 0 159.334 -27 224.001 -81l79 81l47 -46l-80 -82c53.333 -66 80 -141.333 80 -226c0 -98 -33.833 -181.333 -101.5 -250
s-150.5 -103 -248.5 -103c-83.333 0 -156 25.333 -218 76zM141 342.999c0 -62 17.999 -116.668 53.999 -164.001l361 371c-46.667 38 -100 57 -160 57c-71.333 0 -131.666 -25.667 -180.999 -77s-74 -113.666 -74 -186.999zM395.999 79.998c72 0 132.667 25.5 182 76.5
s74 113.167 74 186.5c0 59.333 -17 112.333 -51 159l-359 -370c44 -34.667 95.333 -52 154 -52z" />
    <glyph glyph-name="Ugrave" unicode="&#xd9;" horiz-adv-x="678" 
d="M339 80c44 0 81.333 14.667 112 44s46 67 46 113v452h94v-452c0 -73.333 -24.5 -132.833 -73.5 -178.5s-108.5 -68.5 -178.5 -68.5s-129.5 22.833 -178.5 68.5s-73.5 105.167 -73.5 178.5v452h94v-452c0 -46 15.333 -83.667 46 -113s68 -44 112 -44zM314 776l-119 154
h109l97 -154h-87z" />
    <glyph glyph-name="Uacute" unicode="&#xda;" horiz-adv-x="678" 
d="M339 80c44 0 81.333 14.667 112 44s46 67 46 113v452h94v-452c0 -73.333 -24.5 -132.833 -73.5 -178.5s-108.5 -68.5 -178.5 -68.5s-129.5 22.833 -178.5 68.5s-73.5 105.167 -73.5 178.5v452h94v-452c0 -46 15.333 -83.667 46 -113s68 -44 112 -44zM473 930l-119 -154
h-87l97 154h109z" />
    <glyph glyph-name="Ucircumflex" unicode="&#xdb;" horiz-adv-x="678" 
d="M339 80c44 0 81.333 14.667 112 44s46 67 46 113v452h94v-452c0 -73.333 -24.5 -132.833 -73.5 -178.5s-108.5 -68.5 -178.5 -68.5s-129.5 22.833 -178.5 68.5s-73.5 105.167 -73.5 178.5v452h94v-452c0 -46 15.333 -83.667 46 -113s68 -44 112 -44zM413 776l-75 87
l-74 -87h-82l110 154h93l110 -154h-82z" />
    <glyph glyph-name="Udieresis" unicode="&#xdc;" horiz-adv-x="678" 
d="M339 80c44 0 81.333 14.667 112 44s46 67 46 113v452h94v-452c0 -73.333 -24.5 -132.833 -73.5 -178.5s-108.5 -68.5 -178.5 -68.5s-129.5 22.833 -178.5 68.5s-73.5 105.167 -73.5 178.5v452h94v-452c0 -46 15.333 -83.667 46 -113s68 -44 112 -44zM192 852
c0 16.667 6 30.667 18 42s26.667 17 44 17c16.667 0 31 -5.66699 43 -17s18 -25.333 18 -42s-6 -30.667 -18 -42s-26.333 -17 -43 -17c-17.333 0 -32 5.66699 -44 17s-18 25.333 -18 42zM361 852c0 16.667 6 30.667 18 42s26.667 17 44 17s32 -5.66699 44 -17
s18 -25.333 18 -42s-6 -30.667 -18 -42s-26.667 -17 -44 -17s-32 5.66699 -44 17s-18 25.333 -18 42z" />
    <glyph glyph-name="Yacute" unicode="&#xdd;" horiz-adv-x="628" 
d="M362 0h-96v317l-261 372h111l198 -279l200 279h112l-264 -372v-317zM459 930l-119 -154h-87l97 154h109z" />
    <glyph glyph-name="Thorn" unicode="&#xde;" horiz-adv-x="572" 
d="M327 138h-140v-138h-93v689h93v-123h140c60 0 110.167 -19.5 150.5 -58.5s60.5 -90.167 60.5 -153.5c0 -64 -20.167 -116 -60.5 -156s-90.5 -60 -150.5 -60zM187 228l140 -0.000976562c33.333 0 61.5 11.833 84.5 35.5s34.5 53.834 34.5 90.501
c0 37.333 -12 66.833 -36 88.5s-54.333 33.5 -91 35.5l-132 1v-251z" />
    <glyph glyph-name="germandbls" unicode="&#xdf;" horiz-adv-x="566" 
d="M206 4l-0.000976562 84.999c29.333 -10.667 57 -16 83 -16c41.333 0 76.166 14.5 104.499 43.5s42.5 62.833 42.5 101.5c0 36.667 -14.5 69.667 -43.5 99s-63.167 44 -102.5 44h-37v74h35c26 0 48.333 9 67 27s28 39.333 28 64c0 24 -9.66699 44.333 -29 61
s-43 25.667 -71 27h-9c-32 0 -58.667 -11.167 -80 -33.5s-32 -52.5 -32 -90.5v-490h-86v490c0 64.667 18.333 115.334 55 152.001s84.334 55 143.001 55h10c50.667 0 94 -16.667 130 -50s54 -73.666 54 -120.999c0 -46.667 -21 -86.334 -63 -119.001
c33.333 -16 61.166 -41.833 83.499 -77.5s33.5 -72.834 33.5 -111.501c0 -64 -22.167 -118 -66.5 -162s-99.166 -66 -164.499 -66c-25.333 -1.33301 -53.666 3.33398 -84.999 14.001z" />
    <glyph glyph-name="agrave" unicode="&#xe0;" horiz-adv-x="612" 
d="M446 0v71.999c-15.333 -26 -38 -46.167 -68 -60.5s-62 -21.5 -96 -21.5c-66 0 -122 22.667 -168 68s-69 104 -69 176c0 72.667 23 131.334 69 176.001s102 67 168 67c34 0 66.167 -7 96.5 -21s52.833 -33.667 67.5 -59v70h90v-467h-90zM445 234.999
c0 47.333 -15.667 84.665 -47 111.998s-67.333 41 -108 41c-43.333 0 -79.5 -14.167 -108.5 -42.5s-43.5 -65.166 -43.5 -110.499s14.667 -82.666 44 -111.999s65.333 -44 108 -44c43.333 0 80 14 110 42s45 66 45 114zM286 553.998l-119 154h109l97 -154h-87z" />
    <glyph glyph-name="aacute" unicode="&#xe1;" horiz-adv-x="612" 
d="M446 0v71.999c-15.333 -26 -38 -46.167 -68 -60.5s-62 -21.5 -96 -21.5c-66 0 -122 22.667 -168 68s-69 104 -69 176c0 72.667 23 131.334 69 176.001s102 67 168 67c34 0 66.167 -7 96.5 -21s52.833 -33.667 67.5 -59v70h90v-467h-90zM445 234.999
c0 47.333 -15.667 84.665 -47 111.998s-67.333 41 -108 41c-43.333 0 -79.5 -14.167 -108.5 -42.5s-43.5 -65.166 -43.5 -110.499s14.667 -82.666 44 -111.999s65.333 -44 108 -44c43.333 0 80 14 110 42s45 66 45 114zM428 707.998l-119 -154h-87l97 154h109z" />
    <glyph glyph-name="acircumflex" unicode="&#xe2;" horiz-adv-x="612" 
d="M446 0v71.999c-15.333 -26 -38 -46.167 -68 -60.5s-62 -21.5 -96 -21.5c-66 0 -122 22.667 -168 68s-69 104 -69 176c0 72.667 23 131.334 69 176.001s102 67 168 67c34 0 66.167 -7 96.5 -21s52.833 -33.667 67.5 -59v70h90v-467h-90zM445 234.999
c0 47.333 -15.667 84.665 -47 111.998s-67.333 41 -108 41c-43.333 0 -79.5 -14.167 -108.5 -42.5s-43.5 -65.166 -43.5 -110.499s14.667 -82.666 44 -111.999s65.333 -44 108 -44c43.333 0 80 14 110 42s45 66 45 114zM363 553.998l-75 87l-74 -87h-82l110 154h93l110 -154
h-82z" />
    <glyph glyph-name="atilde" unicode="&#xe3;" horiz-adv-x="612" 
d="M446 0v71.999c-15.333 -26 -38 -46.167 -68 -60.5s-62 -21.5 -96 -21.5c-66 0 -122 22.667 -168 68s-69 104 -69 176c0 72.667 23 131.334 69 176.001s102 67 168 67c34 0 66.167 -7 96.5 -21s52.833 -33.667 67.5 -59v70h90v-467h-90zM445 234.999
c0 47.333 -15.667 84.665 -47 111.998s-67.333 41 -108 41c-43.333 0 -79.5 -14.167 -108.5 -42.5s-43.5 -65.166 -43.5 -110.499s14.667 -82.666 44 -111.999s65.333 -44 108 -44c43.333 0 80 14 110 42s45 66 45 114zM260 609.998c-6 0 -11.834 -3.66797 -17.501 -11.001
s-8.83398 -18.333 -9.50098 -33h-61c2 40.667 11.5 70.334 28.5 89.001s36.833 28 59.5 28c16.667 0 36 -8 58 -24c14 -11.333 24.333 -17 31 -17s12.834 3.16699 18.501 9.5s8.83398 16.833 9.50098 31.5h61c-2 -40 -11.667 -69 -29 -87s-37.333 -27 -60 -27
c-16.667 0 -35.667 8.33301 -57 25c-16 10.667 -26.667 16 -32 16z" />
    <glyph glyph-name="adieresis" unicode="&#xe4;" horiz-adv-x="612" 
d="M446 0v71.999c-15.333 -26 -38 -46.167 -68 -60.5s-62 -21.5 -96 -21.5c-66 0 -122 22.667 -168 68s-69 104 -69 176c0 72.667 23 131.334 69 176.001s102 67 168 67c34 0 66.167 -7 96.5 -21s52.833 -33.667 67.5 -59v70h90v-467h-90zM445 234.999
c0 47.333 -15.667 84.665 -47 111.998s-67.333 41 -108 41c-43.333 0 -79.5 -14.167 -108.5 -42.5s-43.5 -65.166 -43.5 -110.499s14.667 -82.666 44 -111.999s65.333 -44 108 -44c43.333 0 80 14 110 42s45 66 45 114zM144 629.998c0 16.667 6 30.667 18 42
s26.667 17 44 17c16.667 0 31 -5.66699 43 -17s18 -25.333 18 -42s-6 -30.667 -18 -42s-26.333 -17 -43 -17c-17.333 0 -32 5.66699 -44 17s-18 25.333 -18 42zM313 629.998c0 16.667 6 30.667 18 42s26.667 17 44 17s32 -5.66699 44 -17s18 -25.333 18 -42
s-6 -30.667 -18 -42s-26.667 -17 -44 -17s-32 5.66699 -44 17s-18 25.333 -18 42z" />
    <glyph glyph-name="aring" unicode="&#xe5;" horiz-adv-x="612" 
d="M446 0v71.999c-15.333 -26 -38 -46.167 -68 -60.5s-62 -21.5 -96 -21.5c-66 0 -122 22.667 -168 68s-69 104 -69 176c0 72.667 23 131.334 69 176.001s102 67 168 67c34 0 66.167 -7 96.5 -21s52.833 -33.667 67.5 -59v70h90v-467h-90zM445 234.999
c0 47.333 -15.667 84.665 -47 111.998s-67.333 41 -108 41c-43.333 0 -79.5 -14.167 -108.5 -42.5s-43.5 -65.166 -43.5 -110.499s14.667 -82.666 44 -111.999s65.333 -44 108 -44c43.333 0 80 14 110 42s45 66 45 114zM185 644.998c0 30 10 55.167 30 75.5
s44.667 30.5 74 30.5c30 0 55.333 -10.167 76 -30.5s31 -45.5 31 -75.5c0 -29.333 -10.333 -54 -31 -74s-46 -30 -76 -30c-28.667 0 -53.167 10.167 -73.5 30.5s-30.5 44.833 -30.5 73.5zM238 644.998c0 -14 4.99805 -26 14.998 -36s22 -15 36 -15
c14.667 0 27.334 5 38.001 15s16 22 16 36c0 14.667 -5.16699 27.167 -15.5 37.5s-23.166 15.5 -38.499 15.5c-14 0 -26 -5.16699 -36 -15.5s-15 -22.833 -15 -37.5z" />
    <glyph glyph-name="ae" unicode="&#xe6;" horiz-adv-x="957" 
d="M536 467l0.00195312 -38.002c41.333 32 91 48 149 48c67.333 0 122.833 -22.167 166.5 -66.5s65.5 -102.833 65.5 -175.5c0 -17.333 -0.333008 -29.333 -1 -36h-379c5.33301 -38.667 21.833 -69.5 49.5 -92.5s61.5 -34.5 101.5 -34.5c28.667 0 55 6.33301 79 19
s42.333 30.334 55 53.001l40 -15.5l38 -14.5c-19.333 -40 -48.333 -70.667 -87 -92s-81.334 -32 -128.001 -32c-58.667 0 -108.334 16.333 -149.001 49v-39h-90v72c-15.333 -26 -38 -46.167 -68 -60.5s-62 -21.5 -96 -21.5c-66 0 -122 22.667 -168 68s-69 104 -69 176
c0 72.667 23 131.334 69 176.001s102 67 168 67c34 0 66.167 -7 96.5 -21s52.833 -33.667 67.5 -59v70h90zM445.002 234.998c0 47.333 -15.667 84.665 -47 111.998s-67.333 41 -108 41c-43.333 0 -79.5 -14.167 -108.5 -42.5s-43.5 -65.166 -43.5 -110.499
s14.667 -82.666 44 -111.999s65.333 -44 108 -44c43.333 0 80 14 110 42s45 66 45 114zM537.002 269.997h290c-5.33301 38.667 -20.833 69.167 -46.5 91.5s-57.5 33.5 -95.5 33.5c-39.333 0 -72.5 -11.167 -99.5 -33.5s-43.167 -52.833 -48.5 -91.5z" />
    <glyph glyph-name="ccedilla" unicode="&#xe7;" horiz-adv-x="512" 
d="M316 -8l29 -54c5.33301 -12.667 8 -26.667 8 -42c0 -20 -5.5 -38.167 -16.5 -54.5s-26.5 -28.833 -46.5 -37.5c-12 -5.33301 -25 -8 -39 -8c-19.333 0 -37 5.66699 -53 17s-28.333 27 -37 47c-6.66699 15.333 -10 31.666 -10 48.999l64 -4
c-0.666992 -9.33301 0.333008 -16.666 3 -21.999c10 -22 26.667 -29.667 50 -23c10 4.66699 16.833 12 20.5 22s3.5 20.333 -0.5 31l-29 79c-60.667 7.33301 -111.5 33.166 -152.5 77.499s-61.5 99.5 -61.5 165.5c0 72 24 130.333 72 175s106.333 67 175 67
c74 0 134 -25 180 -75l-69 -58c-29.333 29.333 -66.333 44 -111 44c-43.333 0 -80.333 -14.167 -111 -42.5s-46 -65.166 -46 -110.499c0 -46 15.333 -83.667 46 -113s67.667 -44 111 -44c44.667 0 81.667 15.333 111 46l70 -58c-40 -44 -92.333 -68.667 -157 -74z" />
    <glyph glyph-name="egrave" unicode="&#xe8;" horiz-adv-x="556" 
d="M136 270h290c-5.33301 38.667 -20.833 69.167 -46.5 91.5s-57.5 33.5 -95.5 33.5c-39.333 0 -72.5 -11.167 -99.5 -33.5s-43.167 -52.833 -48.5 -91.5zM516 235c0 -17.333 -0.332031 -29.334 -0.999023 -36.001h-379c5.33301 -38.667 21.833 -69.5 49.5 -92.5
s61.5 -34.5 101.5 -34.5c28.667 0 55 6.33301 79 19s42.333 30.334 55 53.001l40 -15.5l38 -14.5c-19.333 -40 -48.333 -70.667 -87 -92s-81.334 -32 -128.001 -32c-68 0 -124.833 22.667 -170.5 68s-68.5 104.333 -68.5 177s22.833 131.167 68.5 175.5
s102.5 66.5 170.5 66.5c67.333 0 122.833 -22.167 166.5 -66.5s65.5 -102.833 65.5 -175.5zM247.001 553.999l-119 154h109l97 -154h-87z" />
    <glyph glyph-name="eacute" unicode="&#xe9;" horiz-adv-x="556" 
d="M136 270c5.33301 38.667 21.5 69.167 48.5 91.5s60.167 33.5 99.5 33.5c38 0 69.833 -11.167 95.5 -33.5s41.167 -52.833 46.5 -91.5h-290zM516 235c0 72.667 -21.834 131.168 -65.501 175.501s-99.167 66.5 -166.5 66.5c-68 0 -124.833 -22.167 -170.5 -66.5
s-68.5 -102.833 -68.5 -175.5s22.833 -131.667 68.5 -177s102.5 -68 170.5 -68c46.667 0 89.334 10.667 128.001 32s67.667 52 87 92l-38 14.5l-40 15.5c-12.667 -22.667 -31 -40.334 -55 -53.001s-50.333 -19 -79 -19c-40 0 -73.833 11.5 -101.5 34.5
s-44.167 53.833 -49.5 92.5h379c0.666992 6.66699 1 18.667 1 36zM422.999 708.001l-119 -154h-87l97 154h109z" />
    <glyph glyph-name="ecircumflex" unicode="&#xea;" horiz-adv-x="556" 
d="M136 270h290c-5.33301 38.667 -20.833 69.167 -46.5 91.5s-57.5 33.5 -95.5 33.5c-39.333 0 -72.5 -11.167 -99.5 -33.5s-43.167 -52.833 -48.5 -91.5zM516 235c0 -17.333 -0.332031 -29.334 -0.999023 -36.001h-379c5.33301 -38.667 21.833 -69.5 49.5 -92.5
s61.5 -34.5 101.5 -34.5c28.667 0 55 6.33301 79 19s42.333 30.334 55 53.001l40 -15.5l38 -14.5c-19.333 -40 -48.333 -70.667 -87 -92s-81.334 -32 -128.001 -32c-68 0 -124.833 22.667 -170.5 68s-68.5 104.333 -68.5 177s22.833 131.167 68.5 175.5
s102.5 66.5 170.5 66.5c67.333 0 122.833 -22.167 166.5 -66.5s65.5 -102.833 65.5 -175.5zM355.001 553.999l-75 87l-74 -87h-82l110 154h93l110 -154h-82z" />
    <glyph glyph-name="edieresis" unicode="&#xeb;" horiz-adv-x="556" 
d="M136 270c5.33301 38.667 21.5 69.167 48.5 91.5s60.167 33.5 99.5 33.5c38 0 69.833 -11.167 95.5 -33.5s41.167 -52.833 46.5 -91.5h-290zM516 235c0 72.667 -21.834 131.168 -65.501 175.501s-99.167 66.5 -166.5 66.5c-68 0 -124.833 -22.167 -170.5 -66.5
s-68.5 -102.833 -68.5 -175.5s22.833 -131.667 68.5 -177s102.5 -68 170.5 -68c46.667 0 89.334 10.667 128.001 32s67.667 52 87 92l-38 14.5l-40 15.5c-12.667 -22.667 -31 -40.334 -55 -53.001s-50.333 -19 -79 -19c-40 0 -73.833 11.5 -101.5 34.5
s-44.167 53.833 -49.5 92.5h379c0.666992 6.66699 1 18.667 1 36zM133.999 630.001c0 16.667 6 30.667 18 42s26.667 17 44 17c16.667 0 31 -5.66699 43 -17s18 -25.333 18 -42s-6 -30.667 -18 -42s-26.333 -17 -43 -17c-17.333 0 -32 5.66699 -44 17s-18 25.333 -18 42z
M302.999 630.001c0 16.667 6 30.667 18 42s26.667 17 44 17s32 -5.66699 44 -17s18 -25.333 18 -42s-6 -30.667 -18 -42s-26.667 -17 -44 -17s-32 5.66699 -44 17s-18 25.333 -18 42z" />
    <glyph glyph-name="igrave" unicode="&#xec;" horiz-adv-x="241" 
d="M165 467v-467h-89v467h89zM77 554l-119 154h109l97 -154h-87z" />
    <glyph glyph-name="iacute" unicode="&#xed;" horiz-adv-x="241" 
d="M165 0v467h-89v-467h89zM281 708l-119 -154h-87l97 154h109z" />
    <glyph glyph-name="icircumflex" unicode="&#xee;" horiz-adv-x="241" 
d="M165 467v-467h-89v467h89zM200 554l-75 87l-74 -87h-82l110 154h93l110 -154h-82z" />
    <glyph glyph-name="idieresis" unicode="&#xef;" horiz-adv-x="241" 
d="M165 0v467h-89v-467h89zM-21 630c0 16.667 6 30.667 18 42s26.667 17 44 17c16.667 0 31 -5.66699 43 -17s18 -25.333 18 -42s-6 -30.667 -18 -42s-26.333 -17 -43 -17c-17.333 0 -32 5.66699 -44 17s-18 25.333 -18 42zM148 630c0 16.667 6 30.667 18 42
s26.667 17 44 17s32 -5.66699 44 -17s18 -25.333 18 -42s-6 -30.667 -18 -42s-26.667 -17 -44 -17s-32 5.66699 -44 17s-18 25.333 -18 42z" />
    <glyph glyph-name="eth" unicode="&#xf0;" horiz-adv-x="578" 
d="M276 640l65 40l36 -42l-62 -42l171 -215c30.667 -42 46 -90.667 46 -146c0 -72 -23.5 -130.833 -70.5 -176.5s-104.5 -68.5 -172.5 -68.5s-125.667 22.833 -173 68.5s-71 104.5 -71 176.5c0 71.333 23.333 129.5 70 174.5s102 67.5 166 67.5
c13.333 0 25.333 -3.33301 36 -10l-74 83l-85 -53l-32 47l80 50l-75 95h105zM289 76c44 0 81.333 14.833 112 44.5s46 67.834 46 114.501s-15.333 84.334 -46 113.001s-68 43 -112 43c-44.667 0 -82.167 -14.333 -112.5 -43s-45.5 -66.334 -45.5 -113.001
s15.333 -84.834 46 -114.501s68 -44.5 112 -44.5z" />
    <glyph glyph-name="ntilde" unicode="&#xf1;" horiz-adv-x="563" 
d="M167 252v-252h-91v467h91v-70c13.333 26 33.833 45.833 61.5 59.5s55.834 20.5 84.501 20.5c58 0 102.5 -18 133.5 -54s46.5 -87 46.5 -153v-270h-91v264c0 38.667 -9.16699 69 -27.5 91s-43.5 33 -75.5 33c-36.667 0 -67.834 -11.167 -93.501 -33.5
s-38.5 -56.5 -38.5 -102.5zM237 610c-6 0 -11.834 -3.66797 -17.501 -11.001s-8.83398 -18.333 -9.50098 -33h-61c2 40.667 11.5 70.334 28.5 89.001s36.833 28 59.5 28c16.667 0 36 -8 58 -24c14 -11.333 24.333 -17 31 -17s12.834 3.16699 18.501 9.5
s8.83398 16.833 9.50098 31.5h61c-2 -40 -11.667 -69 -29 -87s-37.333 -27 -60 -27c-16.667 0 -35.667 8.33301 -57 25c-16 10.667 -26.667 16 -32 16z" />
    <glyph glyph-name="ograve" unicode="&#xf2;" horiz-adv-x="579" 
d="M289 -10c-68 0 -125.667 22.667 -173 68s-71 104.333 -71 177c0 72 23.5 130.333 70.5 175s104.833 67 173.5 67s126.667 -22.333 174 -67s71 -103 71 -175s-23.833 -130.833 -71.5 -176.5s-105.5 -68.5 -173.5 -68.5zM289 78c43.333 0 79.833 14.5 109.5 43.5
s44.5 66.833 44.5 113.5c0 46 -14.833 83 -44.5 111s-66.167 42 -109.5 42s-79.833 -14 -109.5 -42s-44.5 -65 -44.5 -111c0 -46.667 14.833 -84.5 44.5 -113.5s66.167 -43.5 109.5 -43.5zM253 554l-119 154h109l97 -154h-87z" />
    <glyph glyph-name="oacute" unicode="&#xf3;" horiz-adv-x="579" 
d="M289 -10c68 0 125.833 22.833 173.5 68.5s71.5 104.5 71.5 176.5s-23.667 130.333 -71 175s-105.333 67 -174 67s-126.5 -22.333 -173.5 -67s-70.5 -103 -70.5 -175c0 -72.667 23.667 -131.667 71 -177s105 -68 173 -68zM289 78c-43.333 0 -79.833 14.5 -109.5 43.5
s-44.5 66.833 -44.5 113.5c0 46 14.833 83 44.5 111s66.167 42 109.5 42s79.833 -14 109.5 -42s44.5 -65 44.5 -111c0 -46.667 -14.833 -84.5 -44.5 -113.5s-66.167 -43.5 -109.5 -43.5zM436 708l-119 -154h-87l97 154h109z" />
    <glyph glyph-name="ocircumflex" unicode="&#xf4;" horiz-adv-x="579" 
d="M289 -10c-68 0 -125.667 22.667 -173 68s-71 104.333 -71 177c0 72 23.5 130.333 70.5 175s104.833 67 173.5 67s126.667 -22.333 174 -67s71 -103 71 -175s-23.833 -130.833 -71.5 -176.5s-105.5 -68.5 -173.5 -68.5zM289 78c43.333 0 79.833 14.5 109.5 43.5
s44.5 66.833 44.5 113.5c0 46 -14.833 83 -44.5 111s-66.167 42 -109.5 42s-79.833 -14 -109.5 -42s-44.5 -65 -44.5 -111c0 -46.667 14.833 -84.5 44.5 -113.5s66.167 -43.5 109.5 -43.5zM364 554l-75 87l-74 -87h-82l110 154h93l110 -154h-82z" />
    <glyph glyph-name="otilde" unicode="&#xf5;" horiz-adv-x="579" 
d="M289 -10c-68 0 -125.667 22.667 -173 68s-71 104.333 -71 177c0 72 23.5 130.333 70.5 175s104.833 67 173.5 67s126.667 -22.333 174 -67s71 -103 71 -175s-23.833 -130.833 -71.5 -176.5s-105.5 -68.5 -173.5 -68.5zM289 78c43.333 0 79.833 14.5 109.5 43.5
s44.5 66.833 44.5 113.5c0 46 -14.833 83 -44.5 111s-66.167 42 -109.5 42s-79.833 -14 -109.5 -42s-44.5 -65 -44.5 -111c0 -46.667 14.833 -84.5 44.5 -113.5s66.167 -43.5 109.5 -43.5zM244 610c-6 0 -11.834 -3.66797 -17.501 -11.001s-8.83398 -18.333 -9.50098 -33
h-61c2 40.667 11.5 70.334 28.5 89.001s36.833 28 59.5 28c16.667 0 36 -8 58 -24c14 -11.333 24.333 -17 31 -17s12.834 3.16699 18.501 9.5s8.83398 16.833 9.50098 31.5h61c-2 -40 -11.667 -69 -29 -87s-37.333 -27 -60 -27c-16.667 0 -35.667 8.33301 -57 25
c-16 10.667 -26.667 16 -32 16z" />
    <glyph glyph-name="odieresis" unicode="&#xf6;" horiz-adv-x="579" 
d="M289 -10c68 0 125.833 22.833 173.5 68.5s71.5 104.5 71.5 176.5s-23.667 130.333 -71 175s-105.333 67 -174 67s-126.5 -22.333 -173.5 -67s-70.5 -103 -70.5 -175c0 -72.667 23.667 -131.667 71 -177s105 -68 173 -68zM289 78c-43.333 0 -79.833 14.5 -109.5 43.5
s-44.5 66.833 -44.5 113.5c0 46 14.833 83 44.5 111s66.167 42 109.5 42s79.833 -14 109.5 -42s44.5 -65 44.5 -111c0 -46.667 -14.833 -84.5 -44.5 -113.5s-66.167 -43.5 -109.5 -43.5zM143 630c0 16.667 6 30.667 18 42s26.667 17 44 17c16.667 0 31 -5.66699 43 -17
s18 -25.333 18 -42s-6 -30.667 -18 -42s-26.333 -17 -43 -17c-17.333 0 -32 5.66699 -44 17s-18 25.333 -18 42zM312 630c0 16.667 6 30.667 18 42s26.667 17 44 17s32 -5.66699 44 -17s18 -25.333 18 -42s-6 -30.667 -18 -42s-26.667 -17 -44 -17s-32 5.66699 -44 17
s-18 25.333 -18 42z" />
    <glyph glyph-name="divide" unicode="&#xf7;" horiz-adv-x="537" 
d="M203 90c0 18 6.33301 33 19 45s28 18 46 18s33.5 -6 46.5 -18s19.5 -27 19.5 -45s-6.5 -32.833 -19.5 -44.5s-28.5 -17.5 -46.5 -17.5s-33.333 5.83301 -46 17.5s-19 26.5 -19 44.5zM203 424c0 18 6.33301 32.833 19 44.5s28 17.5 46 17.5s33.5 -5.83301 46.5 -17.5
s19.5 -26.5 19.5 -44.5s-6.5 -33 -19.5 -45s-28.5 -18 -46.5 -18s-33.333 6 -46 18s-19 27 -19 45zM63 214h411v83h-411v-83z" />
    <glyph glyph-name="oslash" unicode="&#xf8;" horiz-adv-x="577" 
d="M144 33l-57 -57.999l-47 47l56 57c-34.667 43.333 -52 95.333 -52 156c0 72 23.5 130.333 70.5 175s104.833 67 173.5 67c56 0 106 -15.667 150 -47l50 51l47 -46l-50 -51c32 -42.667 48 -92.334 48 -149.001c0 -72 -23.833 -130.833 -71.5 -176.5
s-105.5 -68.5 -173.5 -68.5c-55.333 0 -103.333 14.333 -144 43zM288 388.001c-43.333 0 -79.833 -14 -109.5 -42s-44.5 -65 -44.5 -111c0 -35.333 8.33301 -65.333 25 -90l215 219c-25.333 16 -54 24 -86 24zM288 78.001c43.333 0 79.833 14.5 109.5 43.5
s44.5 66.833 44.5 113.5c0 28.667 -7.33301 56 -22 82l-212 -218c23.333 -14 50 -21 80 -21z" />
    <glyph glyph-name="ugrave" unicode="&#xf9;" horiz-adv-x="562" 
d="M259 554l-119 154h109l97 -154h-87zM395 215l-0.000976562 252h91v-467h-91v70c-13.333 -26 -33.666 -45.833 -60.999 -59.5s-55.333 -20.5 -84 -20.5c-58 0 -102.667 18 -134 54s-46.666 87 -45.999 153v270h91v-264c0 -38.667 9 -69 27 -91s43 -33 75 -33
c37.333 0 68.666 11 93.999 33s38 56.333 38 103z" />
    <glyph glyph-name="uacute" unicode="&#xfa;" horiz-adv-x="562" 
d="M434 708l-119 -154h-87l97 154h109zM395 215l-0.000976562 252h91v-467h-91v70c-13.333 -26 -33.666 -45.833 -60.999 -59.5s-55.333 -20.5 -84 -20.5c-58 0 -102.667 18 -134 54s-46.666 87 -45.999 153v270h91v-264c0 -38.667 9 -69 27 -91s43 -33 75 -33
c37.333 0 68.666 11 93.999 33s38 56.333 38 103z" />
    <glyph glyph-name="ucircumflex" unicode="&#xfb;" horiz-adv-x="562" 
d="M346 554l-75 87l-74 -87h-82l110 154h93l110 -154h-82zM395 215l-0.000976562 252h91v-467h-91v70c-13.333 -26 -33.666 -45.833 -60.999 -59.5s-55.333 -20.5 -84 -20.5c-58 0 -102.667 18 -134 54s-46.666 87 -45.999 153v270h91v-264c0 -38.667 9 -69 27 -91
s43 -33 75 -33c37.333 0 68.666 11 93.999 33s38 56.333 38 103z" />
    <glyph glyph-name="udieresis" unicode="&#xfc;" horiz-adv-x="562" 
d="M141 630c0 16.667 6 30.667 18 42s26.667 17 44 17c16.667 0 31 -5.66699 43 -17s18 -25.333 18 -42s-6 -30.667 -18 -42s-26.333 -17 -43 -17c-17.333 0 -32 5.66699 -44 17s-18 25.333 -18 42zM310 630c0 16.667 6 30.667 18 42s26.667 17 44 17s32 -5.66699 44 -17
s18 -25.333 18 -42s-6 -30.667 -18 -42s-26.667 -17 -44 -17s-32 5.66699 -44 17s-18 25.333 -18 42zM395 215l-0.000976562 252h91v-467h-91v70c-13.333 -26 -33.666 -45.833 -60.999 -59.5s-55.333 -20.5 -84 -20.5c-58 0 -102.667 18 -134 54s-46.666 87 -45.999 153v270
h91v-264c0 -38.667 9 -69 27 -91s43 -33 75 -33c37.333 0 68.666 11 93.999 33s38 56.333 38 103z" />
    <glyph glyph-name="yacute" unicode="&#xfd;" horiz-adv-x="509" 
d="M107 -227h95l290 694h-97l-140 -338l-140 338h-97l187 -453zM384 708l-119 -154h-87l97 154h109z" />
    <glyph glyph-name="thorn" unicode="&#xfe;" horiz-adv-x="602" 
d="M76 -213v933h91v-311c16 21.333 37.667 37.833 65 49.5s56.333 17.5 87 17.5c68 0 124.667 -22.167 170 -66.5s68 -102.833 68 -175.5c0 -72 -22.667 -130.667 -68 -176s-102 -68 -170 -68c-30 0 -58.833 6 -86.5 18s-49.5 29 -65.5 51v-272h-91zM467 234
c0 45.333 -14 81.833 -42 109.5s-63.333 41.5 -106 41.5c-40 0 -75.333 -13.5 -106 -40.5s-46 -63.833 -46 -110.5c0 -48 14.667 -85.667 44 -113s65.333 -41 108 -41c42 0 77.167 14.5 105.5 43.5s42.5 65.833 42.5 110.5z" />
    <glyph glyph-name="ydieresis" unicode="&#xff;" horiz-adv-x="509" 
d="M107 -227h95l290 694h-97l-140 -338l-140 338h-97l187 -453zM111 630c0 16.667 6 30.667 18 42s26.667 17 44 17c16.667 0 31 -5.66699 43 -17s18 -25.333 18 -42s-6 -30.667 -18 -42s-26.333 -17 -43 -17c-17.333 0 -32 5.66699 -44 17s-18 25.333 -18 42zM280 630
c0 16.667 6 30.667 18 42s26.667 17 44 17s32 -5.66699 44 -17s18 -25.333 18 -42s-6 -30.667 -18 -42s-26.667 -17 -44 -17s-32 5.66699 -44 17s-18 25.333 -18 42z" />
    <glyph glyph-name="Amacron" unicode="&#x100;" horiz-adv-x="645" 
d="M209 259h228l-114 306zM469 175h-292l-67 -175h-99l262 689h100l261 -689h-98zM196 882h252v-80h-252v80z" />
    <glyph glyph-name="amacron" unicode="&#x101;" horiz-adv-x="612" 
d="M446 0v71.999c-15.333 -26 -38 -46.167 -68 -60.5s-62 -21.5 -96 -21.5c-66 0 -122 22.667 -168 68s-69 104 -69 176c0 72.667 23 131.334 69 176.001s102 67 168 67c34 0 66.167 -7 96.5 -21s52.833 -33.667 67.5 -59v70h90v-467h-90zM445 234.999
c0 47.333 -15.667 84.665 -47 111.998s-67.333 41 -108 41c-43.333 0 -79.5 -14.167 -108.5 -42.5s-43.5 -65.166 -43.5 -110.499s14.667 -82.666 44 -111.999s65.333 -44 108 -44c43.333 0 80 14 110 42s45 66 45 114zM179 659.998h252v-80h-252v80z" />
    <glyph glyph-name="Abreve" unicode="&#x102;" horiz-adv-x="645" 
d="M437 259h-228l114 306zM177 175h292l67 -175h98l-261 689h-100l-262 -689h99zM192 905h74c0 -17.333 5 -31.5 15 -42.5s23.667 -16.5 41 -16.5c16.667 0 30 6 40 18s15 25.667 15 41h76c0 -39.333 -11.833 -70.5 -35.5 -93.5s-55.5 -34.5 -95.5 -34.5
c-43.333 0 -75.833 12.333 -97.5 37s-32.5 55 -32.5 91z" />
    <glyph glyph-name="abreve" unicode="&#x103;" horiz-adv-x="612" 
d="M446 0v71.999c-15.333 -26 -38 -46.167 -68 -60.5s-62 -21.5 -96 -21.5c-66 0 -122 22.667 -168 68s-69 104 -69 176c0 72.667 23 131.334 69 176.001s102 67 168 67c34 0 66.167 -7 96.5 -21s52.833 -33.667 67.5 -59v70h90v-467h-90zM445 234.999
c0 47.333 -15.667 84.665 -47 111.998s-67.333 41 -108 41c-43.333 0 -79.5 -14.167 -108.5 -42.5s-43.5 -65.166 -43.5 -110.499s14.667 -82.666 44 -111.999s65.333 -44 108 -44c43.333 0 80 14 110 42s45 66 45 114zM175 682.998h74c0 -17.333 5 -31.5 15 -42.5
s23.667 -16.5 41 -16.5c16.667 0 30 6 40 18s15 25.667 15 41h76c0 -39.333 -11.833 -70.5 -35.5 -93.5s-55.5 -34.5 -95.5 -34.5c-43.333 0 -75.833 12.333 -97.5 37s-32.5 55 -32.5 91z" />
    <glyph glyph-name="Aogonek" unicode="&#x104;" horiz-adv-x="645" 
d="M209 259h228l-114 306zM535 1l-66 173.999h-292l-67 -175h-99l262 689h100l261 -689h-44l-31 -87c-4 -10.667 -4.16699 -21 -0.5 -31s10.5 -17.333 20.5 -22c23.333 -6.66699 40 1 50 23l3 22l64 4c0 -17.333 -3.33301 -33.666 -10 -48.999
c-8.66699 -20 -21 -35.667 -37 -47s-33.667 -17 -53 -17c-14 0 -27 2.66699 -39 8c-20 8.66699 -35.5 21.167 -46.5 37.5s-16.5 34.5 -16.5 54.5c0 15.333 2.66699 29.333 8 42z" />
    <glyph glyph-name="aogonek" unicode="&#x105;" horiz-adv-x="612" 
d="M539 -117l3 21.998l64 4c0 -17.333 -3.33301 -33.666 -10 -48.999c-8.66699 -20 -21 -35.667 -37 -47s-33.667 -17 -53 -17c-14 0 -27 2.66699 -39 8c-20 8.66699 -35.5 21.167 -46.5 37.5s-16.5 34.5 -16.5 54.5c0 15.333 2.66699 29.333 8 42l34 63v71
c-15.333 -26 -38 -46.167 -68 -60.5s-62 -21.5 -96 -21.5c-66 0 -122 22.667 -168 68s-69 104 -69 176c0 72.667 23 131.334 69 176.001s102 67 168 67c34 0 66.167 -7 96.5 -21s52.833 -33.667 67.5 -59v70h90v-467h-36l-31 -87c-4 -10.667 -4.16699 -21 -0.5 -31
s10.5 -17.333 20.5 -22c23.333 -6.66699 40 1 50 23zM445 234.998c0 47.333 -15.667 84.665 -47 111.998s-67.333 41 -108 41c-43.333 0 -79.5 -14.167 -108.5 -42.5s-43.5 -65.166 -43.5 -110.499s14.667 -82.666 44 -111.999s65.333 -44 108 -44c43.333 0 80 14 110 42
s45 66 45 114z" />
    <glyph glyph-name="Cacute" unicode="&#x106;" horiz-adv-x="683" 
d="M659 109l-70 59c-50 -58.667 -113.667 -88 -191 -88c-72 0 -132.667 25.5 -182 76.5s-74 113.167 -74 186.5s24.667 135.666 74 186.999s110 77 182 77c74 0 137 -28.333 189 -85l70 58c-31.333 36.667 -69.333 65.334 -114 86.001s-93 31 -145 31
c-97.333 0 -179.833 -34.5 -247.5 -103.5s-101.5 -152.5 -101.5 -250.5s33.833 -181.333 101.5 -250s150.167 -103 247.5 -103c52.667 0 101.5 10.5 146.5 31.5s83.167 50.167 114.5 87.5zM535 930l-119 -154h-87l97 154h109z" />
    <glyph glyph-name="cacute" unicode="&#x107;" horiz-adv-x="512" 
d="M45 235c0 72 24 130.332 72 174.999s106.333 67 175 67c74 0 134 -25 180 -75l-69 -58c-29.333 29.333 -66.333 44 -111 44c-43.333 0 -80.333 -14.167 -111 -42.5s-46 -65.166 -46 -110.499c0 -46 15.333 -83.667 46 -113s67.667 -44 111 -44
c44.667 0 81.667 15.333 111 46l70 -58c-46.667 -50.667 -107 -76 -181 -76c-68.667 0 -127 22.833 -175 68.5s-72 104.5 -72 176.5zM420 707.999l-119 -154h-87l97 154h109z" />
    <glyph glyph-name="Ccircumflex" unicode="&#x108;" horiz-adv-x="683" 
d="M589 168l70 -59c-31.333 -37.333 -69.5 -66.5 -114.5 -87.5s-93.833 -31.5 -146.5 -31.5c-97.333 0 -179.833 34.333 -247.5 103s-101.5 152 -101.5 250s33.833 181.5 101.5 250.5s150.167 103.5 247.5 103.5c52 0 100.333 -10.333 145 -31s82.667 -49.334 114 -86.001
l-70 -58c-52 56.667 -115 85 -189 85c-72 0 -132.667 -25.667 -182 -77s-74 -113.666 -74 -186.999s24.667 -135.5 74 -186.5s110 -76.5 182 -76.5c77.333 0 141 29.333 191 88zM471 776l-75 87l-74 -87h-82l110 154h93l110 -154h-82z" />
    <glyph glyph-name="ccircumflex" unicode="&#x109;" horiz-adv-x="512" 
d="M45 235c0 72 24 130.332 72 174.999s106.333 67 175 67c74 0 134 -25 180 -75l-69 -58c-29.333 29.333 -66.333 44 -111 44c-43.333 0 -80.333 -14.167 -111 -42.5s-46 -65.166 -46 -110.499c0 -46 15.333 -83.667 46 -113s67.667 -44 111 -44
c44.667 0 81.667 15.333 111 46l70 -58c-46.667 -50.667 -107 -76 -181 -76c-68.667 0 -127 22.833 -175 68.5s-72 104.5 -72 176.5zM363 553.999l-75 87l-74 -87h-82l110 154h93l110 -154h-82z" />
    <glyph glyph-name="Cdotaccent" unicode="&#x10a;" horiz-adv-x="683" 
d="M659 109l-70 59c-50 -58.667 -113.667 -88 -191 -88c-72 0 -132.667 25.5 -182 76.5s-74 113.167 -74 186.5s24.667 135.666 74 186.999s110 77 182 77c74 0 137 -28.333 189 -85l70 58c-31.333 36.667 -69.333 65.334 -114 86.001s-93 31 -145 31
c-97.333 0 -179.833 -34.5 -247.5 -103.5s-101.5 -152.5 -101.5 -250.5s33.833 -181.333 101.5 -250s150.167 -103 247.5 -103c52.667 0 101.5 10.5 146.5 31.5s83.167 50.167 114.5 87.5zM318 861c0 16.667 6.16699 30.667 18.5 42s27.166 17 44.499 17
s32.166 -5.66699 44.499 -17s18.5 -25.333 18.5 -42s-6.16699 -30.667 -18.5 -42s-27.166 -17 -44.499 -17s-32.166 5.66699 -44.499 17s-18.5 25.333 -18.5 42z" />
    <glyph glyph-name="cdotaccent" unicode="&#x10b;" horiz-adv-x="512" 
d="M45 235c0 72 24 130.332 72 174.999s106.333 67 175 67c74 0 134 -25 180 -75l-69 -58c-29.333 29.333 -66.333 44 -111 44c-43.333 0 -80.333 -14.167 -111 -42.5s-46 -65.166 -46 -110.499c0 -46 15.333 -83.667 46 -113s67.667 -44 111 -44
c44.667 0 81.667 15.333 111 46l70 -58c-46.667 -50.667 -107 -76 -181 -76c-68.667 0 -127 22.833 -175 68.5s-72 104.5 -72 176.5zM225 638.999c0 16.667 6.16699 30.667 18.5 42s27.166 17 44.499 17s32.166 -5.66699 44.499 -17s18.5 -25.333 18.5 -42
s-6.16699 -30.667 -18.5 -42s-27.166 -17 -44.499 -17s-32.166 5.66699 -44.499 17s-18.5 25.333 -18.5 42z" />
    <glyph glyph-name="Ccaron" unicode="&#x10c;" horiz-adv-x="683" 
d="M659 109l-70 59c-50 -58.667 -113.667 -88 -191 -88c-72 0 -132.667 25.5 -182 76.5s-74 113.167 -74 186.5s24.667 135.666 74 186.999s110 77 182 77c74 0 137 -28.333 189 -85l70 58c-31.333 36.667 -69.333 65.334 -114 86.001s-93 31 -145 31
c-97.333 0 -179.833 -34.5 -247.5 -103.5s-101.5 -152.5 -101.5 -250.5s33.833 -181.333 101.5 -250s150.167 -103 247.5 -103c52.667 0 101.5 10.5 146.5 31.5s83.167 50.167 114.5 87.5zM382 843l75 87h82l-110 -154h-93l-110 154h82z" />
    <glyph glyph-name="ccaron" unicode="&#x10d;" horiz-adv-x="512" 
d="M45 235c0 72 24 130.332 72 174.999s106.333 67 175 67c74 0 134 -25 180 -75l-69 -58c-29.333 29.333 -66.333 44 -111 44c-43.333 0 -80.333 -14.167 -111 -42.5s-46 -65.166 -46 -110.499c0 -46 15.333 -83.667 46 -113s67.667 -44 111 -44
c44.667 0 81.667 15.333 111 46l70 -58c-46.667 -50.667 -107 -76 -181 -76c-68.667 0 -127 22.833 -175 68.5s-72 104.5 -72 176.5zM279 620.999l75 87h82l-110 -154h-93l-110 154h82z" />
    <glyph glyph-name="Dcaron" unicode="&#x10e;" horiz-adv-x="724" 
d="M94 0h267c96 0 171.667 32.167 227 96.5s83 146.5 83 246.5c0 100.667 -27.833 183.5 -83.5 248.5s-131.167 97.5 -226.5 97.5h-267v-689zM361 87h-174v515h174c69.333 0 122.833 -24.167 160.5 -72.5s56.5 -110.5 56.5 -186.5c0 -75.333 -18.833 -136.833 -56.5 -184.5
s-91.167 -71.5 -160.5 -71.5zM374 843l75 87h82l-110 -154h-93l-110 154h82z" />
    <glyph glyph-name="dcaron" unicode="&#x10f;" horiz-adv-x="602" 
d="M526 705v-705h-88v61c-16.667 -22 -39 -39.167 -67 -51.5s-57 -18.5 -87 -18.5c-68 0 -124.833 22.5 -170.5 67.5s-68.5 103.833 -68.5 176.5s22.833 131 68.5 175s102.5 66 170.5 66s118.667 -22 152 -66v295h90zM135 235c0 -44.667 14.167 -81.5 42.5 -110.5
s63.833 -43.5 106.5 -43.5s78.667 13.833 108 41.5s44 65.167 44 112.5c0 46.667 -15.5 83.5 -46.5 110.5s-66.167 40.5 -105.5 40.5c-42.667 0 -78.167 -13.833 -106.5 -41.5s-42.5 -64.167 -42.5 -109.5zM626 496l-58 19c20.667 28 34.5 54 41.5 78s8.5 56 4.5 96h90
c0.666992 -86 -25.333 -150.333 -78 -193z" />
    <glyph glyph-name="Dcroat" unicode="&#x110;" horiz-adv-x="724" 
d="M363 0h-263v311h-93v68h93v310h263c95.333 0 170.333 -32.333 225 -97s82 -147.667 82 -249c0 -100.667 -27.333 -183 -82 -247s-129.667 -96 -225 -96zM193 379h165v-68h-165v-219h170c68.667 0 121.5 23.167 158.5 69.5s55.5 106.833 55.5 181.5
c0 75.333 -18.5 136.5 -55.5 183.5s-89.833 70.5 -158.5 70.5h-170v-218z" />
    <glyph glyph-name="dcroat" unicode="&#x111;" horiz-adv-x="612" 
d="M536 559v-1.00098v-558h-91v72c-15.333 -26 -38 -46.167 -68 -60.5s-62 -21.5 -96 -21.5c-66 0 -121.833 22.667 -167.5 68s-68.5 104 -68.5 176c0 72.667 22.667 131.334 68 176.001s101 67 167 67c35.333 0 67.833 -6.83301 97.5 -20.5s52.167 -33.5 67.5 -59.5v162
h-150v62h150v100h91v-100h75v-62h-75zM444 234.999c0 47.333 -15.667 84.666 -47 111.999s-67.333 41 -108 41c-42.667 0 -78.5 -14.167 -107.5 -42.5s-43.5 -65.166 -43.5 -110.499s14.5 -82.666 43.5 -111.999s64.833 -44 107.5 -44s79.167 14.167 109.5 42.5
s45.5 66.166 45.5 113.499z" />
    <glyph glyph-name="Emacron" unicode="&#x112;" horiz-adv-x="565" 
d="M94 689h408v-87h-315v-220h275v-87h-275v-208h325v-87h-418v689zM175 882h252v-80h-252v80z" />
    <glyph glyph-name="emacron" unicode="&#x113;" horiz-adv-x="556" 
d="M136 270h290c-5.33301 38.667 -20.833 69.167 -46.5 91.5s-57.5 33.5 -95.5 33.5c-39.333 0 -72.5 -11.167 -99.5 -33.5s-43.167 -52.833 -48.5 -91.5zM516 235c0 -17.333 -0.332031 -29.334 -0.999023 -36.001h-379c5.33301 -38.667 21.833 -69.5 49.5 -92.5
s61.5 -34.5 101.5 -34.5c28.667 0 55 6.33301 79 19s42.333 30.334 55 53.001l40 -15.5l38 -14.5c-19.333 -40 -48.333 -70.667 -87 -92s-81.334 -32 -128.001 -32c-68 0 -124.833 22.667 -170.5 68s-68.5 104.333 -68.5 177s22.833 131.167 68.5 175.5
s102.5 66.5 170.5 66.5c67.333 0 122.833 -22.167 166.5 -66.5s65.5 -102.833 65.5 -175.5zM154.001 659.999h252v-80h-252v80z" />
    <glyph glyph-name="Ebreve" unicode="&#x114;" horiz-adv-x="565" 
d="M502 689h-408v-689h418v87h-325v208h275v87h-275v220h315v87zM152 905h74c0 -17.333 5 -31.5 15 -42.5s23.667 -16.5 41 -16.5c16.667 0 30 6 40 18s15 25.667 15 41h76c0 -39.333 -11.833 -70.5 -35.5 -93.5s-55.5 -34.5 -95.5 -34.5c-43.333 0 -75.833 12.333 -97.5 37
s-32.5 55 -32.5 91z" />
    <glyph glyph-name="ebreve" unicode="&#x115;" horiz-adv-x="556" 
d="M136 270c5.33301 38.667 21.5 69.167 48.5 91.5s60.167 33.5 99.5 33.5c38 0 69.833 -11.167 95.5 -33.5s41.167 -52.833 46.5 -91.5h-290zM516 235c0 72.667 -21.834 131.168 -65.501 175.501s-99.167 66.5 -166.5 66.5c-68 0 -124.833 -22.167 -170.5 -66.5
s-68.5 -102.833 -68.5 -175.5s22.833 -131.667 68.5 -177s102.5 -68 170.5 -68c46.667 0 89.334 10.667 128.001 32s67.667 52 87 92l-38 14.5l-40 15.5c-12.667 -22.667 -31 -40.334 -55 -53.001s-50.333 -19 -79 -19c-40 0 -73.833 11.5 -101.5 34.5
s-44.167 53.833 -49.5 92.5h379c0.666992 6.66699 1 18.667 1 36zM149.999 683.001h74c0 -17.333 5 -31.5 15 -42.5s23.667 -16.5 41 -16.5c16.667 0 30 6 40 18s15 25.667 15 41h76c0 -39.333 -11.833 -70.5 -35.5 -93.5s-55.5 -34.5 -95.5 -34.5
c-43.333 0 -75.833 12.333 -97.5 37s-32.5 55 -32.5 91z" />
    <glyph glyph-name="Edotaccent" unicode="&#x116;" horiz-adv-x="565" 
d="M502 689h-408v-689h418v87h-325v208h275v87h-275v220h315v87zM242 861c0 16.667 6.16699 30.667 18.5 42s27.166 17 44.499 17s32.166 -5.66699 44.499 -17s18.5 -25.333 18.5 -42s-6.16699 -30.667 -18.5 -42s-27.166 -17 -44.499 -17s-32.166 5.66699 -44.499 17
s-18.5 25.333 -18.5 42z" />
    <glyph glyph-name="edotaccent" unicode="&#x117;" horiz-adv-x="556" 
d="M136 270c5.33301 38.667 21.5 69.167 48.5 91.5s60.167 33.5 99.5 33.5c38 0 69.833 -11.167 95.5 -33.5s41.167 -52.833 46.5 -91.5h-290zM516 235c0 72.667 -21.834 131.168 -65.501 175.501s-99.167 66.5 -166.5 66.5c-68 0 -124.833 -22.167 -170.5 -66.5
s-68.5 -102.833 -68.5 -175.5s22.833 -131.667 68.5 -177s102.5 -68 170.5 -68c46.667 0 89.334 10.667 128.001 32s67.667 52 87 92l-38 14.5l-40 15.5c-12.667 -22.667 -31 -40.334 -55 -53.001s-50.333 -19 -79 -19c-40 0 -73.833 11.5 -101.5 34.5
s-44.167 53.833 -49.5 92.5h379c0.666992 6.66699 1 18.667 1 36zM221.999 639.001c0 16.667 6.16699 30.667 18.5 42s27.166 17 44.499 17s32.166 -5.66699 44.499 -17s18.5 -25.333 18.5 -42s-6.16699 -30.667 -18.5 -42s-27.166 -17 -44.499 -17
s-32.166 5.66699 -44.499 17s-18.5 25.333 -18.5 42z" />
    <glyph glyph-name="Eogonek" unicode="&#x118;" horiz-adv-x="565" 
d="M507 0l-27 -76.001c-4 -10.667 -4.16699 -21 -0.5 -31s10.5 -17.333 20.5 -22c23.333 -6.66699 40 1 50 23l3 22l64 4c0 -17.333 -3.33301 -33.666 -10 -48.999c-8.66699 -20 -21 -35.667 -37 -47s-33.667 -17 -53 -17c-14 0 -27 2.66699 -39 8
c-20 8.66699 -35.5 21.167 -46.5 37.5s-16.5 34.5 -16.5 54.5c0 15.333 2.66699 29.333 8 42l27 51h-356v689h408v-87h-315v-220h275v-87h-275v-208h325v-87h-5z" />
    <glyph glyph-name="eogonek" unicode="&#x119;" horiz-adv-x="557" 
d="M379 -87c-4 -10.667 -4.16797 -21.002 -0.500977 -31.002s10.5 -17.333 20.5 -22c23.333 -6.66699 40 1 50 23l3 22l64 4c0 -17.333 -3.33301 -33.666 -10 -48.999c-8.66699 -20 -21 -35.667 -37 -47s-33.667 -17 -53 -17c-14 0 -27 2.66699 -39 8
c-20 8.66699 -35.5 21.167 -46.5 37.5s-16.5 34.5 -16.5 54.5c0 15.333 2.66699 29.333 8 42l33 61c-23.333 -6 -47 -9 -71 -9c-68 0 -124.833 22.667 -170.5 68s-68.5 104.333 -68.5 177s22.833 131.167 68.5 175.5s102.5 66.5 170.5 66.5
c67.333 0 122.833 -22.167 166.5 -66.5s65.5 -102.833 65.5 -175.5c0 -17.333 -0.333008 -29.333 -1 -36h-379c5.33301 -38.667 21.833 -69.5 49.5 -92.5s61.5 -34.5 101.5 -34.5c28.667 0 55 6.33301 79 19s42.333 30.334 55 53.001l78 -30
c-3.33301 -7.33301 -10.166 -17 -20.499 -29l-31 -36c-10.333 -12 -22 -30 -35 -54s-24.167 -51.333 -33.5 -82zM135.999 269.998h290c-5.33301 38.667 -20.833 69.167 -46.5 91.5s-57.5 33.5 -95.5 33.5c-39.333 0 -72.5 -11.167 -99.5 -33.5s-43.167 -52.833 -48.5 -91.5z
" />
    <glyph glyph-name="Ecaron" unicode="&#x11a;" horiz-adv-x="565" 
d="M502 689h-408v-689h418v87h-325v208h275v87h-275v220h315v87zM282 843l75 87h82l-110 -154h-93l-110 154h82z" />
    <glyph glyph-name="ecaron" unicode="&#x11b;" horiz-adv-x="556" 
d="M136 270c5.33301 38.667 21.5 69.167 48.5 91.5s60.167 33.5 99.5 33.5c38 0 69.833 -11.167 95.5 -33.5s41.167 -52.833 46.5 -91.5h-290zM516 235c0 72.667 -21.834 131.168 -65.501 175.501s-99.167 66.5 -166.5 66.5c-68 0 -124.833 -22.167 -170.5 -66.5
s-68.5 -102.833 -68.5 -175.5s22.833 -131.667 68.5 -177s102.5 -68 170.5 -68c46.667 0 89.334 10.667 128.001 32s67.667 52 87 92l-38 14.5l-40 15.5c-12.667 -22.667 -31 -40.334 -55 -53.001s-50.333 -19 -79 -19c-40 0 -73.833 11.5 -101.5 34.5
s-44.167 53.833 -49.5 92.5h379c0.666992 6.66699 1 18.667 1 36zM279.999 621.001l75 87h82l-110 -154h-93l-110 154h82z" />
    <glyph glyph-name="Gcircumflex" unicode="&#x11c;" horiz-adv-x="756" 
d="M630 606l-67.002 -62.0029c-48 42.667 -103.333 64 -166 64c-71.333 0 -131.666 -25.833 -180.999 -77.5s-74 -114.167 -74 -187.5s24.667 -135.666 74 -186.999s109.666 -77 180.999 -77c62.667 0 114.334 16.833 155.001 50.5s62.334 78.834 65.001 135.501h-196v81
h302c0 -118 -29 -206.833 -87 -266.5s-137.667 -89.5 -239 -89.5c-97.333 0 -179.666 34.333 -246.999 103s-101 152 -101 250c0 98.667 33.667 182.334 101 251.001s149.666 103 246.999 103c90 0 167.667 -30.333 233 -91zM455.998 775.997l-75 87l-74 -87h-82l110 154h93
l110 -154h-82z" />
    <glyph glyph-name="gcircumflex" unicode="&#x11d;" horiz-adv-x="611" 
d="M146 -67c13.333 -25.333 32.5 -44.998 57.5 -58.998s50.833 -21 77.5 -21c110.667 0 166 70.667 166 212c0 1.33301 -0.166992 3.16602 -0.5 5.49902s-0.5 4.16602 -0.5 5.49902c-13.333 -26.667 -35.5 -47.667 -66.5 -63s-63.5 -23 -97.5 -23c-66 0 -122 22.333 -168 67
s-69 103 -69 175c0 72.667 23 131.667 69 177s102 68 168 68c34 0 66.167 -7.33301 96.5 -22s52.833 -35 67.5 -61v73h90v-396c0 -202.667 -85 -304 -255 -304c-44 0 -84.667 11 -122 33s-67 53 -89 93c4.66699 2 18 9 40 21s34 18.333 36 19zM445 233.002
c0 48 -15 85.833 -45 113.5s-66.667 41.5 -110 41.5c-42.667 0 -78.667 -14.667 -108 -44s-44 -66.333 -44 -111c0 -46.667 14.5 -84 43.5 -112s65.167 -42 108.5 -42c40.667 0 76.667 14 108 42s47 65.333 47 112zM380 554.002l-75 87l-74 -87h-82l110 154h93l110 -154h-82
z" />
    <glyph glyph-name="Gbreve" unicode="&#x11e;" horiz-adv-x="756" 
d="M630 606c-65.333 60.667 -142.998 91.0029 -232.998 91.0029c-97.333 0 -179.666 -34.333 -246.999 -103s-101 -152.334 -101 -251.001c0 -98 33.667 -181.333 101 -250s149.666 -103 246.999 -103c101.333 0 181 29.833 239 89.5s87 148.5 87 266.5h-302v-81h196
c-2.66699 -56.667 -24.334 -101.834 -65.001 -135.501s-92.334 -50.5 -155.001 -50.5c-71.333 0 -131.666 25.667 -180.999 77s-74 113.666 -74 186.999s24.667 135.833 74 187.5s109.666 77.5 180.999 77.5c62.667 0 118 -21.333 166 -64zM251.002 905.003h74
c0 -17.333 5 -31.5 15 -42.5s23.667 -16.5 41 -16.5c16.667 0 30 6 40 18s15 25.667 15 41h76c0 -39.333 -11.833 -70.5 -35.5 -93.5s-55.5 -34.5 -95.5 -34.5c-43.333 0 -75.833 12.333 -97.5 37s-32.5 55 -32.5 91z" />
    <glyph glyph-name="gbreve" unicode="&#x11f;" horiz-adv-x="611" 
d="M146 -67c-2 -0.666992 -14 -7.00195 -36 -19.002s-35.333 -19 -40 -21c22 -40 51.667 -71 89 -93s78 -33 122 -33c170 0 255 101.333 255 304v396h-90v-73c-14.667 26 -37.167 46.333 -67.5 61s-62.5 22 -96.5 22c-66 0 -122 -22.667 -168 -68s-69 -104.333 -69 -177
c0 -72 23 -130.333 69 -175s102 -67 168 -67c34 0 66.5 7.66699 97.5 23s53.167 36.333 66.5 63c0 -1.33301 0.166992 -3.16602 0.5 -5.49902s0.5 -4.16602 0.5 -5.49902c0 -141.333 -55.333 -212 -166 -212c-26.667 0 -52.5 7 -77.5 21s-44.167 33.667 -57.5 59z
M445 232.998c0 -46.667 -15.667 -84 -47 -112s-67.333 -42 -108 -42c-43.333 0 -79.5 14 -108.5 42s-43.5 65.333 -43.5 112c0 44.667 14.667 81.667 44 111s65.333 44 108 44c43.333 0 80 -13.833 110 -41.5s45 -65.5 45 -113.5zM175 682.998h74
c0 -17.333 5 -31.5 15 -42.5s23.667 -16.5 41 -16.5c16.667 0 30 6 40 18s15 25.667 15 41h76c0 -39.333 -11.833 -70.5 -35.5 -93.5s-55.5 -34.5 -95.5 -34.5c-43.333 0 -75.833 12.333 -97.5 37s-32.5 55 -32.5 91z" />
    <glyph glyph-name="Gdotaccent" unicode="&#x120;" horiz-adv-x="756" 
d="M630 606c-65.333 60.667 -142.998 91.0029 -232.998 91.0029c-97.333 0 -179.666 -34.333 -246.999 -103s-101 -152.334 -101 -251.001c0 -98 33.667 -181.333 101 -250s149.666 -103 246.999 -103c101.333 0 181 29.833 239 89.5s87 148.5 87 266.5h-302v-81h196
c-2.66699 -56.667 -24.334 -101.834 -65.001 -135.501s-92.334 -50.5 -155.001 -50.5c-71.333 0 -131.666 25.667 -180.999 77s-74 113.666 -74 186.999s24.667 135.833 74 187.5s109.666 77.5 180.999 77.5c62.667 0 118 -21.333 166 -64zM331.002 861.003
c0 16.667 6.16699 30.667 18.5 42s27.166 17 44.499 17s32.166 -5.66699 44.499 -17s18.5 -25.333 18.5 -42s-6.16699 -30.667 -18.5 -42s-27.166 -17 -44.499 -17s-32.166 5.66699 -44.499 17s-18.5 25.333 -18.5 42z" />
    <glyph glyph-name="gdotaccent" unicode="&#x121;" horiz-adv-x="611" 
d="M146 -67c-2 -0.666992 -14 -7.00195 -36 -19.002s-35.333 -19 -40 -21c22 -40 51.667 -71 89 -93s78 -33 122 -33c170 0 255 101.333 255 304v396h-90v-73c-14.667 26 -37.167 46.333 -67.5 61s-62.5 22 -96.5 22c-66 0 -122 -22.667 -168 -68s-69 -104.333 -69 -177
c0 -72 23 -130.333 69 -175s102 -67 168 -67c34 0 66.5 7.66699 97.5 23s53.167 36.333 66.5 63c0 -1.33301 0.166992 -3.16602 0.5 -5.49902s0.5 -4.16602 0.5 -5.49902c0 -141.333 -55.333 -212 -166 -212c-26.667 0 -52.5 7 -77.5 21s-44.167 33.667 -57.5 59z
M445 232.998c0 -46.667 -15.667 -84 -47 -112s-67.333 -42 -108 -42c-43.333 0 -79.5 14 -108.5 42s-43.5 65.333 -43.5 112c0 44.667 14.667 81.667 44 111s65.333 44 108 44c43.333 0 80 -13.833 110 -41.5s45 -65.5 45 -113.5zM242 638.998
c0 16.667 6.16699 30.667 18.5 42s27.166 17 44.499 17s32.166 -5.66699 44.499 -17s18.5 -25.333 18.5 -42s-6.16699 -30.667 -18.5 -42s-27.166 -17 -44.499 -17s-32.166 5.66699 -44.499 17s-18.5 25.333 -18.5 42z" />
    <glyph glyph-name="Gcommaaccent" unicode="&#x122;" horiz-adv-x="756" 
d="M630 606l-67.002 -62.0029c-48 42.667 -103.333 64 -166 64c-71.333 0 -131.666 -25.833 -180.999 -77.5s-74 -114.167 -74 -187.5s24.667 -135.666 74 -186.999s109.666 -77 180.999 -77c62.667 0 114.334 16.833 155.001 50.5s62.334 78.834 65.001 135.501h-196v81
h302c0 -118 -29 -206.833 -87 -266.5s-137.667 -89.5 -239 -89.5c-97.333 0 -179.666 34.333 -246.999 103s-101 152 -101 250c0 98.667 33.667 182.334 101 251.001s149.666 103 246.999 103c90 0 167.667 -30.333 233 -91zM370.998 -250.003l-58 19
c20.667 28 34.5 54 41.5 78s8.5 56 4.5 96h90c0.666992 -86 -25.333 -150.333 -78 -193z" />
    <glyph glyph-name="gcommaaccent" unicode="&#x123;" horiz-adv-x="611" 
d="M146 -67c-2 -0.666992 -14 -7.00195 -36 -19.002s-35.333 -19 -40 -21c22 -40 51.667 -71 89 -93s78 -33 122 -33c170 0 255 101.333 255 304v396h-90v-73c-14.667 26 -37.167 46.333 -67.5 61s-62.5 22 -96.5 22c-66 0 -122 -22.667 -168 -68s-69 -104.333 -69 -177
c0 -72 23 -130.333 69 -175s102 -67 168 -67c34 0 66.5 7.66699 97.5 23s53.167 36.333 66.5 63c0 -1.33301 0.166992 -3.16602 0.5 -5.49902s0.5 -4.16602 0.5 -5.49902c0 -141.333 -55.333 -212 -166 -212c-26.667 0 -52.5 7 -77.5 21s-44.167 33.667 -57.5 59z
M445 232.998c0 -46.667 -15.667 -84 -47 -112s-67.333 -42 -108 -42c-43.333 0 -79.5 14 -108.5 42s-43.5 65.333 -43.5 112c0 44.667 14.667 81.667 44 111s65.333 44 108 44c43.333 0 80 -13.833 110 -41.5s45 -65.5 45 -113.5zM310 748.998l58 -19
c-20.667 -28 -34.5 -54 -41.5 -78s-8.5 -56 -4.5 -96h-90c-0.666992 86 25.333 150.333 78 193z" />
    <glyph glyph-name="Hcircumflex" unicode="&#x124;" horiz-adv-x="708" 
d="M614 689v-689h-94v300h-333v-300h-93v689h93v-304h333v304h94zM428 776l-75 87l-74 -87h-82l110 154h93l110 -154h-82z" />
    <glyph glyph-name="hcircumflex" unicode="&#x125;" 
d="M167 252l0.000976562 -252.001h-91v721h91v-324c12.667 26 34.167 45.833 64.5 59.5s60.166 20.5 89.499 20.5c58.667 0 105 -18.167 139 -54.5s50.667 -87.166 50 -152.499v-270h-91v264c0 38 -10.167 68.167 -30.5 90.5s-46.833 33.5 -79.5 33.5
c-37.333 0 -70.333 -11.167 -99 -33.5s-43 -56.5 -43 -102.5zM197.001 764.999l-75 87l-74 -87h-82l110 154h93l110 -154h-82z" />
    <glyph glyph-name="Hbar" unicode="&#x126;" horiz-adv-x="716" 
d="M617 564h70v-62h-70v-502h-93v298h-332v-298h-93v502h-69v62h69v125h93v-125h332v125h93v-125zM192 386h332v116h-332v-116z" />
    <glyph glyph-name="hbar" unicode="&#x127;" 
d="M167 559l0.000976562 -162.001c12.667 26 34.167 45.833 64.5 59.5s60.166 20.5 89.499 20.5c58.667 0 105 -18.167 139 -54.5s50.667 -87.166 50 -152.499v-270h-91v264c0 38 -10.167 68.167 -30.5 90.5s-46.833 33.5 -79.5 33.5c-37.333 0 -70.333 -11.167 -99 -33.5
s-43 -56.5 -43 -102.5v-252h-91v559h-70v62h70v100h91v-100h130v-62h-130z" />
    <glyph glyph-name="Itilde" unicode="&#x128;" horiz-adv-x="281" 
d="M94 689h93v-689h-93v689zM96 832c-6 0 -11.834 -3.66797 -17.501 -11.001s-8.83398 -18.333 -9.50098 -33h-61c2 40.667 11.5 70.334 28.5 89.001s36.833 28 59.5 28c16.667 0 36 -8 58 -24c14 -11.333 24.333 -17 31 -17s12.834 3.16699 18.501 9.5
s8.83398 16.833 9.50098 31.5h61c-2 -40 -11.667 -69 -29 -87s-37.333 -27 -60 -27c-16.667 0 -35.667 8.33301 -57 25c-16 10.667 -26.667 16 -32 16z" />
    <glyph glyph-name="itilde" unicode="&#x129;" horiz-adv-x="241" 
d="M165 467v-467h-89v467h89zM80 610c-6 0 -11.834 -3.66797 -17.501 -11.001s-8.83398 -18.333 -9.50098 -33h-61c2 40.667 11.5 70.334 28.5 89.001s36.833 28 59.5 28c16.667 0 36 -8 58 -24c14 -11.333 24.333 -17 31 -17s12.834 3.16699 18.501 9.5
s8.83398 16.833 9.50098 31.5h61c-2 -40 -11.667 -69 -29 -87s-37.333 -27 -60 -27c-16.667 0 -35.667 8.33301 -57 25c-16 10.667 -26.667 16 -32 16z" />
    <glyph glyph-name="Imacron" unicode="&#x12a;" horiz-adv-x="281" 
d="M94 689h93v-689h-93v689zM15 882h252v-80h-252v80z" />
    <glyph glyph-name="imacron" unicode="&#x12b;" horiz-adv-x="241" 
d="M165 467v-467h-89v467h89zM-1 660h252v-80h-252v80z" />
    <glyph glyph-name="Ibreve" unicode="&#x12c;" horiz-adv-x="281" 
d="M187 689h-93v-689h93v689zM10 905h74c0 -17.333 5 -31.5 15 -42.5s23.667 -16.5 41 -16.5c16.667 0 30 6 40 18s15 25.667 15 41h76c0 -39.333 -11.833 -70.5 -35.5 -93.5s-55.5 -34.5 -95.5 -34.5c-43.333 0 -75.833 12.333 -97.5 37s-32.5 55 -32.5 91z" />
    <glyph glyph-name="ibreve" unicode="&#x12d;" horiz-adv-x="241" 
d="M165 0v467h-89v-467h89zM-5 683h74c0 -17.333 5 -31.5 15 -42.5s23.667 -16.5 41 -16.5c16.667 0 30 6 40 18s15 25.667 15 41h76c0 -39.333 -11.833 -70.5 -35.5 -93.5s-55.5 -34.5 -95.5 -34.5c-43.333 0 -75.833 12.333 -97.5 37s-32.5 55 -32.5 91z" />
    <glyph glyph-name="Iogonek" unicode="&#x12e;" horiz-adv-x="281" 
d="M148 0l-31 -87.001c-4 -10.667 -4.16699 -21 -0.5 -31s10.5 -17.333 20.5 -22c23.333 -6.66699 40 1 50 23l3 22l64 4c0 -17.333 -3.33301 -33.666 -10 -48.999c-8.66699 -20 -21 -35.667 -37 -47s-33.667 -17 -53 -17c-14 0 -27 2.66699 -39 8
c-20 8.66699 -35.5 21.167 -46.5 37.5s-16.5 34.5 -16.5 54.5c0 15.333 2.66699 29.333 8 42l34 63v688h93v-689h-39z" />
    <glyph glyph-name="iogonek" unicode="&#x12f;" horiz-adv-x="242" 
d="M131 0l-31 -87.001c-4 -10.667 -4.16699 -21 -0.5 -31s10.5 -17.333 20.5 -22c23.333 -6.66699 40 1 50 23l3 22l64 4c0 -17.333 -3.33301 -33.666 -10 -48.999c-8.66699 -20 -21 -35.667 -37 -47s-33.667 -17 -53 -17c-14 0 -27 2.66699 -39 8
c-20 8.66699 -35.5 21.167 -46.5 37.5s-16.5 34.5 -16.5 54.5c0 15.333 2.66699 29.333 8 42l33 62v467h90v-467h-35zM73 638.999c0 16.667 6.16699 30.667 18.5 42s27.166 17 44.499 17s32.166 -5.66699 44.499 -17s18.5 -25.333 18.5 -42s-6.16699 -30.667 -18.5 -42
s-27.166 -17 -44.499 -17s-32.166 5.66699 -44.499 17s-18.5 25.333 -18.5 42z" />
    <glyph glyph-name="Idotaccent" unicode="&#x130;" horiz-adv-x="281" 
d="M187 689h-93v-689h93v689zM78 861c0 16.667 6.16699 30.667 18.5 42s27.166 17 44.499 17s32.166 -5.66699 44.499 -17s18.5 -25.333 18.5 -42s-6.16699 -30.667 -18.5 -42s-27.166 -17 -44.499 -17s-32.166 5.66699 -44.499 17s-18.5 25.333 -18.5 42z" />
    <glyph glyph-name="dotlessi" unicode="&#x131;" horiz-adv-x="242" 
d="M166 467v-467h-90v467h90z" />
    <glyph glyph-name="IJ" unicode="&#x132;" horiz-adv-x="562" 
d="M94 689h93v-689h-93v689zM181 -240l9 88c16 -5.33301 38 -8 66 -8c40.667 0 70.667 12.333 90 37s29 56.667 29 96v716h93v-716c0 -66 -17.167 -119.833 -51.5 -161.5s-87.833 -62.5 -160.5 -62.5c-14.667 0 -39.667 3.66699 -75 11z" />
    <glyph glyph-name="ij" unicode="&#x133;" horiz-adv-x="486" 
d="M166 0v467h-90v-467h90zM58 639c0 16.667 6.16699 30.667 18.5 42s27.166 17 44.499 17s32.166 -5.66699 44.499 -17s18.5 -25.333 18.5 -42s-6.16699 -30.667 -18.5 -42s-27.166 -17 -44.499 -17s-32.166 5.66699 -44.499 17s-18.5 25.333 -18.5 42zM180 -229v85h54
c57.333 0 85.333 38.667 84 116v495h92v-496c0 -133.333 -56 -200 -168 -200h-62zM301 639c0 16.667 6.16699 30.667 18.5 42s27.166 17 44.499 17s32.166 -5.66699 44.499 -17s18.5 -25.333 18.5 -42s-6.16699 -30.667 -18.5 -42s-27.166 -17 -44.499 -17
s-32.166 5.66699 -44.499 17s-18.5 25.333 -18.5 42z" />
    <glyph glyph-name="Jcircumflex" unicode="&#x134;" horiz-adv-x="281" 
d="M-100 -240l9 88c16 -5.33301 38 -8 66 -8c40.667 0 70.667 12.333 90 37s29 56.667 29 96v716h93v-716c0 -66 -17.167 -119.833 -51.5 -161.5s-87.833 -62.5 -160.5 -62.5c-14.667 0 -39.667 3.66699 -75 11zM208 776l-75 87l-74 -87h-82l110 154h93l110 -154h-82z" />
    <glyph glyph-name="jcircumflex" unicode="&#x135;" horiz-adv-x="244" 
d="M-62 -229v85h54c57.333 0 85.333 38.667 84 116v495h92v-496c0 -133.333 -56 -200 -168 -200h-62zM201 554l-75 87l-74 -87h-82l110 154h93l110 -154h-82z" />
    <glyph glyph-name="Kcommaaccent" unicode="&#x136;" horiz-adv-x="578" 
d="M301 -250l-58 19c20.667 28 34.5 54 41.5 78s8.5 56 4.5 96h90c0.666992 -86 -25.333 -150.333 -78 -193zM265 345l320 -345h-125l-273 294v-294h-93v689h93v-298l228 298h115z" />
    <glyph glyph-name="kcommaaccent" unicode="&#x137;" horiz-adv-x="502" 
d="M166 228v-228h-90v721h90v-417l161 163h124l-200 -202l248 -265h-120zM247 -250l-58 19c20.667 28 34.5 54 41.5 78s8.5 56 4.5 96h90c0.666992 -86 -25.333 -150.333 -78 -193z" />
    <glyph glyph-name="kgreenlandic" unicode="&#x138;" horiz-adv-x="494" 
d="M166 187v-187h-90v467h90v-187l178 187h119l-217 -231l238 -236h-126z" />
    <glyph glyph-name="Lacute" unicode="&#x139;" horiz-adv-x="495" 
d="M187 689h-93v-689h374v87h-281v602zM306 919l-119 -154h-87l97 154h109z" />
    <glyph glyph-name="lacute" unicode="&#x13a;" horiz-adv-x="243" 
d="M167 721h-91v-721h91v721zM283 931l-119 -154h-87l97 154h109z" />
    <glyph glyph-name="Lcommaaccent" unicode="&#x13b;" horiz-adv-x="495" 
d="M94 689h93v-602h281v-87h-374v689zM240 -250l-58 19c20.667 28 34.5 54 41.5 78s8.5 56 4.5 96h90c0.666992 -86 -25.333 -150.333 -78 -193z" />
    <glyph glyph-name="lcommaaccent" unicode="&#x13c;" horiz-adv-x="243" 
d="M76 721h91v-721h-91v721zM89 -250l-58 19c20.667 28 34.5 54 41.5 78s8.5 56 4.5 96h90c0.666992 -86 -25.333 -150.333 -78 -193z" />
    <glyph glyph-name="Lcaron" unicode="&#x13d;" horiz-adv-x="495" 
d="M94 689h93v-602h281v-87h-374v689zM311 496l-58 19c20.667 28 34.5 54 41.5 78s8.5 56 4.5 96h90c0.666992 -86 -25.333 -150.333 -78 -193z" />
    <glyph glyph-name="lcaron" unicode="&#x13e;" horiz-adv-x="243" 
d="M76 721h91v-721h-91v721zM267 528l-58 19c20.667 28 34.5 54 41.5 78s8.5 56 4.5 96h90c0.666992 -86 -25.333 -150.333 -78 -193z" />
    <glyph glyph-name="Ldot" unicode="&#x13f;" horiz-adv-x="495" 
d="M94 689h93v-602h281v-87h-374v689zM266 261c0 18 6.33301 33 19 45s28 18 46 18s33.5 -6 46.5 -18s19.5 -27 19.5 -45s-6.5 -32.833 -19.5 -44.5s-28.5 -17.5 -46.5 -17.5s-33.333 5.83301 -46 17.5s-19 26.5 -19 44.5z" />
    <glyph glyph-name="ldot" unicode="&#x140;" horiz-adv-x="337" 
d="M76 721h91v-721h-91v721zM223 261c0 18 6.33301 33 19 45s28 18 46 18s33.5 -6 46.5 -18s19.5 -27 19.5 -45s-6.5 -32.833 -19.5 -44.5s-28.5 -17.5 -46.5 -17.5s-33.333 5.83301 -46 17.5s-19 26.5 -19 44.5z" />
    <glyph glyph-name="Lslash" unicode="&#x141;" horiz-adv-x="499" 
d="M191 452l104 65v-66l-104 -65v-294h280v-92h-372v328l-65 -41v66l65 41v295h92v-237z" />
    <glyph glyph-name="lslash" unicode="&#x142;" horiz-adv-x="255" 
d="M174 721v-281l77 50v-64l-77 -50v-376h-90v319l-67 -43v64l67 43v338h90z" />
    <glyph glyph-name="Nacute" unicode="&#x143;" horiz-adv-x="684" 
d="M501 0h89v689h-93v-515l-311 515h-92v-689h93v519zM475 930l-119 -154h-87l97 154h109z" />
    <glyph glyph-name="nacute" unicode="&#x144;" horiz-adv-x="563" 
d="M167 252v-252h-91v467h91v-70c13.333 26 33.833 45.833 61.5 59.5s55.834 20.5 84.501 20.5c58 0 102.5 -18 133.5 -54s46.5 -87 46.5 -153v-270h-91v264c0 38.667 -9.16699 69 -27.5 91s-43.5 33 -75.5 33c-36.667 0 -67.834 -11.167 -93.501 -33.5
s-38.5 -56.5 -38.5 -102.5zM423 708l-119 -154h-87l97 154h109z" />
    <glyph glyph-name="Ncommaaccent" unicode="&#x145;" horiz-adv-x="684" 
d="M590 0h-89l-314 519v-519h-93v689h92l311 -515v515h93v-689zM318 -250l-58 19c20.667 28 34.5 54 41.5 78s8.5 56 4.5 96h90c0.666992 -86 -25.333 -150.333 -78 -193z" />
    <glyph glyph-name="ncommaaccent" unicode="&#x146;" horiz-adv-x="563" 
d="M167 252v-252h-91v467h91v-70c13.333 26 33.833 45.833 61.5 59.5s55.834 20.5 84.501 20.5c58 0 102.5 -18 133.5 -54s46.5 -87 46.5 -153v-270h-91v264c0 38.667 -9.16699 69 -27.5 91s-43.5 33 -75.5 33c-36.667 0 -67.834 -11.167 -93.501 -33.5
s-38.5 -56.5 -38.5 -102.5zM253 -250l-58 19c20.667 28 34.5 54 41.5 78s8.5 56 4.5 96h90c0.666992 -86 -25.333 -150.333 -78 -193z" />
    <glyph glyph-name="Ncaron" unicode="&#x147;" horiz-adv-x="684" 
d="M501 0h89v689h-93v-515l-311 515h-92v-689h93v519zM341 843l75 87h82l-110 -154h-93l-110 154h82z" />
    <glyph glyph-name="ncaron" unicode="&#x148;" horiz-adv-x="563" 
d="M167 252v-252h-91v467h91v-70c13.333 26 33.833 45.833 61.5 59.5s55.834 20.5 84.501 20.5c58 0 102.5 -18 133.5 -54s46.5 -87 46.5 -153v-270h-91v264c0 38.667 -9.16699 69 -27.5 91s-43.5 33 -75.5 33c-36.667 0 -67.834 -11.167 -93.501 -33.5
s-38.5 -56.5 -38.5 -102.5zM281 621l75 87h82l-110 -154h-93l-110 154h82z" />
    <glyph glyph-name="napostrophe" unicode="&#x149;" horiz-adv-x="563" 
d="M9 469l-65 18.999c32 44.667 49.333 82.667 52 114c1.33301 14.667 0 34.334 -4 59.001h95c0.666992 -84.667 -25.333 -148.667 -78 -192zM167 251.999v-252h-91v467h91v-70c13.333 26 33.833 45.833 61.5 59.5s55.834 20.5 84.501 20.5c58 0 102.5 -18 133.5 -54
s46.5 -87 46.5 -153v-270h-91v264c0 38.667 -9.16699 69 -27.5 91s-43.5 33 -75.5 33c-36.667 0 -67.834 -11.167 -93.501 -33.5s-38.5 -56.5 -38.5 -102.5z" />
    <glyph glyph-name="Eng" unicode="&#x14a;" horiz-adv-x="682" 
d="M495 -23v33l-309 505v-515h-92v689h91l310 -515v515h93v-685c0 -167.333 -70.333 -251 -211 -251c-22.667 0 -48 3.66699 -76 11l9 93c15.333 -4 33.666 -7 54.999 -9c28.667 -2 51.334 2 68.001 12c41.333 18 62 57 62 117z" />
    <glyph glyph-name="eng" unicode="&#x14b;" horiz-adv-x="562" 
d="M493 270l-1.00098 -256.001c0 -155.333 -69 -233 -207 -233c-19.333 0 -43.666 3.33301 -72.999 10l8 91c24 -8 45.667 -12 65 -12c40 0 69.333 12 88 36s28.334 55.333 29.001 94v264c0 38.667 -9.16699 69 -27.5 91s-43.5 33 -75.5 33
c-36.667 0 -67.834 -11.167 -93.501 -33.5s-38.5 -56.5 -38.5 -102.5v-252h-91v467h91v-70c13.333 26 33.833 45.833 61.5 59.5s55.834 20.5 84.501 20.5c58 0 102.667 -18.167 134 -54.5s46.666 -87.166 45.999 -152.499z" />
    <glyph glyph-name="Omacron" unicode="&#x14c;" horiz-adv-x="796" 
d="M49 343c0 98.667 33.667 182.334 101 251.001s149.666 103 246.999 103c98 0 180.833 -34.333 248.5 -103s101.5 -152.334 101.5 -251.001c0 -98 -33.833 -181.333 -101.5 -250s-150.5 -103 -248.5 -103c-97.333 0 -179.666 34.333 -246.999 103s-101 152 -101 250z
M142 343c0 -73.333 24.499 -135.5 73.499 -186.5s109.5 -76.5 181.5 -76.5s132.667 25.5 182 76.5s74 113.167 74 186.5s-24.667 135.666 -74 186.999s-110 77 -182 77c-71.333 0 -131.666 -25.667 -180.999 -77s-74 -113.666 -74 -186.999zM271.999 882h252v-80h-252v80z
" />
    <glyph glyph-name="omacron" unicode="&#x14d;" horiz-adv-x="579" 
d="M289 -10c-68 0 -125.667 22.667 -173 68s-71 104.333 -71 177c0 72 23.5 130.333 70.5 175s104.833 67 173.5 67s126.667 -22.333 174 -67s71 -103 71 -175s-23.833 -130.833 -71.5 -176.5s-105.5 -68.5 -173.5 -68.5zM289 78c43.333 0 79.833 14.5 109.5 43.5
s44.5 66.833 44.5 113.5c0 46 -14.833 83 -44.5 111s-66.167 42 -109.5 42s-79.833 -14 -109.5 -42s-44.5 -65 -44.5 -111c0 -46.667 14.833 -84.5 44.5 -113.5s66.167 -43.5 109.5 -43.5zM154 660h252v-80h-252v80z" />
    <glyph glyph-name="Obreve" unicode="&#x14e;" horiz-adv-x="796" 
d="M49 343c0 -98 33.667 -181.333 101 -250s149.666 -103 246.999 -103c98 0 180.833 34.333 248.5 103s101.5 152 101.5 250c0 98.667 -33.833 182.334 -101.5 251.001s-150.5 103 -248.5 103c-97.333 0 -179.666 -34.333 -246.999 -103s-101 -152.334 -101 -251.001z
M142 343c0 73.333 24.668 135.666 74.001 186.999s109.666 77 180.999 77c72 0 132.667 -25.667 182 -77s74 -113.666 74 -186.999s-24.667 -135.5 -74 -186.5s-110 -76.5 -182 -76.5s-132.5 25.5 -181.5 76.5s-73.5 113.167 -73.5 186.5zM267.001 905h74
c0 -17.333 5 -31.5 15 -42.5s23.667 -16.5 41 -16.5c16.667 0 30 6 40 18s15 25.667 15 41h76c0 -39.333 -11.833 -70.5 -35.5 -93.5s-55.5 -34.5 -95.5 -34.5c-43.333 0 -75.833 12.333 -97.5 37s-32.5 55 -32.5 91z" />
    <glyph glyph-name="obreve" unicode="&#x14f;" horiz-adv-x="579" 
d="M289 -10c68 0 125.833 22.833 173.5 68.5s71.5 104.5 71.5 176.5s-23.667 130.333 -71 175s-105.333 67 -174 67s-126.5 -22.333 -173.5 -67s-70.5 -103 -70.5 -175c0 -72.667 23.667 -131.667 71 -177s105 -68 173 -68zM289 78c-43.333 0 -79.833 14.5 -109.5 43.5
s-44.5 66.833 -44.5 113.5c0 46 14.833 83 44.5 111s66.167 42 109.5 42s79.833 -14 109.5 -42s44.5 -65 44.5 -111c0 -46.667 -14.833 -84.5 -44.5 -113.5s-66.167 -43.5 -109.5 -43.5zM159 683h74c0 -17.333 5 -31.5 15 -42.5s23.667 -16.5 41 -16.5c16.667 0 30 6 40 18
s15 25.667 15 41h76c0 -39.333 -11.833 -70.5 -35.5 -93.5s-55.5 -34.5 -95.5 -34.5c-43.333 0 -75.833 12.333 -97.5 37s-32.5 55 -32.5 91z" />
    <glyph glyph-name="Ohungarumlaut" unicode="&#x150;" horiz-adv-x="796" 
d="M49 343c0 -98 33.667 -181.333 101 -250s149.666 -103 246.999 -103c98 0 180.833 34.333 248.5 103s101.5 152 101.5 250c0 98.667 -33.833 182.334 -101.5 251.001s-150.5 103 -248.5 103c-97.333 0 -179.666 -34.333 -246.999 -103s-101 -152.334 -101 -251.001z
M142 343c0 73.333 24.668 135.666 74.001 186.999s109.666 77 180.999 77c72 0 132.667 -25.667 182 -77s74 -113.666 74 -186.999s-24.667 -135.5 -74 -186.5s-110 -76.5 -182 -76.5s-132.5 25.5 -181.5 76.5s-73.5 113.167 -73.5 186.5zM453.001 930l-89 -154h-83l80 154
h92zM597.001 930l-102 -154h-81l89 154h94z" />
    <glyph glyph-name="ohungarumlaut" unicode="&#x151;" horiz-adv-x="579" 
d="M289 -10c68 0 125.833 22.833 173.5 68.5s71.5 104.5 71.5 176.5s-23.667 130.333 -71 175s-105.333 67 -174 67s-126.5 -22.333 -173.5 -67s-70.5 -103 -70.5 -175c0 -72.667 23.667 -131.667 71 -177s105 -68 173 -68zM289 78c-43.333 0 -79.833 14.5 -109.5 43.5
s-44.5 66.833 -44.5 113.5c0 46 14.833 83 44.5 111s66.167 42 109.5 42s79.833 -14 109.5 -42s44.5 -65 44.5 -111c0 -46.667 -14.833 -84.5 -44.5 -113.5s-66.167 -43.5 -109.5 -43.5zM329 708l-89 -154h-83l80 154h92zM473 708l-102 -154h-81l89 154h94z" />
    <glyph glyph-name="OE" unicode="&#x152;" horiz-adv-x="1120" 
d="M650 689l406 -0.000976562v-92h-313v-213h274v-92h-274v-200h324v-92h-417v108c-30.667 -36.667 -68 -65.5 -112 -86.5s-91.333 -31.5 -142 -31.5c-97.333 0 -179.333 34.333 -246 103s-100 152 -100 250c0 98.667 33.333 182.334 100 251.001s148.667 103 246 103
c50.667 0 98 -10.667 142 -32s81.333 -50.333 112 -87v111zM143 342.999c0 -72.667 24.333 -134.165 73 -184.498s108.667 -75.5 180 -75.5c69.333 0 128.166 24.167 176.499 72.5s74.166 107.166 77.499 176.499v22c-3.33301 70 -29.166 129.167 -77.499 177.5
s-107.166 72.5 -176.499 72.5c-71.333 0 -131.333 -25.333 -180 -76s-73 -112.334 -73 -185.001z" />
    <glyph glyph-name="oe" unicode="&#x153;" horiz-adv-x="955" 
d="M915 235c0 -17.333 -0.329102 -29.334 -0.996094 -36.001h-379c5.33301 -38.667 21.833 -69.5 49.5 -92.5s61.5 -34.5 101.5 -34.5c28.667 0 55 6.33301 79 19s42.333 30.334 55 53.001l40 -15.5l38 -14.5c-19.333 -40 -48.333 -70.667 -87 -92s-81.334 -32 -128.001 -32
c-40.667 0 -78 8.5 -112 25.5s-61.667 40.833 -83 71.5c-22.667 -30.667 -51.334 -54.5 -86.001 -71.5s-72.334 -25.5 -113.001 -25.5c-68 0 -125.667 22.667 -173 68s-71 104.333 -71 177c0 72 23.5 130.333 70.5 175s104.833 67 173.5 67
c85.333 0 151.666 -32 198.999 -96c45.333 64 110.333 96 195 96c67.333 0 122.833 -22.167 166.5 -66.5s65.5 -102.833 65.5 -175.5zM289.004 77.999c43.333 0 79.833 14.5 109.5 43.5s44.5 66.833 44.5 113.5c0 46 -14.833 83 -44.5 111s-66.167 42 -109.5 42
s-79.833 -14 -109.5 -42s-44.5 -65 -44.5 -111c0 -46.667 14.833 -84.5 44.5 -113.5s66.167 -43.5 109.5 -43.5zM535.004 269.999h290c-5.33301 38.667 -20.833 69.167 -46.5 91.5s-57.5 33.5 -95.5 33.5c-39.333 0 -72.5 -11.167 -99.5 -33.5s-43.167 -52.833 -48.5 -91.5z
" />
    <glyph glyph-name="Racute" unicode="&#x154;" horiz-adv-x="619" 
d="M567 0l-184.001 261c60.667 5.33301 105.834 28 135.501 68s44.5 88 44.5 144c0 60 -17 111 -51 153s-85 63 -153 63h-265v-689h94v258h88l178 -258h113zM187.999 602l168.001 -0.000976562c37.333 0 65.166 -12.667 83.499 -38s27.5 -55.666 27.5 -90.999
c0 -36 -9.33301 -66.333 -28 -91s-47.667 -37 -87 -37h-164v257zM411 929.999l-119 -154h-87l97 154h109z" />
    <glyph glyph-name="racute" unicode="&#x155;" horiz-adv-x="395" 
d="M167 170c0 66 10.667 119.167 32 159.5s53.333 60.5 96 60.5c24 0 47 -5.33301 69 -16l14 85c-17.333 12 -44.333 18 -81 18c-64 0 -107.333 -38.333 -130 -115v105h-91v-467h91v170zM283 708l-119 -154h-87l97 154h109z" />
    <glyph glyph-name="Rcommaaccent" unicode="&#x156;" horiz-adv-x="619" 
d="M383 261l184.001 -261h-113l-178 258h-88v-258h-94v689h265c68 0 119 -21 153 -63s51 -93 51 -153c0 -56 -14.833 -104 -44.5 -144s-74.834 -62.667 -135.501 -68zM356.001 602l-168.001 0.000976562v-257h164c39.333 0 68.333 12.333 87 37s28 55 28 91
c0 35.333 -9.16699 65.666 -27.5 90.999s-46.166 38 -83.499 38zM286 -249.999l-58 19c20.667 28 34.5 54 41.5 78s8.5 56 4.5 96h90c0.666992 -86 -25.333 -150.333 -78 -193z" />
    <glyph glyph-name="rcommaaccent" unicode="&#x157;" horiz-adv-x="395" 
d="M167 170v-170h-91v467h91v-105c22.667 76.667 66 115 130 115c36.667 0 63.667 -6 81 -18l-14 -85c-22 10.667 -45 16 -69 16c-42.667 0 -74.667 -20.167 -96 -60.5s-32 -93.5 -32 -159.5zM89 -250l-58 19c20.667 28 34.5 54 41.5 78s8.5 56 4.5 96h90
c0.666992 -86 -25.333 -150.333 -78 -193z" />
    <glyph glyph-name="Rcaron" unicode="&#x158;" horiz-adv-x="619" 
d="M567 0l-184.001 261c60.667 5.33301 105.834 28 135.501 68s44.5 88 44.5 144c0 60 -17 111 -51 153s-85 63 -153 63h-265v-689h94v258h88l178 -258h113zM187.999 602l168.001 -0.000976562c37.333 0 65.166 -12.667 83.499 -38s27.5 -55.666 27.5 -90.999
c0 -36 -9.33301 -66.333 -28 -91s-47.667 -37 -87 -37h-164v257zM308 842.999l75 87h82l-110 -154h-93l-110 154h82z" />
    <glyph glyph-name="rcaron" unicode="&#x159;" horiz-adv-x="395" 
d="M167 170c0 66 10.667 119.167 32 159.5s53.333 60.5 96 60.5c24 0 47 -5.33301 69 -16l14 85c-17.333 12 -44.333 18 -81 18c-64 0 -107.333 -38.333 -130 -115v105h-91v-467h91v170zM205 621l75 87h82l-110 -154h-93l-110 154h82z" />
    <glyph glyph-name="Sacute" unicode="&#x15a;" horiz-adv-x="573" 
d="M145 199l-93.001 -0.000976562c0 -56 23 -104.833 69 -146.5s103.333 -62.5 172 -62.5c65.333 0 118.5 17 159.5 51s64.5 77 70.5 129c6.66699 54 -6 99.333 -38 136s-80.667 63.334 -146 80.001l-90 22c-65.333 16 -98 48 -98 96c0 30.667 12.833 55.667 38.5 75
s55.834 29 90.501 29c38 0 69.167 -10.333 93.5 -31s36.5 -48 36.5 -82h93c0 60.667 -21 109.5 -63 146.5s-95 55.5 -159 55.5c-60.667 0 -113 -18.167 -157 -54.5s-66 -82.833 -66 -139.5c0 -91.333 56 -151.333 168 -180l89 -22c36 -8 65.167 -22 87.5 -42
s32.166 -47 29.499 -81c-4.66699 -28.667 -18.667 -52.667 -42 -72s-55.666 -29 -96.999 -29c-42 0 -77 12.5 -105 37.5s-42.333 53.167 -43 84.5zM415.999 929.999l-119 -154h-87l97 154h109z" />
    <glyph glyph-name="sacute" unicode="&#x15b;" horiz-adv-x="439" 
d="M182 206c-44.667 12 -77.666 30.0049 -98.999 54.0049s-30 56.667 -26 98c3.33301 34 20.666 62.333 51.999 85s68 34 110 34c43.333 0 80.166 -10.833 110.499 -32.5s47.5 -54.834 51.5 -99.501h-87c-2.66699 16.667 -10.834 29.667 -24.501 39s-29.834 14 -48.501 14
c-17.333 0 -32.5 -3.83301 -45.5 -11.5s-21.167 -17.834 -24.5 -30.501c-4 -14.667 -3.66699 -27 1 -37c7.33301 -15.333 25.666 -27.333 54.999 -36l69 -17c80.667 -20 121 -65.333 121 -136c0 -42 -17.5 -75.833 -52.5 -101.5s-77.833 -38.5 -128.5 -38.5
c-44.667 0 -84.5 13.667 -119.5 41s-53.167 63.666 -54.5 108.999h83c4 -24.667 16.667 -42.334 38 -53.001c20.667 -12.667 45.334 -18 74.001 -16c21.333 1.33301 38.333 7.66602 51 18.999s19.334 25.333 20.001 42c0.666992 16 -4.66602 28.667 -15.999 38
s-26.666 16.333 -45.999 21zM350.001 708.005l-119 -154h-87l97 154h109z" />
    <glyph glyph-name="Scircumflex" unicode="&#x15c;" horiz-adv-x="573" 
d="M145 199c0.666992 -31.333 15.001 -59.499 43.001 -84.499s63 -37.5 105 -37.5c41.333 0 73.666 9.66699 96.999 29s37.333 43.333 42 72c2.66699 34 -7.16602 61 -29.499 81s-51.5 34 -87.5 42l-89 22c-112 28.667 -168 88.667 -168 180c0 56.667 22 103.167 66 139.5
s96.333 54.5 157 54.5c64 0 117 -18.5 159 -55.5s63 -85.833 63 -146.5h-93c0 34 -12.167 61.333 -36.5 82s-55.5 31 -93.5 31c-34.667 0 -64.834 -9.66699 -90.501 -29s-38.5 -44.333 -38.5 -75c0 -48 32.667 -80 98 -96l90 -22c65.333 -16.667 114 -43.334 146 -80.001
s44.667 -82 38 -136c-6 -52 -29.5 -95 -70.5 -129s-94.167 -51 -159.5 -51c-68.667 0 -126 20.833 -172 62.5s-69 90.5 -69 146.5h93zM352.001 776.001l-75 87l-74 -87h-82l110 154h93l110 -154h-82z" />
    <glyph glyph-name="scircumflex" unicode="&#x15d;" horiz-adv-x="439" 
d="M182 206c-44.667 12 -77.666 30.0049 -98.999 54.0049s-30 56.667 -26 98c3.33301 34 20.666 62.333 51.999 85s68 34 110 34c43.333 0 80.166 -10.833 110.499 -32.5s47.5 -54.834 51.5 -99.501h-87c-2.66699 16.667 -10.834 29.667 -24.501 39s-29.834 14 -48.501 14
c-17.333 0 -32.5 -3.83301 -45.5 -11.5s-21.167 -17.834 -24.5 -30.501c-4 -14.667 -3.66699 -27 1 -37c7.33301 -15.333 25.666 -27.333 54.999 -36l69 -17c80.667 -20 121 -65.333 121 -136c0 -42 -17.5 -75.833 -52.5 -101.5s-77.833 -38.5 -128.5 -38.5
c-44.667 0 -84.5 13.667 -119.5 41s-53.167 63.666 -54.5 108.999h83c4 -24.667 16.667 -42.334 38 -53.001c20.667 -12.667 45.334 -18 74.001 -16c21.333 1.33301 38.333 7.66602 51 18.999s19.334 25.333 20.001 42c0.666992 16 -4.66602 28.667 -15.999 38
s-26.666 16.333 -45.999 21zM294.001 554.005l-75 87l-74 -87h-82l110 154h93l110 -154h-82z" />
    <glyph glyph-name="Scedilla" unicode="&#x15e;" horiz-adv-x="573" 
d="M254 -117c10 -22 26.667 -29.665 50 -22.998c10 4.66699 16.833 12 20.5 22s3.5 20.333 -0.5 31l-28 77h-3c-68.667 0 -126 20.833 -172 62.5s-69 90.5 -69 146.5h93c0.666992 -31.333 15 -59.5 43 -84.5s63 -37.5 105 -37.5c41.333 0 73.666 9.66699 96.999 29
s37.333 43.333 42 72c2.66699 34 -7.33301 61.167 -30 81.5s-51.667 34.166 -87 41.499l-89 22c-112 28.667 -168 88.667 -168 180c0 56.667 22 103.167 66 139.5s96.333 54.5 157 54.5c64 0 117 -18.5 159 -55.5s63 -85.833 63 -146.5h-93c0 34 -12.167 61.333 -36.5 82
s-55.5 31 -93.5 31c-34.667 0 -64.834 -9.66699 -90.501 -29s-38.5 -44.333 -38.5 -75c0 -48 32.667 -80 98 -96l90 -22c65.333 -16.667 114 -43.334 146 -80.001s44.667 -82 38 -136c-5.33301 -43.333 -23.166 -80.833 -53.499 -112.5s-70.166 -52.167 -119.499 -61.5
l31 -58c5.33301 -12.667 8 -26.667 8 -42c0 -20 -5.5 -38.167 -16.5 -54.5s-26.5 -28.833 -46.5 -37.5c-12 -5.33301 -25 -8 -39 -8c-19.333 0 -37 5.66699 -53 17s-28.333 27 -37 47c-6.66699 15.333 -10 31.666 -10 48.999l64 -4
c-0.666992 -9.33301 0.333008 -16.666 3 -21.999z" />
    <glyph glyph-name="scedilla" unicode="&#x15f;" horiz-adv-x="440" 
d="M280 -1l33.002 -60.9951c5.33301 -12.667 8 -26.667 8 -42c0 -20 -5.5 -38.167 -16.5 -54.5s-26.5 -28.833 -46.5 -37.5c-12 -5.33301 -25 -8 -39 -8c-19.333 0 -37 5.66699 -53 17s-28.333 27 -37 47c-6.66699 15.333 -10 31.666 -10 48.999l64 -4
c-0.666992 -9.33301 0.333008 -16.666 3 -21.999c10 -22 26.667 -29.667 50 -23c10 4.66699 16.833 12 20.5 22s3.5 20.333 -0.5 31l-28 78c-1.33301 0 -3.33301 -0.166992 -6 -0.5s-4.66699 -0.5 -6 -0.5c-44.667 0 -84.5 13.667 -119.5 41s-53.167 63.666 -54.5 108.999
h83c4 -24.667 16.667 -42.334 38 -53.001c20.667 -12.667 45.334 -18 74.001 -16c21.333 1.33301 38.333 7.66602 51 18.999s19.334 25.333 20.001 42c0.666992 16 -4.66602 28.667 -15.999 38s-26.666 16.333 -45.999 21l-64 15c-44.667 12 -77.667 30 -99 54
s-30 56.667 -26 98c3.33301 34 20.666 62.333 51.999 85s68 34 110 34c43.333 0 80.166 -10.833 110.499 -32.5s47.5 -54.834 51.5 -99.501h-87c-2.66699 16.667 -10.834 29.667 -24.501 39s-29.834 14 -48.501 14c-17.333 0 -32.5 -3.83301 -45.5 -11.5
s-21.167 -17.834 -24.5 -30.501c-4 -14.667 -3.66699 -27 1 -37c7.33301 -15.333 25.666 -27.333 54.999 -36l69 -17c80.667 -20 121 -65.333 121 -136c0 -32.667 -10.833 -60.5 -32.5 -83.5s-49.834 -38.833 -84.501 -47.5z" />
    <glyph glyph-name="Scaron" unicode="&#x160;" horiz-adv-x="573" 
d="M145 199l-93.001 -0.000976562c0 -56 23 -104.833 69 -146.5s103.333 -62.5 172 -62.5c65.333 0 118.5 17 159.5 51s64.5 77 70.5 129c6.66699 54 -6 99.333 -38 136s-80.667 63.334 -146 80.001l-90 22c-65.333 16 -98 48 -98 96c0 30.667 12.833 55.667 38.5 75
s55.834 29 90.501 29c38 0 69.167 -10.333 93.5 -31s36.5 -48 36.5 -82h93c0 60.667 -21 109.5 -63 146.5s-95 55.5 -159 55.5c-60.667 0 -113 -18.167 -157 -54.5s-66 -82.833 -66 -139.5c0 -91.333 56 -151.333 168 -180l89 -22c36 -8 65.167 -22 87.5 -42
s32.166 -47 29.499 -81c-4.66699 -28.667 -18.667 -52.667 -42 -72s-55.666 -29 -96.999 -29c-42 0 -77 12.5 -105 37.5s-42.333 53.167 -43 84.5zM287.999 842.999l75 87h82l-110 -154h-93l-110 154h82z" />
    <glyph glyph-name="scaron" unicode="&#x161;" horiz-adv-x="439" 
d="M182 206c-44.667 12 -77.666 30.0049 -98.999 54.0049s-30 56.667 -26 98c3.33301 34 20.666 62.333 51.999 85s68 34 110 34c43.333 0 80.166 -10.833 110.499 -32.5s47.5 -54.834 51.5 -99.501h-87c-2.66699 16.667 -10.834 29.667 -24.501 39s-29.834 14 -48.501 14
c-17.333 0 -32.5 -3.83301 -45.5 -11.5s-21.167 -17.834 -24.5 -30.501c-4 -14.667 -3.66699 -27 1 -37c7.33301 -15.333 25.666 -27.333 54.999 -36l69 -17c80.667 -20 121 -65.333 121 -136c0 -42 -17.5 -75.833 -52.5 -101.5s-77.833 -38.5 -128.5 -38.5
c-44.667 0 -84.5 13.667 -119.5 41s-53.167 63.666 -54.5 108.999h83c4 -24.667 16.667 -42.334 38 -53.001c20.667 -12.667 45.334 -18 74.001 -16c21.333 1.33301 38.333 7.66602 51 18.999s19.334 25.333 20.001 42c0.666992 16 -4.66602 28.667 -15.999 38
s-26.666 16.333 -45.999 21zM219.001 621.005l75 87h82l-110 -154h-93l-110 154h82z" />
    <glyph glyph-name="Tcommaaccent" unicode="&#x162;" horiz-adv-x="568" 
d="M28 689h512v-88h-209v-601h-94v601h-209v88zM249 -250l-58 19c20.667 28 34.5 54 41.5 78s8.5 56 4.5 96h90c0.666992 -86 -25.333 -150.333 -78 -193z" />
    <glyph glyph-name="tcommaaccent" unicode="&#x163;" horiz-adv-x="328" 
d="M202 467h99v-77h-99v-390h-91v390h-84v77h84v176h91v-176zM123 -250l-58 19c20.667 28 34.5 54 41.5 78s8.5 56 4.5 96h90c0.666992 -86 -25.333 -150.333 -78 -193z" />
    <glyph glyph-name="Tcaron" unicode="&#x164;" horiz-adv-x="568" 
d="M540 689h-512v-88h209v-601h94v601h209v88zM283 843l75 87h82l-110 -154h-93l-110 154h82z" />
    <glyph glyph-name="tcaron" unicode="&#x165;" horiz-adv-x="328" 
d="M301 467h-99v176h-91v-176h-84v-77h84v-390h91v390h99v77zM299 528l-58 19c20.667 28 34.5 54 41.5 78s8.5 56 4.5 96h90c0.666992 -86 -25.333 -150.333 -78 -193z" />
    <glyph glyph-name="Tbar" unicode="&#x166;" horiz-adv-x="567" 
d="M330 410h133v-66h-133v-344h-93v344h-132v66h132v187h-211v92h515v-92h-211v-187z" />
    <glyph glyph-name="tbar" unicode="&#x167;" horiz-adv-x="330" 
d="M112 0v226h-68v61h68v103h-84v77h84v176h91v-176h99v-77h-99v-103h76v-61h-76v-226h-91z" />
    <glyph glyph-name="Utilde" unicode="&#x168;" horiz-adv-x="678" 
d="M339 80c44 0 81.333 14.667 112 44s46 67 46 113v452h94v-452c0 -73.333 -24.5 -132.833 -73.5 -178.5s-108.5 -68.5 -178.5 -68.5s-129.5 22.833 -178.5 68.5s-73.5 105.167 -73.5 178.5v452h94v-452c0 -46 15.333 -83.667 46 -113s68 -44 112 -44zM294 832
c-6 0 -11.834 -3.66797 -17.501 -11.001s-8.83398 -18.333 -9.50098 -33h-61c2 40.667 11.5 70.334 28.5 89.001s36.833 28 59.5 28c16.667 0 36 -8 58 -24c14 -11.333 24.333 -17 31 -17s12.834 3.16699 18.501 9.5s8.83398 16.833 9.50098 31.5h61
c-2 -40 -11.667 -69 -29 -87s-37.333 -27 -60 -27c-16.667 0 -35.667 8.33301 -57 25c-16 10.667 -26.667 16 -32 16z" />
    <glyph glyph-name="utilde" unicode="&#x169;" horiz-adv-x="562" 
d="M395 215l-0.000976562 252h91v-467h-91v70c-13.333 -26 -33.666 -45.833 -60.999 -59.5s-55.333 -20.5 -84 -20.5c-58 0 -102.667 18 -134 54s-46.666 87 -45.999 153v270h91v-264c0 -38.667 9 -69 27 -91s43 -33 75 -33c37.333 0 68.666 11 93.999 33s38 56.333 38 103z
M241.999 610c-6 0 -11.834 -3.66797 -17.501 -11.001s-8.83398 -18.333 -9.50098 -33h-61c2 40.667 11.5 70.334 28.5 89.001s36.833 28 59.5 28c16.667 0 36 -8 58 -24c14 -11.333 24.333 -17 31 -17s12.834 3.16699 18.501 9.5s8.83398 16.833 9.50098 31.5h61
c-2 -40 -11.667 -69 -29 -87s-37.333 -27 -60 -27c-16.667 0 -35.667 8.33301 -57 25c-16 10.667 -26.667 16 -32 16z" />
    <glyph glyph-name="Umacron" unicode="&#x16a;" horiz-adv-x="678" 
d="M339 80c44 0 81.333 14.667 112 44s46 67 46 113v452h94v-452c0 -73.333 -24.5 -132.833 -73.5 -178.5s-108.5 -68.5 -178.5 -68.5s-129.5 22.833 -178.5 68.5s-73.5 105.167 -73.5 178.5v452h94v-452c0 -46 15.333 -83.667 46 -113s68 -44 112 -44zM213 882h252v-80
h-252v80z" />
    <glyph glyph-name="umacron" unicode="&#x16b;" horiz-adv-x="562" 
d="M395 215l-0.000976562 252h91v-467h-91v70c-13.333 -26 -33.666 -45.833 -60.999 -59.5s-55.333 -20.5 -84 -20.5c-58 0 -102.667 18 -134 54s-46.666 87 -45.999 153v270h91v-264c0 -38.667 9 -69 27 -91s43 -33 75 -33c37.333 0 68.666 11 93.999 33s38 56.333 38 103z
M160.999 660h252v-80h-252v80z" />
    <glyph glyph-name="Ubreve" unicode="&#x16c;" horiz-adv-x="678" 
d="M339 80c44 0 81.333 14.667 112 44s46 67 46 113v452h94v-452c0 -73.333 -24.5 -132.833 -73.5 -178.5s-108.5 -68.5 -178.5 -68.5s-129.5 22.833 -178.5 68.5s-73.5 105.167 -73.5 178.5v452h94v-452c0 -46 15.333 -83.667 46 -113s68 -44 112 -44zM208 905h74
c0 -17.333 5 -31.5 15 -42.5s23.667 -16.5 41 -16.5c16.667 0 30 6 40 18s15 25.667 15 41h76c0 -39.333 -11.833 -70.5 -35.5 -93.5s-55.5 -34.5 -95.5 -34.5c-43.333 0 -75.833 12.333 -97.5 37s-32.5 55 -32.5 91z" />
    <glyph glyph-name="ubreve" unicode="&#x16d;" horiz-adv-x="562" 
d="M395 215l-0.000976562 252h91v-467h-91v70c-13.333 -26 -33.666 -45.833 -60.999 -59.5s-55.333 -20.5 -84 -20.5c-58 0 -102.667 18 -134 54s-46.666 87 -45.999 153v270h91v-264c0 -38.667 9 -69 27 -91s43 -33 75 -33c37.333 0 68.666 11 93.999 33s38 56.333 38 103z
M156.999 683h74c0 -17.333 5 -31.5 15 -42.5s23.667 -16.5 41 -16.5c16.667 0 30 6 40 18s15 25.667 15 41h76c0 -39.333 -11.833 -70.5 -35.5 -93.5s-55.5 -34.5 -95.5 -34.5c-43.333 0 -75.833 12.333 -97.5 37s-32.5 55 -32.5 91z" />
    <glyph glyph-name="Uring" unicode="&#x16e;" horiz-adv-x="678" 
d="M339 80c44 0 81.333 14.667 112 44s46 67 46 113v452h94v-452c0 -73.333 -24.5 -132.833 -73.5 -178.5s-108.5 -68.5 -178.5 -68.5s-129.5 22.833 -178.5 68.5s-73.5 105.167 -73.5 178.5v452h94v-452c0 -46 15.333 -83.667 46 -113s68 -44 112 -44zM233 867
c0 30 10 55.167 30 75.5s44.667 30.5 74 30.5c30 0 55.333 -10.167 76 -30.5s31 -45.5 31 -75.5c0 -29.333 -10.333 -54 -31 -74s-46 -30 -76 -30c-28.667 0 -53.167 10.167 -73.5 30.5s-30.5 44.833 -30.5 73.5zM286 867c0 -14 4.99805 -26 14.998 -36s22 -15 36 -15
c14.667 0 27.334 5 38.001 15s16 22 16 36c0 14.667 -5.16699 27.167 -15.5 37.5s-23.166 15.5 -38.499 15.5c-14 0 -26 -5.16699 -36 -15.5s-15 -22.833 -15 -37.5z" />
    <glyph glyph-name="uring" unicode="&#x16f;" horiz-adv-x="562" 
d="M395 215l-0.000976562 252h91v-467h-91v70c-13.333 -26 -33.666 -45.833 -60.999 -59.5s-55.333 -20.5 -84 -20.5c-58 0 -102.667 18 -134 54s-46.666 87 -45.999 153v270h91v-264c0 -38.667 9 -69 27 -91s43 -33 75 -33c37.333 0 68.666 11 93.999 33s38 56.333 38 103z
M181.999 645c0 30 10 55.167 30 75.5s44.667 30.5 74 30.5c30 0 55.333 -10.167 76 -30.5s31 -45.5 31 -75.5c0 -29.333 -10.333 -54 -31 -74s-46 -30 -76 -30c-29.333 0 -54 10.167 -74 30.5s-30 44.833 -30 73.5zM234.999 645c0 -14 4.99805 -26 14.998 -36s22 -15 36 -15
c14.667 0 27.334 5 38.001 15s16 22 16 36c0 14.667 -5.16699 27.167 -15.5 37.5s-23.166 15.5 -38.499 15.5c-14 0 -26 -5.16699 -36 -15.5s-15 -22.833 -15 -37.5z" />
    <glyph glyph-name="Uhungarumlaut" unicode="&#x170;" horiz-adv-x="678" 
d="M339 80c44 0 81.333 14.667 112 44s46 67 46 113v452h94v-452c0 -73.333 -24.5 -132.833 -73.5 -178.5s-108.5 -68.5 -178.5 -68.5s-129.5 22.833 -178.5 68.5s-73.5 105.167 -73.5 178.5v452h94v-452c0 -46 15.333 -83.667 46 -113s68 -44 112 -44zM381 930l-89 -154
h-83l80 154h92zM525 930l-102 -154h-81l89 154h94z" />
    <glyph glyph-name="uhungarumlaut" unicode="&#x171;" horiz-adv-x="562" 
d="M395 215l-0.000976562 252h91v-467h-91v70c-13.333 -26 -33.666 -45.833 -60.999 -59.5s-55.333 -20.5 -84 -20.5c-58 0 -102.667 18 -134 54s-46.666 87 -45.999 153v270h91v-264c0 -38.667 9 -69 27 -91s43 -33 75 -33c37.333 0 68.666 11 93.999 33s38 56.333 38 103z
M320.999 708l-89 -154h-83l80 154h92zM464.999 708l-102 -154h-81l89 154h94z" />
    <glyph glyph-name="Uogonek" unicode="&#x172;" horiz-adv-x="678" 
d="M414 -117l3.00195 21.9971l64 4c0 -17.333 -3.33301 -33.666 -10 -48.999c-8.66699 -20 -21 -35.667 -37 -47s-33.667 -17 -53 -17c-14 0 -27 2.66699 -39 8c-20 8.66699 -35.5 21.167 -46.5 37.5s-16.5 34.5 -16.5 54.5c0 15.333 2.66699 29.333 8 42l28 53
c-64.667 5.33301 -118.834 30.5 -162.501 75.5s-65.5 101.833 -65.5 170.5v452h94v-452c0 -46 15.333 -83.667 46 -113s68 -44 112 -44s81.333 14.667 112 44s46 67 46 113v452h94v-452c0 -67.333 -20.833 -123.166 -62.5 -167.499s-93.834 -70.166 -156.501 -77.499
l-28 -79c-4 -10.667 -4.16699 -21 -0.5 -31s10.5 -17.333 20.5 -22c23.333 -6.66699 40 1 50 23z" />
    <glyph glyph-name="uogonek" unicode="&#x173;" horiz-adv-x="562" 
d="M489 -117l2.99902 21.999l64 4c0 -17.333 -3.33301 -33.666 -10 -48.999c-8.66699 -20 -21 -35.667 -37 -47s-33.667 -17 -53 -17c-14 0 -27 2.66699 -39 8c-20 8.66699 -35.5 21.167 -46.5 37.5s-16.5 34.5 -16.5 54.5c0 15.333 2.66699 29.333 8 42l33 62v70
c-13.333 -26 -33.666 -45.833 -60.999 -59.5s-55.333 -20.5 -84 -20.5c-58 0 -102.667 18 -134 54s-46.666 87 -45.999 153v270h91v-264c0 -38.667 9 -69 27 -91s43 -33 75 -33c37.333 0 68.666 11 93.999 33s38 56.333 38 103v252h91v-467h-36l-31 -87
c-4 -10.667 -4.16699 -21 -0.5 -31s10.5 -17.333 20.5 -22c23.333 -6.66699 40 1 50 23z" />
    <glyph glyph-name="Wcircumflex" unicode="&#x174;" horiz-adv-x="901" 
d="M786 689h100l-233 -689h-81l-122 430l-121 -430h-81l-233 689h100l173 -539l127 446h71l127 -446zM525 776l-75 87l-74 -87h-82l110 154h93l110 -154h-82z" />
    <glyph glyph-name="wcircumflex" unicode="&#x175;" horiz-adv-x="790" 
d="M596 0h-75l-127 343l-123 -343h-74l-178 467h97l117 -327l117 327h88l117 -327l117 327h97zM468 554l-75 87l-74 -87h-82l110 154h93l110 -154h-82z" />
    <glyph glyph-name="Ycircumflex" unicode="&#x176;" horiz-adv-x="628" 
d="M362 0h-96v317l-261 372h111l198 -279l200 279h112l-264 -372v-317zM390 776l-75 87l-74 -87h-82l110 154h93l110 -154h-82z" />
    <glyph glyph-name="ycircumflex" unicode="&#x177;" horiz-adv-x="509" 
d="M202 -227h-95l98 241l-187 453h97l140 -338l140 338h97zM332 554l-75 87l-74 -87h-82l110 154h93l110 -154h-82z" />
    <glyph glyph-name="Ydieresis" unicode="&#x178;" horiz-adv-x="628" 
d="M362 0h-96v317l-261 372h111l198 -279l200 279h112l-264 -372v-317zM169 852c0 16.667 6 30.667 18 42s26.667 17 44 17c16.667 0 31 -5.66699 43 -17s18 -25.333 18 -42s-6 -30.667 -18 -42s-26.333 -17 -43 -17c-17.333 0 -32 5.66699 -44 17s-18 25.333 -18 42z
M338 852c0 16.667 6 30.667 18 42s26.667 17 44 17s32 -5.66699 44 -17s18 -25.333 18 -42s-6 -30.667 -18 -42s-26.667 -17 -44 -17s-32 5.66699 -44 17s-18 25.333 -18 42z" />
    <glyph glyph-name="Zacute" unicode="&#x179;" horiz-adv-x="573" 
d="M42 81l364 520h-350v88h468v-81l-366 -520h366v-88h-482v81zM425 930l-119 -154h-87l97 154h109z" />
    <glyph glyph-name="zacute" unicode="&#x17a;" horiz-adv-x="502" 
d="M453 392v75h-395v-87h262l-278 -305v-75h411v87h-283zM382 708l-119 -154h-87l97 154h109z" />
    <glyph glyph-name="Zdotaccent" unicode="&#x17b;" horiz-adv-x="573" 
d="M42 81l364 520h-350v88h468v-81l-366 -520h366v-88h-482v81zM220 861c0 16.667 6.16699 30.667 18.5 42s27.166 17 44.499 17s32.166 -5.66699 44.499 -17s18.5 -25.333 18.5 -42s-6.16699 -30.667 -18.5 -42s-27.166 -17 -44.499 -17s-32.166 5.66699 -44.499 17
s-18.5 25.333 -18.5 42z" />
    <glyph glyph-name="zdotaccent" unicode="&#x17c;" horiz-adv-x="502" 
d="M453 392v75h-395v-87h262l-278 -305v-75h411v87h-283zM185 639c0 16.667 6.16699 30.667 18.5 42s27.166 17 44.499 17s32.166 -5.66699 44.499 -17s18.5 -25.333 18.5 -42s-6.16699 -30.667 -18.5 -42s-27.166 -17 -44.499 -17s-32.166 5.66699 -44.499 17
s-18.5 25.333 -18.5 42z" />
    <glyph glyph-name="Zcaron" unicode="&#x17d;" horiz-adv-x="573" 
d="M42 81l364 520h-350v88h468v-81l-366 -520h366v-88h-482v81zM282 843l75 87h82l-110 -154h-93l-110 154h82z" />
    <glyph glyph-name="zcaron" unicode="&#x17e;" horiz-adv-x="502" 
d="M453 392v75h-395v-87h262l-278 -305v-75h411v87h-283zM247 621l75 87h82l-110 -154h-93l-110 154h82z" />
    <glyph glyph-name="longs" unicode="&#x17f;" horiz-adv-x="305" 
d="M347 721v-87.001h-51c-59.333 0 -88.333 -40 -87 -120v-514h-92v390h-90v77h90v47c0 64.667 14.667 115.334 44 152.001s74.333 55 135 55h51z" />
    <glyph glyph-name="florin" unicode="&#x192;" horiz-adv-x="617" 
d="M210 16l79.999 366.999h-86l18 84h86l9 40c26 116.667 83.667 181.334 173 194.001c14 2.66699 33.667 3.33398 59 2.00098l37 -2l-17 -83h-58c-10.667 0 -20.667 -1.5 -30 -4.5s-17.166 -6.5 -23.499 -10.5s-12.333 -10 -18 -18s-10 -14.833 -13 -20.5
s-6.33301 -14 -10 -25s-6 -19.167 -7 -24.5s-2.83301 -13.833 -5.5 -25.5s-4.33398 -19.167 -5.00098 -22.5h108l-17 -84h-109l-74 -341c-13.333 -64.667 -33.666 -116.5 -60.999 -155.5s-67 -62.5 -119 -70.5c-19.333 -2.66699 -51.666 -2.33398 -96.999 0.999023l17 82h59
c17.333 0 32.166 3.33301 44.499 10s22.333 16.5 30 29.5s13.5 25.167 17.5 36.5s8 25 12 41z" />
    <glyph glyph-name="Aringacute" unicode="&#x1fa;" horiz-adv-x="645" 
d="M177 175h292l67 -175h98l-261 689h-100l-262 -689h99zM476 1091l-101.999 -132c36 -19.333 54 -50 54 -92c0 -29.333 -10.333 -54 -31 -74s-46 -30 -76 -30c-28.667 0 -53.167 10.167 -73.5 30.5s-30.5 44.833 -30.5 73.5c0 24 6.66699 45.167 20 63.5
s30.666 30.833 51.999 37.5l78 123h109zM437.001 259h-228l114 306zM270.001 867c0 -14 4.99805 -26 14.998 -36s22 -15 36 -15c14.667 0 27.334 5 38.001 15s16 22 16 36c0 14.667 -5.16699 27.167 -15.5 37.5s-23.166 15.5 -38.499 15.5c-14 0 -26 -5.16699 -36 -15.5
s-15 -22.833 -15 -37.5z" />
    <glyph glyph-name="aringacute" unicode="&#x1fb;" horiz-adv-x="612" 
d="M446 0v71.999c-15.333 -26 -38 -46.167 -68 -60.5s-62 -21.5 -96 -21.5c-66 0 -122 22.667 -168 68s-69 104 -69 176c0 72.667 23 131.334 69 176.001s102 67 168 67c34 0 66.167 -7 96.5 -21s52.833 -33.667 67.5 -59v70h90v-467h-90zM445 234.999
c0 47.333 -15.667 84.665 -47 111.998s-67.333 41 -108 41c-43.333 0 -79.5 -14.167 -108.5 -42.5s-43.5 -65.166 -43.5 -110.499s14.667 -82.666 44 -111.999s65.333 -44 108 -44c43.333 0 80 14 110 42s45 66 45 114zM433 860.998l-101.999 -132c36 -19.333 54 -50 54 -92
c0 -29.333 -10.333 -54 -31 -74s-46 -30 -76 -30c-29.333 0 -54 10.167 -74 30.5s-30 44.833 -30 73.5c0 24 6.66699 45.167 20 63.5s30.666 30.833 51.999 37.5l78 123h109zM227.001 636.998c0 -14 4.99805 -26 14.998 -36s22 -15 36 -15c14.667 0 27.334 5 38.001 15
s16 22 16 36c0 14.667 -5.16699 27.167 -15.5 37.5s-23.166 15.5 -38.499 15.5c-14 0 -26 -5.16699 -36 -15.5s-15 -22.833 -15 -37.5z" />
    <glyph glyph-name="AEacute" unicode="&#x1fc;" horiz-adv-x="934" 
d="M109 0l111 173h245v-173h416v92h-324v200h274v92h-274v213h313v92h-435l-435 -689h109zM465 262h-190l190 298v-298zM666 930l-119 -154h-87l97 154h109z" />
    <glyph glyph-name="aeacute" unicode="&#x1fd;" horiz-adv-x="957" 
d="M536 429l-0.00195312 38.002h-90v-70c-14.667 25.333 -37.167 45 -67.5 59s-62.5 21 -96.5 21c-66 0 -122 -22.333 -168 -67s-69 -103.334 -69 -176.001c0 -72 23 -130.667 69 -176s102 -68 168 -68c34 0 66 7.16699 96 21.5s52.667 34.5 68 60.5v-72h90v39
c40.667 -32.667 90.334 -49 149.001 -49c46.667 0 89.334 10.667 128.001 32s67.667 52 87 92l-38 14.5l-40 15.5c-12.667 -22.667 -31 -40.334 -55 -53.001s-50.333 -19 -79 -19c-40 0 -73.833 11.5 -101.5 34.5s-44.167 53.833 -49.5 92.5h379
c0.666992 6.66699 1 18.667 1 36c0 72.667 -21.833 131.167 -65.5 175.5s-99.167 66.5 -166.5 66.5c-58 0 -107.667 -16 -149 -48zM444.998 235.002c0 -48 -15 -85.999 -45 -113.999s-66.667 -42 -110 -42c-42.667 0 -78.667 14.667 -108 44s-44 66.666 -44 111.999
s14.5 82.166 43.5 110.499s65.167 42.5 108.5 42.5c40.667 0 76.667 -13.667 108 -41s47 -64.666 47 -111.999zM536.998 270.003c5.33301 38.667 21.5 69.167 48.5 91.5s60.167 33.5 99.5 33.5c38 0 69.833 -11.167 95.5 -33.5s41.167 -52.833 46.5 -91.5h-290z
M625.998 708.003l-119 -154h-87l97 154h109z" />
    <glyph glyph-name="Oslashacute" unicode="&#x1fe;" horiz-adv-x="795" 
d="M553 930l-119 -154h-87l97 154h109zM98 -16l80 82.001c62 -50.667 134.667 -76 218 -76c98 0 180.833 34.333 248.5 103s101.5 152 101.5 250c0 84.667 -26.667 160 -80 226l80 82l-47 46l-79 -81c-64.667 54 -139.334 81 -224.001 81
c-97.333 0 -179.666 -34.333 -246.999 -103s-101 -152.334 -101 -251.001c0 -87.333 27.667 -164 83 -230l-80 -82zM141 343.001c0 73.333 24.668 135.667 74.001 187s109.666 77 180.999 77c60 0 113.333 -19 160 -57l-361 -371c-36 47.333 -54 102 -54 164z
M396.001 80.002c-58.667 0 -110 17.333 -154 52l359 370c34 -46.667 51 -99.667 51 -159c0 -73.333 -24.667 -135.5 -74 -186.5s-110 -76.5 -182 -76.5z" />
    <glyph glyph-name="oslashacute" unicode="&#x1ff;" horiz-adv-x="577" 
d="M435 708l-119 -154h-87l97 154h109zM87 -25l57 57.999c40.667 -28.667 88.667 -43 144 -43c68 0 125.833 22.833 173.5 68.5s71.5 104.5 71.5 176.5c0 56.667 -16 106.334 -48 149.001l50 51l-47 46l-50 -51c-44 31.333 -94 47 -150 47
c-68.667 0 -126.5 -22.333 -173.5 -67s-70.5 -103 -70.5 -175c0 -60.667 17.333 -112.667 52 -156l-56 -57zM288 387.999c32 0 60.667 -8 86 -24l-215 -219c-16.667 24.667 -25 54.667 -25 90c0 46 14.833 83 44.5 111s66.167 42 109.5 42zM288 77.999
c-30 0 -56.667 7 -80 21l212 218c14.667 -26 22 -53.333 22 -82c0 -46.667 -14.833 -84.5 -44.5 -113.5s-66.167 -43.5 -109.5 -43.5z" />
    <glyph glyph-name="Scommaaccent" unicode="&#x218;" horiz-adv-x="573" 
d="M145 199c0.666992 -31.333 15.002 -59.498 43.002 -84.498s63 -37.5 105 -37.5c41.333 0 73.666 9.66699 96.999 29s37.333 43.333 42 72c4.66699 37.333 -6.66602 66 -33.999 86c-20.667 17.333 -48.334 29.666 -83.001 36.999l-89 22c-112 28.667 -168 88.667 -168 180
c0 56.667 22 103.167 66 139.5s96.333 54.5 157 54.5c64 0 117 -18.5 159 -55.5s63 -85.833 63 -146.5h-93c0 34 -12.167 61.333 -36.5 82s-55.5 31 -93.5 31c-34.667 0 -64.834 -9.66699 -90.501 -29s-38.5 -44.333 -38.5 -75c0 -48 32.667 -80 98 -96l90 -22
c65.333 -16.667 114 -43.334 146 -80.001s44.667 -82 38 -136c-6 -52 -29.5 -95 -70.5 -129s-94.167 -51 -159.5 -51c-68.667 0 -126 20.833 -172 62.5s-69 90.5 -69 146.5h93zM265.002 -249.998l-58 19c20.667 28 34.5 54 41.5 78s8.5 56 4.5 96h90
c0.666992 -86 -25.333 -150.333 -78 -193z" />
    <glyph glyph-name="scommaaccent" unicode="&#x219;" horiz-adv-x="439" 
d="M182 206c-44.667 12 -77.666 30.0049 -98.999 54.0049s-30 56.667 -26 98c3.33301 34 20.666 62.333 51.999 85s68 34 110 34c43.333 0 80.166 -10.833 110.499 -32.5s47.5 -54.834 51.5 -99.501h-87c-2.66699 16.667 -10.834 29.667 -24.501 39s-29.834 14 -48.501 14
c-17.333 0 -32.5 -3.83301 -45.5 -11.5s-21.167 -17.834 -24.5 -30.501c-4 -14.667 -3.66699 -27 1 -37c7.33301 -15.333 25.666 -27.333 54.999 -36l69 -17c80.667 -20 121 -65.333 121 -136c0 -42 -17.5 -75.833 -52.5 -101.5s-77.833 -38.5 -128.5 -38.5
c-44.667 0 -84.5 13.667 -119.5 41s-53.167 63.666 -54.5 108.999h83c4 -24.667 16.667 -42.334 38 -53.001c20.667 -12.667 45.334 -18 74.001 -16c21.333 1.33301 38.333 7.66602 51 18.999s19.334 25.333 20.001 42c0.666992 16 -4.66602 28.667 -15.999 38
s-26.666 16.333 -45.999 21zM195.001 -249.995l-58 19c20.667 28 34.5 54 41.5 78s8.5 56 4.5 96h90c0.666992 -86 -25.333 -150.333 -78 -193z" />
    <glyph glyph-name="circumflex" unicode="&#x2c6;" horiz-adv-x="523" 
d="M336 554l-75 87l-74 -87h-82l110 154h93l110 -154h-82z" />
    <glyph glyph-name="caron" unicode="&#x2c7;" horiz-adv-x="523" 
d="M261 621l75 87h82l-110 -154h-93l-110 154h82z" />
    <glyph glyph-name="breve" unicode="&#x2d8;" horiz-adv-x="481" 
d="M110 683h74c0 -17.333 5 -31.5 15 -42.5s23.667 -16.5 41 -16.5c16.667 0 30 6 40 18s15 25.667 15 41h76c0 -39.333 -11.833 -70.5 -35.5 -93.5s-55.5 -34.5 -95.5 -34.5c-43.333 0 -75.833 12.333 -97.5 37s-32.5 55 -32.5 91z" />
    <glyph glyph-name="dotaccent" unicode="&#x2d9;" horiz-adv-x="526" 
d="M200 639c0 16.667 6.16699 30.667 18.5 42s27.166 17 44.499 17s32.166 -5.66699 44.499 -17s18.5 -25.333 18.5 -42s-6.16699 -30.667 -18.5 -42s-27.166 -17 -44.499 -17s-32.166 5.66699 -44.499 17s-18.5 25.333 -18.5 42z" />
    <glyph glyph-name="ring" unicode="&#x2da;" horiz-adv-x="531" 
d="M160 645c0 30 10 55.167 30 75.5s44.667 30.5 74 30.5c30 0 55.333 -10.167 76 -30.5s31 -45.5 31 -75.5c0 -29.333 -10.333 -54 -31 -74s-46 -30 -76 -30c-29.333 0 -54 10.167 -74 30.5s-30 44.833 -30 73.5zM213 645c0 -14 4.99805 -26 14.998 -36s22 -15 36 -15
c14.667 0 27.334 5 38.001 15s16 22 16 36c0 14.667 -5.16699 27.167 -15.5 37.5s-23.166 15.5 -38.499 15.5c-14 0 -26 -5.16699 -36 -15.5s-15 -22.833 -15 -37.5z" />
    <glyph glyph-name="ogonek" unicode="&#x2db;" horiz-adv-x="522" 
d="M295 -117l3 21.999l64 4c0 -17.333 -3.33301 -33.666 -10 -48.999c-8.66699 -20 -21 -35.667 -37 -47s-33.667 -17 -53 -17c-14 0 -27 2.66699 -39 8c-20 8.66699 -35.5 21.167 -46.5 37.5s-16.5 34.5 -16.5 54.5c0 15.333 2.66699 29.333 8 42l51 95h49l-43 -120
c-4 -10.667 -4.16699 -21 -0.5 -31s10.5 -17.333 20.5 -22c23.333 -6.66699 40 1 50 23z" />
    <glyph glyph-name="tilde" unicode="&#x2dc;" horiz-adv-x="426" 
d="M168 610c-6 0 -11.834 -3.66797 -17.501 -11.001s-8.83398 -18.333 -9.50098 -33h-61c2 40.667 11.5 70.334 28.5 89.001s36.833 28 59.5 28c16.667 0 36 -8 58 -24c14 -11.333 24.333 -17 31 -17s12.834 3.16699 18.501 9.5s8.83398 16.833 9.50098 31.5h61
c-2 -40 -11.667 -69 -29 -87s-37.333 -27 -60 -27c-16.667 0 -35.667 8.33301 -57 25c-16 10.667 -26.667 16 -32 16z" />
    <glyph glyph-name="hungarumlaut" unicode="&#x2dd;" horiz-adv-x="476" 
d="M252 708l-89 -154h-83l80 154h92zM396 708l-102 -154h-81l89 154h94z" />
    <glyph glyph-name="Wgrave" unicode="&#x1e80;" horiz-adv-x="901" 
d="M786 689h100l-233 -689h-81l-122 430l-121 -430h-81l-233 689h100l173 -539l127 446h71l127 -446zM409 776l-119 154h109l97 -154h-87z" />
    <glyph glyph-name="wgrave" unicode="&#x1e81;" horiz-adv-x="790" 
d="M596 0h-75l-127 343l-123 -343h-74l-178 467h97l117 -327l117 327h88l117 -327l117 327h97zM353 554l-119 154h109l97 -154h-87z" />
    <glyph glyph-name="Wacute" unicode="&#x1e82;" horiz-adv-x="901" 
d="M886 689h-100l-173 -539l-127 446h-71l-127 -446l-173 539h-100l233 -689h81l121 430l122 -430h81zM610 930l-119 -154h-87l97 154h109z" />
    <glyph glyph-name="wacute" unicode="&#x1e83;" horiz-adv-x="790" 
d="M521 0h75l173 467h-97l-117 -327l-117 327h-88l-117 -327l-117 327h-97l178 -467h74l123 343zM555 708l-119 -154h-87l97 154h109z" />
    <glyph glyph-name="Wdieresis" unicode="&#x1e84;" horiz-adv-x="901" 
d="M886 689h-100l-173 -539l-127 446h-71l-127 -446l-173 539h-100l233 -689h81l121 430l122 -430h81zM304 852c0 16.667 6 30.667 18 42s26.667 17 44 17c16.667 0 31 -5.66699 43 -17s18 -25.333 18 -42s-6 -30.667 -18 -42s-26.333 -17 -43 -17
c-17.333 0 -32 5.66699 -44 17s-18 25.333 -18 42zM473 852c0 16.667 6 30.667 18 42s26.667 17 44 17s32 -5.66699 44 -17s18 -25.333 18 -42s-6 -30.667 -18 -42s-26.667 -17 -44 -17s-32 5.66699 -44 17s-18 25.333 -18 42z" />
    <glyph glyph-name="wdieresis" unicode="&#x1e85;" horiz-adv-x="790" 
d="M521 0h75l173 467h-97l-117 -327l-117 327h-88l-117 -327l-117 327h-97l178 -467h74l123 343zM247 630c0 16.667 6 30.667 18 42s26.667 17 44 17c16.667 0 31 -5.66699 43 -17s18 -25.333 18 -42s-6 -30.667 -18 -42s-26.333 -17 -43 -17c-17.333 0 -32 5.66699 -44 17
s-18 25.333 -18 42zM416 630c0 16.667 6 30.667 18 42s26.667 17 44 17s32 -5.66699 44 -17s18 -25.333 18 -42s-6 -30.667 -18 -42s-26.667 -17 -44 -17s-32 5.66699 -44 17s-18 25.333 -18 42z" />
    <glyph glyph-name="Ygrave" unicode="&#x1ef2;" horiz-adv-x="628" 
d="M362 0h-96v317l-261 372h111l198 -279l200 279h112l-264 -372v-317zM277 776l-119 154h109l97 -154h-87z" />
    <glyph glyph-name="ygrave" unicode="&#x1ef3;" horiz-adv-x="509" 
d="M202 -227h-95l98 241l-187 453h97l140 -338l140 338h97zM243 554l-119 154h109l97 -154h-87z" />
    <glyph glyph-name="thinspace" unicode="&#x2009;" horiz-adv-x="14" 
 />
    <glyph glyph-name="endash" unicode="&#x2013;" horiz-adv-x="595" 
d="M71 273h453v-78h-453v78z" />
    <glyph glyph-name="emdash" unicode="&#x2014;" horiz-adv-x="801" 
d="M71 273h659v-78h-659v78z" />
    <glyph glyph-name="quoteleft" unicode="&#x2018;" horiz-adv-x="248" 
d="M153 688l53 -19c-42.667 -60.667 -63.667 -131 -63 -211h-83c4 53.333 15 100.5 33 141.5s38 70.5 60 88.5z" />
    <glyph glyph-name="quoteright" unicode="&#x2019;" horiz-adv-x="245" 
d="M103 454l-53 19c42.667 60.667 63.667 131 63 211h83c-4 -53.333 -15 -100.5 -33 -141.5s-38 -70.5 -60 -88.5z" />
    <glyph glyph-name="quotesinglbase" unicode="&#x201a;" horiz-adv-x="242" 
d="M81 -65l-53 19c42.667 60.667 63.667 131 63 211h83c-4 -53.333 -15 -100.5 -33 -141.5s-38 -70.5 -60 -88.5z" />
    <glyph glyph-name="quotedblleft" unicode="&#x201c;" horiz-adv-x="397" 
d="M153 689l53 -19c-42.667 -60.667 -63.667 -131 -63 -211h-83c4 53.333 15 100.5 33 141.5s38 70.5 60 88.5zM302 689l53 -19c-42.667 -60.667 -63.667 -131 -63 -211h-83c4 53.333 15 100.5 33 141.5s38 70.5 60 88.5z" />
    <glyph glyph-name="quotedblright" unicode="&#x201d;" horiz-adv-x="395" 
d="M253 459l-53 19c42.667 60.667 63.667 131 63 211h83c-4 -53.333 -15 -100.5 -33 -141.5s-38 -70.5 -60 -88.5zM104 459l-53 19c42.667 60.667 63.667 131 63 211h83c-4 -53.333 -15 -100.5 -33 -141.5s-38 -70.5 -60 -88.5z" />
    <glyph glyph-name="quotedblbase" unicode="&#x201e;" horiz-adv-x="391" 
d="M230 -65l-53 19c42.667 60.667 63.667 131 63 211h83c-4 -53.333 -15 -100.5 -33 -141.5s-38 -70.5 -60 -88.5zM81 -65l-53 19c42.667 60.667 63.667 131 63 211h83c-4 -53.333 -15 -100.5 -33 -141.5s-38 -70.5 -60 -88.5z" />
    <glyph glyph-name="dagger" unicode="&#x2020;" horiz-adv-x="414" 
d="M251 497h121v-90h-121v-528h-89v528h-120v90h120v179h89v-179z" />
    <glyph glyph-name="daggerdbl" unicode="&#x2021;" horiz-adv-x="448" 
d="M268 497h121v-90h-121v-235h121v-89h-121v-204h-89v204h-120v89h120v235h-120v90h120v179h89v-179z" />
    <glyph glyph-name="bullet" unicode="&#x2022;" horiz-adv-x="461" 
d="M81 239c0 40.667 14.667 74.5 44 101.5s64.666 40.5 105.999 40.5s76.5 -13.5 105.5 -40.5s43.5 -60.833 43.5 -101.5s-14.5 -74.667 -43.5 -102s-64.167 -41 -105.5 -41s-76.666 13.667 -105.999 41s-44 61.333 -44 102z" />
    <glyph glyph-name="ellipsis" unicode="&#x2026;" horiz-adv-x="718" 
d="M67 52c0 18 6.33301 33 19 45s28 18 46 18s33.5 -6 46.5 -18s19.5 -27 19.5 -45s-6.5 -32.833 -19.5 -44.5s-28.5 -17.5 -46.5 -17.5s-33.333 5.83301 -46 17.5s-19 26.5 -19 44.5zM293 52c0 18 6.33301 33 19 45s28 18 46 18s33.5 -6 46.5 -18s19.5 -27 19.5 -45
s-6.5 -32.833 -19.5 -44.5s-28.5 -17.5 -46.5 -17.5s-33.333 5.83301 -46 17.5s-19 26.5 -19 44.5zM519 52c0 18 6.33301 33 19 45s28 18 46 18s33.5 -6 46.5 -18s19.5 -27 19.5 -45s-6.5 -32.833 -19.5 -44.5s-28.5 -17.5 -46.5 -17.5s-33.333 5.83301 -46 17.5
s-19 26.5 -19 44.5z" />
    <glyph glyph-name="perthousand" unicode="&#x2030;" horiz-adv-x="991" 
d="M533 673l-329 -673h-66l329 673h66zM39 539c0 37.333 12.833 69 38.5 95s57.167 39 94.5 39s69 -13.167 95 -39.5s39 -57.833 39 -94.5c0 -37.333 -13 -68.833 -39 -94.5s-57.667 -38.5 -95 -38.5s-68.833 12.833 -94.5 38.5s-38.5 57.167 -38.5 94.5zM109 539
c0 -18 6 -33 18 -45s27 -18 45 -18s33.167 6 45.5 18s18.5 27 18.5 45c0 17.333 -6.33301 32.333 -19 45s-27.667 19 -45 19c-18 0 -33 -6.16699 -45 -18.5s-18 -27.5 -18 -45.5zM379 123c0 37.333 12.833 69 38.5 95s57.167 39 94.5 39s69 -13.167 95 -39.5
s39 -57.833 39 -94.5c0 -37.333 -13 -68.833 -39 -94.5s-57.667 -38.5 -95 -38.5s-68.833 12.833 -94.5 38.5s-38.5 57.167 -38.5 94.5zM449 123c0 -18 6 -33 18 -45s27 -18 45 -18s33.167 6 45.5 18s18.5 27 18.5 45c0 17.333 -6.33301 32.333 -19 45s-27.667 19 -45 19
c-18 0 -33 -6.16699 -45 -18.5s-18 -27.5 -18 -45.5zM688 123c0 37.333 12.833 69 38.5 95s57.167 39 94.5 39c36.667 0 68.167 -13.167 94.5 -39.5s39.5 -57.833 39.5 -94.5c0 -37.333 -13 -68.833 -39 -94.5s-57.667 -38.5 -95 -38.5s-68.833 12.833 -94.5 38.5
s-38.5 57.167 -38.5 94.5zM758 123c0 -18 6 -33 18 -45s27 -18 45 -18s33.167 6 45.5 18s18.5 27 18.5 45c0 17.333 -6.33301 32.333 -19 45s-27.667 19 -45 19c-18 0 -33 -6.16699 -45 -18.5s-18 -27.5 -18 -45.5z" />
    <glyph glyph-name="guilsinglleft" unicode="&#x2039;" horiz-adv-x="313" 
d="M46 233l138 207h79l-138 -207l138 -207h-79z" />
    <glyph glyph-name="guilsinglright" unicode="&#x203a;" horiz-adv-x="313" 
d="M267 233l-138 -207h-79l138 207l-138 207h79z" />
    <glyph glyph-name="fraction" unicode="&#x2044;" horiz-adv-x="180" 
d="M346 670l-450 -680h-68l451 680h67z" />
    <glyph glyph-name="zerosuperior" unicode="&#x2070;" horiz-adv-x="364" 
d="M39 625c0 30 2.17285 56.5 6.50586 79.5s11.666 44.167 21.999 63.5s25.166 34.166 44.499 44.499s42.666 15.5 69.999 15.5s50.666 -5.16699 69.999 -15.5s34.166 -25.166 44.499 -44.499s17.666 -40.5 21.999 -63.5s6.5 -49.5 6.5 -79.5
c0 -133.333 -47.667 -200 -143 -200s-143 66.667 -143 200zM98.0059 625c0 -94.667 28 -142 84 -142s84 47.333 84 142c0 96 -28 144 -84 144s-84 -48 -84 -144z" />
    <glyph glyph-name="foursuperior" unicode="&#x2074;" horiz-adv-x="359" 
d="M276 509v-79h-59v79h-203l218 314h44v-258h56v-56h-56zM116 565h101v150z" />
    <glyph glyph-name="fivesuperior" unicode="&#x2075;" horiz-adv-x="340" 
d="M26 507l48.999 35.002c7.33301 -18.667 19.166 -33.334 35.499 -44.001s33.833 -16 52.5 -16c26 0 46.833 7.16699 62.5 21.5s23.5 32.166 23.5 53.499c0 22 -7.66699 38.833 -23 50.5s-32.666 17.5 -51.999 17.5c-30.667 0 -67.667 -11 -111 -33l-18 23l35 207h201v-56
h-152c-2 -11.333 -5 -27.333 -9 -48s-7 -36.667 -9 -48c20 8.66699 41 13 63 13c37.333 0 68.833 -11 94.5 -33s38.5 -53 38.5 -93s-13.167 -72.167 -39.5 -96.5s-61.166 -36.5 -104.499 -36.5c-28 0 -54.667 7.33301 -80 22s-44.333 35 -57 61z" />
    <glyph glyph-name="sixsuperior" unicode="&#x2076;" horiz-adv-x="338" 
d="M300 746l-53.0039 -21.9951c-14.667 30.667 -36 46 -64 46c-25.333 0 -45.833 -12.333 -61.5 -37s-23.167 -56.334 -22.5 -95.001c16 31.333 42.667 47 80 47c36 0 65.833 -13.667 89.5 -41s34.834 -59.333 33.501 -96c-2 -36 -15.667 -66.167 -41 -90.5
s-56 -35.833 -92 -34.5c-35.333 1.33301 -64.666 14 -87.999 38s-36.666 56.333 -39.999 97c0 19.333 -0.333008 40.666 -1 63.999s2 47.166 8 71.499s13.5 46.5 22.5 66.5s23.333 36.167 43 48.5s42.834 18.166 69.501 17.499c55.333 -2.66699 94.333 -29.334 117 -80.001z
M101.996 557.005c0 -20.667 6.83496 -38 20.502 -52s30.167 -21.333 49.5 -22s35.666 5.5 48.999 18.5s20.666 29.5 21.999 49.5c0.666992 20.667 -5.16602 38 -17.499 52s-28.166 21.333 -47.499 22c-20.667 0.666992 -38.334 -5.5 -53.001 -18.5
s-22.334 -29.5 -23.001 -49.5z" />
    <glyph glyph-name="sevensuperior" unicode="&#x2077;" horiz-adv-x="327" 
d="M314 823l-215 -393h-69l183 334h-174v59h275z" />
    <glyph glyph-name="eightsuperior" unicode="&#x2078;" horiz-adv-x="342" 
d="M65 725c0 28.667 10.166 53 30.499 73s45.5 30 75.5 30c30.667 0 56.334 -10 77.001 -30s31 -44.333 31 -73c0 -24 -9.66699 -46.333 -29 -67c38 -24.667 57 -59.667 57 -105c0 -36 -13 -66.333 -39 -91s-58.333 -37 -97 -37s-71 12.333 -97 37s-39 55 -39 91
c0 46 18.667 81 56 105c-17.333 18.667 -26 41 -26 67zM93.999 553c0 -19.333 7.33301 -35.834 22 -49.501s33 -20.5 55 -20.5c21.333 0 39.5 6.83301 54.5 20.5s22.5 30.167 22.5 49.5c0 20 -7.5 37.5 -22.5 52.5s-33.167 22.5 -54.5 22.5h-4
c-20.667 0 -38 -7.66699 -52 -23s-21 -32.666 -21 -51.999zM123.999 724.999c0 -12 4.16602 -22.667 12.499 -32s18.833 -14.333 31.5 -15h5c13.333 0.666992 24.333 5.66699 33 15s13 20 13 32s-4.66699 22.333 -14 31s-20.666 13 -33.999 13s-24.5 -4.33301 -33.5 -13
s-13.5 -19 -13.5 -31z" />
    <glyph glyph-name="ninesuperior" unicode="&#x2079;" horiz-adv-x="338" 
d="M38 504l53.0039 21.9951c14.667 -30.667 36 -46 64 -46c25.333 0 45.833 12.333 61.5 37s23.167 56.334 22.5 95.001c-16 -31.333 -42.667 -47 -80 -47c-36 0 -65.833 13.667 -89.5 41s-34.834 59.333 -33.501 96c2 36 15.667 66.167 41 90.5s56 35.833 92 34.5
c35.333 -1.33301 64.666 -14 87.999 -38s36.666 -56.333 39.999 -97c0 -19.333 0.333008 -40.666 1 -63.999s-2 -47.166 -8 -71.499s-13.5 -46.5 -22.5 -66.5s-23.333 -36.167 -43 -48.5s-42.834 -18.166 -69.501 -17.499c-55.333 2.66699 -94.333 29.334 -117 80.001z
M236.004 692.995c0 20.667 -6.83496 38 -20.502 52s-30.167 21.333 -49.5 22s-35.666 -5.5 -48.999 -18.5s-20.666 -29.5 -21.999 -49.5c-0.666992 -20.667 5.16602 -38 17.499 -52s28.166 -21.333 47.499 -22c20.667 -0.666992 38.334 5.5 53.001 18.5
s22.334 29.5 23.001 49.5z" />
    <glyph glyph-name="zeroinferior" unicode="&#x2080;" horiz-adv-x="364" 
d="M39 49c0 30 2.17285 56.5 6.50586 79.5s11.666 44.167 21.999 63.5s25.166 34.166 44.499 44.499s42.666 15.5 69.999 15.5s50.666 -5.16699 69.999 -15.5s34.166 -25.166 44.499 -44.499s17.666 -40.5 21.999 -63.5s6.5 -49.5 6.5 -79.5
c0 -133.333 -47.667 -200 -143 -200s-143 66.667 -143 200zM98.0059 49c0 -94.667 28 -142 84 -142s84 47.333 84 142c0 96 -28 144 -84 144s-84 -48 -84 -144z" />
    <glyph glyph-name="oneinferior" unicode="&#x2081;" horiz-adv-x="207" 
d="M93 -146v305l-68 -35v57l128 70v-397h-60z" />
    <glyph glyph-name="twoinferior" unicode="&#x2082;" horiz-adv-x="325" 
d="M39 -118l158.003 190.999c18 22.667 27 43 27 61s-6.33301 32.667 -19 44s-28.334 17 -47.001 17c-17.333 0 -32.833 -6 -46.5 -18s-21.834 -27.667 -24.501 -47l-53 14c4.66699 32.667 18.667 58.834 42 78.501s50.666 29.5 81.999 29.5c35.333 0 64.833 -11 88.5 -33
s35.5 -50.333 35.5 -85c0 -36 -14.333 -70 -43 -102l-101 -119h145v-59h-244v28z" />
    <glyph glyph-name="threeinferior" unicode="&#x2083;" horiz-adv-x="320" 
d="M87 162l-40.0029 32c11.333 18.667 27 33.167 47 43.5s42 14.833 66 13.5c32 -1.33301 58.333 -12.666 79 -33.999s30.334 -46 29.001 -74c0 -8 -1 -16 -3 -24c-7.33301 -24 -21.666 -42 -42.999 -54c19.333 -7.33301 35 -21.333 47 -42s17 -41.667 15 -63
c-2.66699 -33.333 -18.167 -60.833 -46.5 -82.5s-60.5 -31.167 -96.5 -28.5c-25.333 2 -48.5 10.5 -69.5 25.5s-36.833 33.833 -47.5 56.5l48 26c6 -14 15.833 -26.333 29.5 -37s28.167 -16.334 43.5 -17.001h-1c22 -1.33301 41.5 4.16699 58.5 16.5
s25.833 28.166 26.5 47.499c0.666992 18.667 -6.5 35 -21.5 49s-32.833 21 -53.5 21h-45v52h45c13.333 0 25 4.33301 35 13s16.333 19.334 19 32.001c2.66699 16.667 0.333984 30 -6.99902 40c-8.66699 14 -23.667 21.667 -45 23c-28.667 2.66699 -51.667 -9 -69 -35z" />
    <glyph glyph-name="fourinferior" unicode="&#x2084;" horiz-adv-x="360" 
d="M277 -67v-79h-59v79h-203l218 314h44v-258h56v-56h-56zM117 -11h101v150z" />
    <glyph glyph-name="fiveinferior" unicode="&#x2085;" horiz-adv-x="338" 
d="M26 -69l48.999 35.002c7.33301 -18.667 19.166 -33.334 35.499 -44.001s33.833 -16 52.5 -16c26 0 46.833 7.16699 62.5 21.5s23.5 32.166 23.5 53.499c0 22 -7.66699 38.833 -23 50.5s-32.666 17.5 -51.999 17.5c-30.667 0 -67.667 -11 -111 -33l-18 23l35 207h201v-56
h-152c-2 -11.333 -5 -27.333 -9 -48s-7 -36.667 -9 -48c20 8.66699 41 13 63 13c37.333 0 68.833 -11 94.5 -33s38.5 -53 38.5 -93s-13.167 -72.167 -39.5 -96.5s-61.166 -36.5 -104.499 -36.5c-28 0 -54.667 7.33301 -80 22s-44.333 35 -57 61z" />
    <glyph glyph-name="sixinferior" unicode="&#x2086;" horiz-adv-x="337" 
d="M300 170l-53.0039 -21.9951c-14.667 30.667 -36 46 -64 46c-25.333 0 -45.833 -12.333 -61.5 -37s-23.167 -56.334 -22.5 -95.001c16 31.333 42.667 47 80 47c36 0 65.833 -13.667 89.5 -41s34.834 -59.333 33.501 -96c-2 -36 -15.667 -66.167 -41 -90.5
s-56 -35.833 -92 -34.5c-35.333 1.33301 -64.666 14 -87.999 38s-36.666 56.333 -39.999 97c0 19.333 -0.333008 40.666 -1 63.999s2 47.166 8 71.499s13.5 46.5 22.5 66.5s23.333 36.167 43 48.5s42.834 18.166 69.501 17.499c55.333 -2.66699 94.333 -29.334 117 -80.001z
M101.996 -18.9951c0 -20.667 6.83496 -38 20.502 -52s30.167 -21.333 49.5 -22s35.666 5.5 48.999 18.5s20.666 29.5 21.999 49.5c0.666992 20.667 -5.16602 38 -17.499 52s-28.166 21.333 -47.499 22c-20.667 0.666992 -38.334 -5.5 -53.001 -18.5
s-22.334 -29.5 -23.001 -49.5z" />
    <glyph glyph-name="seveninferior" unicode="&#x2087;" horiz-adv-x="320" 
d="M315 247l-215 -393h-69l183 334h-174v59h275z" />
    <glyph glyph-name="eightinferior" unicode="&#x2088;" horiz-adv-x="342" 
d="M65 149c0 28.667 10.166 53 30.499 73s45.5 30 75.5 30c30.667 0 56.334 -10 77.001 -30s31 -44.333 31 -73c0 -24 -9.66699 -46.333 -29 -67c38 -24.667 57 -59.667 57 -105c0 -36 -13 -66.333 -39 -91s-58.333 -37 -97 -37s-71 12.333 -97 37s-39 55 -39 91
c0 46 18.667 81 56 105c-17.333 18.667 -26 41 -26 67zM93.999 -23c0 -19.333 7.33301 -35.834 22 -49.501s33 -20.5 55 -20.5c21.333 0 39.5 6.83301 54.5 20.5s22.5 30.167 22.5 49.5c0 20 -7.5 37.5 -22.5 52.5s-33.167 22.5 -54.5 22.5h-4
c-20.667 0 -38 -7.66699 -52 -23s-21 -32.666 -21 -51.999zM123.999 148.999c0 -12 4.16602 -22.667 12.499 -32s18.833 -14.333 31.5 -15h5c13.333 0.666992 24.333 5.66699 33 15s13 20 13 32s-4.66699 22.333 -14 31s-20.666 13 -33.999 13s-24.5 -4.33301 -33.5 -13
s-13.5 -19 -13.5 -31z" />
    <glyph glyph-name="nineinferior" unicode="&#x2089;" horiz-adv-x="338" 
d="M39 -72l53.0039 21.9951c14.667 -30.667 36 -46 64 -46c25.333 0 45.833 12.333 61.5 37s23.167 56.334 22.5 95.001c-16 -31.333 -42.667 -47 -80 -47c-36 0 -65.833 13.667 -89.5 41s-34.834 59.333 -33.501 96c2 36 15.667 66.167 41 90.5s56 35.833 92 34.5
c35.333 -1.33301 64.666 -14 87.999 -38s36.666 -56.333 39.999 -97c0 -19.333 0.333008 -40.666 1 -63.999s-2 -47.166 -8 -71.499s-13.5 -46.5 -22.5 -66.5s-23.333 -36.167 -43 -48.5s-42.834 -18.166 -69.501 -17.499c-55.333 2.66699 -94.333 29.334 -117 80.001z
M237.004 116.995c0 20.667 -6.83496 38 -20.502 52s-30.167 21.333 -49.5 22s-35.666 -5.5 -48.999 -18.5s-20.666 -29.5 -21.999 -49.5c-0.666992 -20.667 5.16602 -38 17.499 -52s28.166 -21.333 47.499 -22c20.667 -0.666992 38.334 5.5 53.001 18.5
s22.334 29.5 23.001 49.5z" />
    <glyph glyph-name="colonmonetary" unicode="&#x20a1;" horiz-adv-x="702" 
d="M311 0l-39 -108.999l-47 17l38 108c-28 11.333 -53 25.666 -75 42.999l-47 -131l-47 16l53 150c-66.667 68.667 -100 151.667 -100 249c0 92 30.167 171.5 90.5 238.5s135.166 104.833 224.499 113.5l39 110l47 -17l-33 -92c30.667 -1.33301 59.334 -6.33301 86.001 -15
l31 87l47 -16l-32 -89c40 -19.333 76 -47 108 -83l-70 -58c-22 23.333 -45 41.333 -69 54l-175 -490c18 -4 36.333 -6 55 -6c77.333 0 141 29.333 191 88l70 -59c-31.333 -37.333 -69.5 -66.5 -114.5 -87.5s-93.833 -31.5 -146.5 -31.5c-26.667 0 -55 3.33301 -85 10z
M396 607.001h-12.999l-163 -457c22 -20.667 46.667 -37 74 -49l176 494c-22.667 8 -47.334 12 -74.001 12zM140.001 343.001c0 -54 14.333 -103.333 43 -148l144 402c-55.333 -15.333 -100.333 -46.5 -135 -93.5s-52 -100.5 -52 -160.5z" />
    <glyph glyph-name="lira" unicode="&#x20a4;" horiz-adv-x="635" 
d="M144 398l-0.00195312 103.999c0 57.333 20.167 104.166 60.5 140.499s88.5 54.5 144.5 54.5c55.333 0 102 -19.167 140 -57.5s57 -88.833 57 -151.5h-90c0 28.667 -6.66699 53.167 -20 73.5s-30.666 33.5 -51.999 39.5c-16 4.66699 -31 6 -45 4
c-28 -1.33301 -52.667 -11.666 -74 -30.999s-32 -43.333 -32 -72v-104h153v-53h-153v-66h153v-53h-153v-136h244c11.333 0 17 7.33301 17 22v57h90v-49c0 -35.333 -8.16699 -64.166 -24.5 -86.499s-40.166 -33.5 -71.499 -33.5h-436v90h92v136h-76v53h76v66h-76v53h76z" />
    <glyph glyph-name="uni20A6" unicode="&#x20a6;" horiz-adv-x="757" 
d="M622 0h-89l-151 250h-163v-250h-93v250h-69v55h69v74h-69v55h69v255h92l154 -255h157v255h93v-255h82v-55h-82v-74h82v-55h-82v-250zM219 379v-74h129l-44 74h-85zM405 379l45 -74h79v74h-124zM219 519v-85h51zM483 250l46 -76v76h-46z" />
    <glyph glyph-name="peseta" unicode="&#x20a7;" horiz-adv-x="745" 
d="M133 399l-79.999 0.000976562v55h80v49h-80v55h80v131h275c48 0 87.833 -12 119.5 -36s54.5 -55.667 68.5 -95h104v-55h-90c2 -14 3 -27.667 3 -41v-8h87v-55h-95c-10.667 -42.667 -32.334 -76.834 -65.001 -102.501s-76.667 -38.5 -132 -38.5h-181v-258h-94v399z
M520.001 454.001v8c0 12 -1.66699 25.667 -5 41h-288v-49h293zM227.001 345.001h174.999c50.667 0 85.334 18 104.001 54h-279v-54zM407 602.001h-180v-44h264c-20 29.333 -48 44 -84 44z" />
    <glyph glyph-name="rupee" unicode="&#x20a8;" horiz-adv-x="674" 
d="M185 258l-118 0.000976562v87h194c38 0 66.333 11.667 85 35s28.667 52.666 30 87.999h-309v55h303c-15.333 52.667 -50.333 79 -105 79h-198l-1 87h560v-55h-216c30.667 -29.333 50 -66.333 58 -111h158v-55h-154c-1.33301 -54.667 -16.833 -101.5 -46.5 -140.5
s-74.167 -61.167 -133.5 -66.5l184 -261h-113z" />
    <glyph glyph-name="uni20A9" unicode="&#x20a9;" horiz-adv-x="982" 
d="M195 274h-135v55h117l-34 100h-83v55h64l-69 205h100l66 -205h202l32 112h71l32 -112h202l66 205h100l-70 -205h66v-55h-84l-34 -100h118v-55h-136l-93 -274h-81l-78 274h-88l-77 -274h-81zM573 429l29 -100h108l32 100h-169zM238 429l32 -100h109l28 100h-169zM617 274
l36 -124l40 124h-76zM288 274l40 -124l35 124h-75zM489 429l-28 -100h58l-29 100h-1z" />
    <glyph glyph-name="afii57636" unicode="&#x20aa;" horiz-adv-x="751" 
d="M504 332v-166.999h-89v167c0 33.333 -11.333 61.166 -34 83.499s-52 33.5 -88 33.5h-107v-449h-90v538h197c62.667 0 113.5 -19.667 152.5 -59s58.5 -88.333 58.5 -147zM247 206.001v166.999h89v-167c0 -33.333 11.333 -61.166 34 -83.499s52 -33.5 88 -33.5h107v449h90
v-538h-197c-62.667 0 -113.5 19.667 -152.5 59s-58.5 88.333 -58.5 147z" />
    <glyph glyph-name="Euro" unicode="&#x20ac;" horiz-adv-x="783" 
d="M519 365h-467.001v56h102c18 76.667 55.833 139.5 113.5 188.5s126.167 73.5 205.5 73.5c94.667 0 178 -36.667 250 -110l-63 -63c-57.333 56 -119.666 84 -186.999 84c-54 0 -101 -16.167 -141 -48.5s-67.667 -73.833 -83 -124.5h270v-56zM51.999 304h466.999v-55h-269
c15.333 -49.333 43 -89.833 83 -121.5s86.667 -47.5 140 -47.5c68.667 0 131.334 28.333 188.001 85l63 -64c-72 -73.333 -155.667 -110 -251 -110c-78.667 0 -146.667 24 -204 72s-95.333 110 -114 186h-103v55z" />
    <glyph glyph-name="uni2113" unicode="&#x2113;" horiz-adv-x="393" 
d="M221 89h95.001v-89h-107c-91.333 0 -137 53 -137 159v379c0 106 45.667 159 137 159c46.667 0 80.667 -14.5 102 -43.5s32 -67.5 32 -115.5v-190c0 -58.667 -13.167 -100 -39.5 -124s-73.833 -36 -142.5 -36v-29c0 -32 6.66699 -52.333 20 -61
c11.333 -6 24.666 -9 39.999 -9zM161.001 278h48c29.333 0 44 25 44 75v179c0 50.667 -14.667 76 -44 76c-32 0 -48 -25.333 -48 -76v-254z" />
    <glyph glyph-name="afii61352" unicode="&#x2116;" horiz-adv-x="969" 
d="M655 558c0 36 12.833 66.833 38.5 92.5s56.834 38.5 93.501 38.5c36 0 66.833 -12.833 92.5 -38.5s38.5 -56.5 38.5 -92.5s-12.833 -66.833 -38.5 -92.5s-56.5 -38.5 -92.5 -38.5c-36.667 0 -67.834 12.833 -93.501 38.5s-38.5 56.5 -38.5 92.5zM723 558
c0 -17.333 6.33301 -32.333 19 -45s27.667 -19 45 -19s32.333 6.33301 45 19s19 27.667 19 45s-6.33301 32.333 -19 45s-27.667 19 -45 19s-32.333 -6.33301 -45 -19s-19 -27.667 -19 -45zM660 338v47h253v-47h-253zM503 0h89v689h-93v-515l-311 515h-92v-689h93v519z" />
    <glyph glyph-name="trademark" unicode="&#x2122;" horiz-adv-x="844" 
d="M66 681h357l123 -270l123 270h58l46 -383h-65l-32 268l-102 -227h-55l-104 227l-31 -268h-66l38 324h-106v-324h-68v324h-116v59z" />
    <glyph glyph-name="estimated" unicode="&#x212e;" horiz-adv-x="659" 
d="M611 279l-429.001 -0.00195312v-193c44 -42 94.667 -63 152 -63c50.667 0 91.667 11 123 33s60.333 53.333 87 94l31 -19c-29.333 -45.333 -62.333 -80.166 -99 -104.499s-84 -36.5 -142 -36.5c-79.333 0 -144.333 28.167 -195 84.5s-76 124.833 -76 205.5
c0 82 25 150.833 75 206.5s116.667 83.5 200 83.5c82.667 0 148.834 -28.167 198.501 -84.5s74.5 -125.166 74.5 -206.499zM490.999 311.998v163c-45.333 41.333 -96.333 62 -153 62c-64 0 -116 -20.667 -156 -62v-163h309z" />
    <glyph glyph-name="minus" unicode="&#x2212;" horiz-adv-x="576" 
d="M74 305h428v-82h-428v82z" />
    <glyph glyph-name="notequal" unicode="&#x2260;" horiz-adv-x="594" 
d="M311 197h216v-87h-259l-54 -110h-70l54 110h-131v87h173l52 106h-225v87h267l54 110h71l-54 -110h122v-87h-165z" />
    <glyph glyph-name="lessequal" unicode="&#x2264;" horiz-adv-x="654" 
d="M572 141l-506 194v87l506 194v-97l-380 -140l380 -142v-96zM75 80h497v-80h-497v80z" />
    <glyph glyph-name="greaterequal" unicode="&#x2265;" horiz-adv-x="654" 
d="M588 335l-506 -194v96l380 142l-380 140v97l506 -194v-87zM579 80h-497v-80h497v80z" />
    <glyph glyph-name="commaaccent" unicode="&#xf6c3;" horiz-adv-x="277" 
d="M128 -250l-58 19c20.667 28 34.5 54 41.5 78s8.5 56 4.5 96h90c0.666992 -86 -25.333 -150.333 -78 -193z" />
    <glyph glyph-name="rupiah" unicode="&#xf6dd;" horiz-adv-x="1176" 
d="M363 261l184.001 -261h-113l-178 258h-88v-258h-94v689h265c68 0 119 -21 153 -63s51 -93 51 -153c0 -56 -14.833 -104 -44.5 -144s-74.834 -62.667 -135.501 -68zM336.001 602l-168.001 0.000976562v-257h164c39.333 0 68.333 12.333 87 37s28 55 28 91
c0 35.333 -9.16699 65.666 -27.5 90.999s-46.166 38 -83.499 38zM744 467.001l0.000976562 -73c15.333 26 38 46.333 68 61s61.667 22 95 22c65.333 0 120.666 -22.667 165.999 -68s68 -104.333 68 -177c0 -72 -22.5 -130.333 -67.5 -175s-100.5 -67 -166.5 -67
c-34 0 -66 6.83301 -96 20.5s-52.333 33.5 -67 59.5v-297h-91v694h91zM745.001 231.001c0 -47.333 15.333 -84.5 46 -111.5s66.334 -40.5 107.001 -40.5c43.333 0 79.333 14 108 42s43 64.667 43 110c0 46 -14.5 83.667 -43.5 113s-64.833 44 -107.5 44
s-78.834 -14.167 -108.501 -42.5s-44.5 -66.5 -44.5 -114.5z" />
    <glyph glyph-name="apple" unicode="&#xf8ff;" horiz-adv-x="847" 
d="M767 687v-687h-687v687h687zM164 595v-377h81l-74 75v178l255 -253l256 253v-178l-74 -75h84v377l-266 -263zM179 132h-15v-53h9v37l13 -37h10l11 37v-37h9v53h-14l-9 -36zM248 132c-16.667 0 -25 -8.99902 -25 -26.999c0 -7.33301 2.16699 -13.5 6.5 -18.5
s10.5 -7.5 18.5 -7.5c7.33301 0 13 2.66699 17 8s6 11.333 6 18c0 7.33301 -2 13.666 -6 18.999s-9.66699 8 -17 8zM248 89.001c-4.66699 0 -8.66699 1.83301 -12 5.5s-5 7.16699 -5 10.5c0 4 1.66699 7.83301 5 11.5s7.33301 5.5 12 5.5c8 0 12 -5.66699 12 -17
c0 -10.667 -4 -16 -12 -16zM284 99.001h-13c0 -13.333 7.33301 -20 22 -20s22 5.66699 22 17c0 7.33301 -5 12 -15 14c-10.667 2 -16 4 -16 6c0 4 3 6 9 6c6.66699 0 10 -2 10 -6h9c0 10.667 -6.33301 16 -19 16s-19 -5.33301 -19 -16c0 -5.33301 5.33301 -10.333 16 -15
c8.66699 0 13 -1.66699 13 -5c0 -4.66699 -3.33301 -7 -10 -7c-6 0 -9 3.33301 -9 10zM315 122.001h17v-43h8v43h15v10h-40v-10zM377 132.001h-9l-22 -53h12l4 13h22l3 -13h11zM374 119.001l7 -18h-16l6 18h3zM426 132.001h-28v-53h9v22h13c6 0 9 -3 9 -9v-13h13
c-2 2 -3 6.33301 -3 13c0 6 -2.33301 10.333 -7 13c4.66699 2 7 5.66699 7 11c0 10.667 -4.33301 16 -13 16zM420 108.001h-13v14h13c6 0 9 -2 9 -6c0 -5.33301 -3 -8 -9 -8zM466 132.001h-20v-53h20c16.667 0 25 9.66699 25 29c0 16 -8.33301 24 -25 24zM466 89.001h-8v33
h4c11.333 0 17 -5.66699 17 -17c0 -4 -1.33301 -7.66699 -4 -11s-5.66699 -5 -9 -5zM531 132.001h-37v-53h40v10h-28v12h25v9h-25v12h25v10zM543 99.001h-9c0 -13.333 7.33301 -20 22 -20s22 5.66699 22 17c0 7.33301 -5 12 -15 14c-11.333 2 -17 4 -17 6c0 4 2.33301 6 7 6
c8 0 12 -2 12 -6h10c0 10.667 -6.33301 16 -19 16c-5.33301 0 -10.333 -1.5 -15 -4.5s-7 -6.83301 -7 -11.5s6.33301 -9.66699 19 -15c8 0 12 -1.66699 12 -5c0 -4.66699 -3 -7 -9 -7c-8.66699 0 -13 3.33301 -13 10zM589 132.001h-7v-53h7v53zM633 86.001l4 -7.00098h6v29
h-22v-9h12c-2.66699 -6.66699 -6.66699 -10 -12 -10c-4.66699 0 -8.5 1.83301 -11.5 5.5s-4.5 7.16699 -4.5 10.5c0 4 1.5 7.83301 4.5 11.5s6.83301 5.5 11.5 5.5c6 0 9 -3.33301 9 -10h13c-2.66699 13.333 -10 20 -22 20c-7.33301 0 -13.333 -2.66699 -18 -8
s-7 -11.666 -7 -18.999c0 -6.66699 2.33301 -12.667 7 -18s10.667 -8 18 -8c6 0 10 2.33301 12 7zM657 132h-8v-53h8v33l22 -33h13v53h-13v-33z" />
    <glyph glyph-name=".null" horiz-adv-x="0" 
 />
    <glyph glyph-name="nonmarkingreturn" horiz-adv-x="333" 
 />
    <glyph glyph-name="published" horiz-adv-x="809" 
d="M369 280h67c36.667 0 64.834 11.833 84.501 35.5s29.5 50.167 29.5 79.5c0 32 -9.83301 59.333 -29.5 82s-47.834 34 -84.501 34h-136v-353h69v122zM369 443l67.001 -0.000976562c14 0 24.667 -4.66699 32 -14s11 -20.666 11 -33.999s-3.83301 -24.5 -11.5 -33.5
s-18.834 -13.5 -33.501 -13.5h-65v95zM55.001 342.999c0 98 33.833 181.5 101.5 250.5s150.167 103.5 247.5 103.5s180 -34.5 248 -103.5s102 -152.5 102 -250.5s-34 -181.333 -102 -250s-150.667 -103 -248 -103s-179.833 34.333 -247.5 103s-101.5 152 -101.5 250z
M116.001 342.999c0 -80.667 28 -149.334 84 -206.001s124 -85 204 -85s148 28.333 204 85s84 125.334 84 206.001s-28 149.5 -84 206.5s-124 85.5 -204 85.5s-148 -28.5 -204 -85.5s-84 -125.833 -84 -206.5z" />
    <glyph glyph-name="frenchfranc" horiz-adv-x="726" 
d="M478 116v-116h-91v330h-200v-330h-90v676h392v-90h-302v-166h291v-112c22.667 76.667 66 115 130 115c36.667 0 63.667 -6 81 -18l-14 -85c-22 10.667 -45 16 -69 16c-42.667 0 -74.667 -20.167 -96 -60.5s-32 -93.5 -32 -159.5z" />
    <glyph glyph-name="parenleft.case" horiz-adv-x="363" 
d="M49 348c0 143.333 24.833 256.668 74.5 340.001s116.167 125 199.5 125v-89c-57.333 0 -103.166 -34 -137.499 -102s-51.5 -159.333 -51.5 -274s17.167 -206 51.5 -274s80.166 -102 137.499 -102v-89c-83.333 0 -149.833 41.667 -199.5 125s-74.5 196.666 -74.5 339.999z
" />
    <glyph glyph-name="parenright.case" horiz-adv-x="363" 
d="M314 348c0 -143.333 -24.833 -256.668 -74.5 -340.001s-116.167 -125 -199.5 -125v89c57.333 0 103.166 34 137.499 102s51.5 159.333 51.5 274s-17.167 206 -51.5 274s-80.166 102 -137.499 102v89c83.333 0 149.833 -41.667 199.5 -125s74.5 -196.666 74.5 -339.999z
" />
    <glyph glyph-name="hyphen.case" horiz-adv-x="486" 
d="M69 394h348v-87h-348v87z" />
    <glyph glyph-name="at.case" horiz-adv-x="971" 
d="M601 354c0 36 -12.502 66.4971 -37.502 91.4971s-55.5 37.5 -91.5 37.5s-66.5 -12.5 -91.5 -37.5s-37.5 -55.5 -37.5 -91.5c0 -35.333 12.667 -65.5 38 -90.5s55.666 -37.5 90.999 -37.5c34 0 67 16 99 48v-85c-32 -22.667 -65 -34 -99 -34
c-55.333 0 -102.5 19.5 -141.5 58.5s-58.5 85.833 -58.5 140.5c0 55.333 19.5 102.5 58.5 141.5s86.167 58.5 141.5 58.5c53.333 0 99.333 -18.333 138 -55c39.333 -37.333 60 -82.666 62 -135.999v-145c0 -44 24 -66 72 -66c22.667 0 42.167 7.16699 58.5 21.5
s28.5 33 36.5 56s13.667 45.667 17 68s5 45.166 5 68.499c0 100 -37.167 183.5 -111.5 250.5s-163.5 100.5 -267.5 100.5c-101.333 0 -186.833 -35.833 -256.5 -107.5s-104.5 -158.5 -104.5 -260.5s34.667 -188.333 104 -259s155 -106 257 -106h23v-71h-23
c-121.333 0 -223.666 42.167 -306.999 126.5s-125 187.5 -125 309.5c0 121.333 41.833 224.833 125.5 310.5s185.834 128.5 306.501 128.5c80.667 0 155.334 -18 224.001 -54s123.667 -86.5 165 -151.5s62 -137.167 62 -216.5c0 -31.333 -3.33301 -62.666 -10 -93.999
s-17 -61.666 -31 -90.999s-33.833 -53.166 -59.5 -71.499s-55.167 -27.5 -88.5 -27.5c-41.333 0 -75.5 11.167 -102.5 33.5s-40.5 58.833 -40.5 109.5v129z" />
    <glyph glyph-name="bracketleft.case" horiz-adv-x="327" 
d="M84 -107v916h201v-83h-111v-750h111v-83h-201z" />
    <glyph glyph-name="bracketright.case" horiz-adv-x="327" 
d="M243 807v-916h-201v83h111v750h-111v83h201z" />
    <glyph glyph-name="braceleft.case" horiz-adv-x="400" 
d="M186 255l0.000976562 -173.998c0 -32.667 10.667 -60.334 32 -83.001s46.666 -34 75.999 -34h67v-79h-64c-55.333 0 -102 18 -140 54s-57 83.333 -57 142v174c0 13.333 -6.16699 25.166 -18.5 35.499s-26.5 15.5 -42.5 15.5v81c16 0 30.167 5.16699 42.5 15.5
s18.5 22.166 18.5 35.499v176c-0.666992 58.667 18 105.834 56 141.501s85 53.5 141 53.5h64v-79h-67c-30 0 -55.5 -11.333 -76.5 -34s-31.5 -50 -31.5 -82v-176c0 -18.667 -4.33301 -36.667 -13 -54s-20.667 -30 -36 -38c14 -8 25.667 -20.833 35 -38.5
s14 -35.167 14 -52.5z" />
    <glyph glyph-name="braceright.case" horiz-adv-x="400" 
d="M214 81l0.000976562 173.998c0 17.333 4.66699 34.833 14 52.5s21 30.5 35 38.5c-15.333 8 -27.333 20.667 -36 38s-13 35.333 -13 54v176c0 32 -10.5 59.333 -31.5 82s-46.5 34 -76.5 34h-67v79h64c56 0 103 -17.833 141 -53.5s56.667 -82.834 56 -141.501v-176
c0 -13.333 6.16699 -25.166 18.5 -35.499s26.5 -15.5 42.5 -15.5v-81c-16 0 -30.167 -5.16699 -42.5 -15.5s-18.5 -22.166 -18.5 -35.499v-174c0 -58.667 -19 -106 -57 -142s-84.667 -54 -140 -54h-64v79h67c29.333 0 54.666 11.333 75.999 34s32 50.334 32 83.001z" />
    <glyph glyph-name="exclamdown.case" horiz-adv-x="263" 
d="M168 502l9 -503h-90l10 503h71zM66 635c0 18 6.33301 32.833 19 44.5s28 17.5 46 17.5s33.5 -5.83301 46.5 -17.5s19.5 -26.5 19.5 -44.5s-6.5 -33 -19.5 -45s-28.5 -18 -46.5 -18s-33.333 6 -46 18s-19 27 -19 45z" />
    <glyph glyph-name="guillemotleft.case" horiz-adv-x="515" 
d="M57 350l138 207h79l-138 -207l138 -207h-79zM233 350l138 207h79l-138 -207l138 -207h-79z" />
    <glyph glyph-name="periodcentered.case" horiz-adv-x="268" 
d="M69 353c0 18 6.33301 33 19 45s28 18 46 18s33.5 -6 46.5 -18s19.5 -27 19.5 -45s-6.5 -32.833 -19.5 -44.5s-28.5 -17.5 -46.5 -17.5s-33.333 5.83301 -46 17.5s-19 26.5 -19 44.5z" />
    <glyph glyph-name="guillemotright.case" horiz-adv-x="515" 
d="M458 350l-138 -207h-79l138 207l-138 207h79zM282 350l-138 -207h-79l138 207l-138 207h79z" />
    <glyph glyph-name="questiondown.case" horiz-adv-x="482" 
d="M350 199h90.001c0 -62.667 -19 -113.167 -57 -151.5s-84.667 -57.5 -140 -57.5c-56 0 -104.167 18 -144.5 54s-60.5 83 -60.5 141c0 46.667 13.667 86.667 41 120s61.666 56.333 102.999 69c24 7.33301 41.833 16 53.5 26s17.5 25.667 17.5 47l2 59h88v-59
c0 -45.333 -11.5 -79.833 -34.5 -103.5s-56.167 -42.167 -99.5 -55.5c-18 -5.33301 -34 -15.333 -48 -30c-22.667 -20 -34 -44.333 -34 -73c0 -31.333 11.667 -56.833 35 -76.5s50.333 -29.5 81 -29.5c30 0 55.333 11 76 33s31 51 31 87zM364.001 635
c0 -18 -6.5 -33 -19.5 -45s-28.5 -18 -46.5 -18s-33.333 6 -46 18s-19 27 -19 45s6.33301 32.833 19 44.5s28 17.5 46 17.5s33.5 -5.83301 46.5 -17.5s19.5 -26.5 19.5 -44.5z" />
    <glyph glyph-name="endash.case" horiz-adv-x="597" 
d="M72 389h453v-78h-453v78z" />
    <glyph glyph-name="emdash.case" horiz-adv-x="803" 
d="M72 389h659v-78h-659v78z" />
    <glyph glyph-name="bullet.case" horiz-adv-x="463" 
d="M82 350c0 40.667 14.667 74.5 44 101.5s64.666 40.5 105.999 40.5s76.5 -13.5 105.5 -40.5s43.5 -60.833 43.5 -101.5s-14.5 -74.667 -43.5 -102s-64.167 -41 -105.5 -41s-76.666 13.667 -105.999 41s-44 61.333 -44 102z" />
    <glyph glyph-name="guilsinglleft.case" horiz-adv-x="339" 
d="M57 350l138 207h79l-138 -207l138 -207h-79z" />
    <glyph glyph-name="guilsinglright.case" horiz-adv-x="339" 
d="M282 350l-138 -207h-79l138 207l-138 207h79z" />
    <glyph glyph-name="cent.case" horiz-adv-x="533" 
d="M252 0v106.999c-58 10 -106 36.667 -144 80s-57 97 -57 161c0 63.333 19 116.333 57 159s86 69 144 79v103h62v-100c66 -3.33301 120.667 -28 164 -74l-69 -58c-29.333 29.333 -66.333 44 -111 44c-43.333 0 -80.333 -14.167 -111 -42.5s-46 -65.166 -46 -110.499
c0 -46 15.333 -83.667 46 -113s67.667 -44 111 -44c44.667 0 81.667 15.333 111 46l70 -58c-42 -46 -97 -71 -165 -75v-104h-62z" />
    <glyph glyph-name="zero.tnum" 
d="M53 325c0 49.333 3.66895 93.165 11.002 131.498s19.5 73.5 36.5 105.5s41.5 56.5 73.5 73.5s70.667 25.5 116 25.5c46 0 84.833 -8.5 116.5 -25.5s56 -41.5 73 -73.5s29 -67 36 -105s10.5 -82 10.5 -132c0 -49.333 -3.5 -92.833 -10.5 -130.5s-19 -72.5 -36 -104.5
s-41.5 -56.5 -73.5 -73.5s-70.667 -25.5 -116 -25.5c-36.667 0 -68.834 5.83301 -96.501 17.5s-50.334 27.334 -68.001 47.001s-32 44 -43 73s-18.667 59.333 -23 91s-6.5 66.834 -6.5 105.501zM143.002 324.999c0 -76 10.833 -135.833 32.5 -179.5
s59.834 -65.5 114.501 -65.5s92.834 21.833 114.501 65.5s32.5 103.5 32.5 179.5c0 76.667 -10.833 136.834 -32.5 180.501s-59.834 65.5 -114.501 65.5s-92.834 -21.833 -114.501 -65.5s-32.5 -103.834 -32.5 -180.501z" />
    <glyph glyph-name="one.tnum" 
d="M271 0v539l-106 -37v86l196 71v-659h-90z" />
    <glyph glyph-name="two.tnum" 
d="M86 40l265 321c32 37.333 48 73 48 107c0 30.667 -11.167 55.5 -33.5 74.5s-49.833 28.5 -82.5 28.5c-30 0 -56 -9.16699 -78 -27.5s-35.333 -43.5 -40 -75.5l-87 21c8.66699 52 32 93.667 70 125s83 47 135 47c58 0 106.667 -18 146 -54s59 -82.333 59 -139
c0 -58.667 -23.667 -115 -71 -169l-91.5 -107.5l-85.5 -101.5h249v-90h-403v40z" />
    <glyph glyph-name="three.tnum" 
d="M170 513l-67.0029 53.0039c18 31.333 44 55.833 78 73.5s71 25.167 111 22.5c52.667 -2.66699 96.167 -21.834 130.5 -57.501s50.833 -76.834 49.5 -123.501c0 -12.667 -2 -26 -6 -40c-12 -39.333 -35.667 -69 -71 -89c32.667 -12 58.834 -35.333 78.501 -70
s27.834 -70 24.501 -106c-4.66699 -55.333 -30.5 -101 -77.5 -137s-100.833 -51.667 -161.5 -47c-42.667 2.66699 -81.334 16.5 -116.001 41.5s-60.667 56.5 -78 94.5l79 43c10.667 -23.333 27.334 -43.666 50.001 -60.999s46.667 -27 72 -29h-1
c36.667 -2 69.167 7.5 97.5 28.5s43.166 47.167 44.499 78.5c0.666992 31.333 -11.5 58.666 -36.5 81.999s-54.833 35 -89.5 35h-74v87h74c22.667 -0.666992 42.334 6.16602 59.001 20.499s27 32.5 31 54.5c4.66699 27.333 1 49.666 -11 66.999
c-15.333 23.333 -40.666 36 -75.999 38c-46.667 4 -84.667 -15.667 -114 -59z" />
    <glyph glyph-name="four.tnum" 
d="M449 134v-134h-89v134h-340l362 519h67v-434h94v-85h-94zM173 219h187v272z" />
    <glyph glyph-name="five.tnum" 
d="M56 139l77.001 42.001c12.667 -32 31.5 -57.333 56.5 -76s52.833 -28 83.5 -28c52 0 91.167 12.333 117.5 37s39.5 56.667 39.5 96c0 40 -12.833 70.833 -38.5 92.5s-57.834 32.5 -96.501 32.5c-28 0 -53.333 -3.83301 -76 -11.5s-51.334 -21.834 -86.001 -42.501l-56 46
l57 325h348v-86h-274l-36 -185c14.667 10.667 33.834 19.667 57.501 27s45.5 11 65.5 11c63.333 0 116.333 -18.5 159 -55.5s64 -88.167 64 -153.5c0 -66.667 -22.5 -120 -67.5 -160s-104.167 -60 -177.5 -60c-46 0 -88.667 13.5 -128 40.5s-69 63.167 -89 108.5z" />
    <glyph glyph-name="six.tnum" 
d="M504 535l-80 -34.002c-24.667 50 -61.667 75 -111 75c-45.333 0 -81.5 -21.5 -108.5 -64.5s-37.5 -97.5 -31.5 -163.5c19.333 49.333 64 74 134 74c58 0 106.667 -22.5 146 -67.5s58 -97.167 56 -156.5c-3.33301 -59.333 -26 -109.333 -68 -150s-92.333 -59.667 -151 -57
c-58 2.66699 -105.833 23.834 -143.5 63.501s-59.167 93.167 -64.5 160.5c-6 82 -2.33301 164.333 11 247c10 60 35.167 108.667 75.5 146s89.833 55 148.5 53c41.333 -2 77.833 -12.167 109.5 -30.5s57.5 -50.166 77.5 -95.499zM172 211.998
c0 -36 11.834 -66.333 35.501 -91s52.5 -37.667 86.5 -39s63.167 9.5 87.5 32.5s37.166 52.167 38.499 87.5s-9 65.5 -31 90.5s-50.333 38.167 -85 39.5s-65 -9.5 -91 -32.5s-39.667 -52.167 -41 -87.5z" />
    <glyph glyph-name="seven.tnum" 
d="M538 653l-358 -653h-105l311 564h-299v89h451z" />
    <glyph glyph-name="eight.tnum" 
d="M116 494c0 46.667 16.666 86.166 49.999 118.499s74.666 48.5 123.999 48.5s91 -16.167 125 -48.5s51 -71.833 51 -118.5c0 -46 -17 -84.333 -51 -115c31.333 -19.333 55.833 -44.333 73.5 -75s26.5 -64 26.5 -100c0 -59.333 -21.667 -109.666 -65 -150.999
s-96.666 -62 -159.999 -62c-64 0 -117.5 20.5 -160.5 61.5s-64.5 91.5 -64.5 151.5c0 36 8.83301 69.5 26.5 100.5s41.834 55.833 72.501 74.5c-32 30.667 -48 69 -48 115zM154.999 203.999c0 -34.667 13 -64.001 39 -88.001s58 -36 96 -36s70 12 96 36s39 53.333 39 88
s-13 64.334 -39 89.001s-58 37 -96 37h-7c-36 -0.666992 -66.333 -13.5 -91 -38.5s-37 -54.167 -37 -87.5zM204.999 493.998c0 -21.333 7.66699 -39.833 23 -55.5s34.333 -23.834 57 -24.501h8c24 0.666992 43.833 8.83398 59.5 24.501s23.5 34.167 23.5 55.5
s-8.16699 39.5 -24.5 54.5s-36.833 22.5 -61.5 22.5c-24 0 -44.167 -7.5 -60.5 -22.5s-24.5 -33.167 -24.5 -54.5z" />
    <glyph glyph-name="nine.tnum" 
d="M75 116l80 34.002c24.667 -50 61.667 -75 111 -75c45.333 0 81.5 21.5 108.5 64.5s37.5 97.5 31.5 163.5c-19.333 -49.333 -64 -74 -134 -74c-58 0 -106.667 22.5 -146 67.5s-58 97.167 -56 156.5c3.33301 59.333 26 109.333 68 150s92.333 59.667 151 57
c58 -2.66699 105.833 -23.834 143.5 -63.501s59.167 -93.167 64.5 -160.5c6 -81.333 2.33301 -164 -11 -248v1c-10 -60 -35.167 -108.667 -75.5 -146s-89.833 -55 -148.5 -53c-41.333 2 -77.833 12.167 -109.5 30.5s-57.5 50.166 -77.5 95.499zM407 439.002
c0 36 -11.834 66.333 -35.501 91s-52.5 37.667 -86.5 39s-63.167 -9.5 -87.5 -32.5s-37.166 -52.167 -38.499 -87.5s9 -65.5 31 -90.5s50.333 -38.167 85 -39.5s65 9.5 91 32.5s39.667 52.167 41 87.5z" />
    <glyph glyph-name="zero.taboldstyle" 
d="M289 -10c-66.667 0 -123.667 24 -171 72s-71 110 -71 186c0 76.667 23.667 138.667 71 186s104.333 71 171 71c68 0 125.667 -23.667 173 -71s71 -109.333 71 -186c0 -76 -23.833 -138 -71.5 -186s-105.167 -72 -172.5 -72zM289 79c42.667 0 79.001 15.667 109.001 47
s45 72 45 122c0 49.333 -15 89.5 -45 120.5s-66.333 46.5 -109 46.5s-78.834 -15.5 -108.501 -46.5s-44.5 -71.167 -44.5 -120.5c0 -50 15 -90.667 45 -122s66 -47 108 -47z" />
    <glyph glyph-name="one.taboldstyle" 
d="M387 516v-516h-90v370l-148 -77v95z" />
    <glyph glyph-name="two.taboldstyle" 
d="M100 41l235.001 254.001c24 24 36 46 36 66c0 18 -7.83301 32.833 -23.5 44.5s-35.5 17.5 -59.5 17.5c-22.667 0 -41.667 -6.66699 -57 -20s-24 -31.333 -26 -54l-88 15c4.66699 44.667 23.667 80.667 57 108s72.666 41 117.999 41c50 0 91.167 -14.333 123.5 -43
s48.5 -65 48.5 -109c0 -8 -0.666992 -16 -2 -24s-2.83301 -14.833 -4.5 -20.5s-4.66699 -12.5 -9 -20.5l-9.5 -17.5c-2 -3.66699 -6.5 -9.83398 -13.5 -18.501l-13.5 -16.5l-16.5 -18.5c-9 -10 -14.5 -16 -16.5 -18l-113 -117h199v-90h-365v41z" />
    <glyph glyph-name="six.taboldstyle" 
d="M504 535l-80 -34.002c-24.667 50 -61.667 75 -111 75c-45.333 0 -81.5 -21.5 -108.5 -64.5s-37.5 -97.5 -31.5 -163.5c19.333 49.333 64 74 134 74c58 0 106.667 -22.5 146 -67.5s58 -97.167 56 -156.5c-3.33301 -59.333 -26 -109.333 -68 -150s-92.333 -59.667 -151 -57
c-58 2.66699 -105.833 23.834 -143.5 63.501s-59.167 93.167 -64.5 160.5c-6 82 -2.33301 164.333 11 247c10 60 35.167 108.667 75.5 146s89.833 55 148.5 53c41.333 -2 77.833 -12.167 109.5 -30.5s57.5 -50.166 77.5 -95.499zM172 211.998
c0 -36 11.834 -66.333 35.501 -91s52.5 -37.667 86.5 -39s63.167 9.5 87.5 32.5s37.166 52.167 38.499 87.5s-9 65.5 -31 90.5s-50.333 38.167 -85 39.5s-65 -9.5 -91 -32.5s-39.667 -52.167 -41 -87.5z" />
    <glyph glyph-name="eight.taboldstyle" 
d="M116 494c0 46.667 16.666 86.166 49.999 118.499s74.666 48.5 123.999 48.5s91 -16.167 125 -48.5s51 -71.833 51 -118.5c0 -46 -17 -84.333 -51 -115c31.333 -19.333 55.833 -44.333 73.5 -75s26.5 -64 26.5 -100c0 -59.333 -21.667 -109.666 -65 -150.999
s-96.666 -62 -159.999 -62c-64 0 -117.5 20.5 -160.5 61.5s-64.5 91.5 -64.5 151.5c0 36 8.83301 69.5 26.5 100.5s41.834 55.833 72.501 74.5c-32 30.667 -48 69 -48 115zM154.999 203.999c0 -34.667 13 -64.001 39 -88.001s58 -36 96 -36s70 12 96 36s39 53.333 39 88
s-13 64.334 -39 89.001s-58 37 -96 37h-7c-36 -0.666992 -66.333 -13.5 -91 -38.5s-37 -54.167 -37 -87.5zM204.999 493.998c0 -21.333 7.66699 -39.833 23 -55.5s34.333 -23.834 57 -24.501h8c24 0.666992 43.833 8.83398 59.5 24.501s23.5 34.167 23.5 55.5
s-8.16699 39.5 -24.5 54.5s-36.833 22.5 -61.5 22.5c-24 0 -44.167 -7.5 -60.5 -22.5s-24.5 -33.167 -24.5 -54.5z" />
    <glyph glyph-name="three.taboldstyle" 
d="M173 325l-67.0029 53.0039c18 31.333 44 55.833 78 73.5s71 25.167 111 22.5c52.667 -2.66699 96.167 -21.834 130.5 -57.501s50.833 -76.834 49.5 -123.501c0 -12.667 -2 -26 -6 -40c-12 -39.333 -35.667 -69 -71 -89c32.667 -12 58.834 -35.333 78.501 -70
s27.834 -70 24.501 -106c-4.66699 -55.333 -30.5 -101 -77.5 -137s-100.833 -51.667 -161.5 -47c-42.667 2.66699 -81.334 16.5 -116.001 41.5s-60.667 56.5 -78 94.5l79 43c10.667 -23.333 27.334 -43.666 50.001 -60.999s46.667 -27 72 -29h-1
c36.667 -2 69.167 7.5 97.5 28.5s43.166 47.167 44.499 78.5c0.666992 31.333 -11.5 58.666 -36.5 81.999s-54.833 35 -89.5 35h-74v87h74c22.667 -0.666992 42.334 6.16602 59.001 20.499s27 32.5 31 54.5c4.66699 27.333 1 49.666 -11 66.999
c-15.333 23.333 -40.666 36 -75.999 38c-46.667 4 -84.667 -15.667 -114 -59z" />
    <glyph glyph-name="four.taboldstyle" 
d="M449 -53v-134h-89v134h-340l362 519h67v-434h94v-85h-94zM173 32h187v272z" />
    <glyph glyph-name="five.taboldstyle" 
d="M57 -48l77.001 42.001c12.667 -32 31.5 -57.333 56.5 -76s52.833 -28 83.5 -28c52 0 91.167 12.333 117.5 37s39.5 56.667 39.5 96c0 40 -12.833 70.833 -38.5 92.5s-57.834 32.5 -96.501 32.5c-28 0 -53.333 -3.83301 -76 -11.5s-51.334 -21.834 -86.001 -42.501l-56 46
l57 325h348v-86h-274l-36 -185c14.667 10.667 33.834 19.667 57.501 27s45.5 11 65.5 11c63.333 0 116.333 -18.5 159 -55.5s64 -88.167 64 -153.5c0 -66.667 -22.5 -120 -67.5 -160s-104.167 -60 -177.5 -60c-46 0 -88.667 13.5 -128 40.5s-69 63.167 -89 108.5z" />
    <glyph glyph-name="seven.taboldstyle" 
d="M539 465l-358 -653h-105l311 564h-299v89h451z" />
    <glyph glyph-name="nine.taboldstyle" 
d="M80 -73l80 34.002c24.667 -50 61.667 -75 111 -75c45.333 0 81.5 21.5 108.5 64.5s37.5 97.5 31.5 163.5c-19.333 -49.333 -64 -74 -134 -74c-58 0 -106.667 22.5 -146 67.5s-58 97.167 -56 156.5c3.33301 59.333 26 109.333 68 150s92.333 59.667 151 57
c58 -2.66699 105.833 -23.834 143.5 -63.501s59.167 -93.167 64.5 -160.5c6 -81.333 2.33301 -164 -11 -248v1c-10 -60 -35.167 -108.667 -75.5 -146s-89.833 -55 -148.5 -53c-41.333 2 -77.833 12.167 -109.5 30.5s-57.5 50.166 -77.5 95.499zM412 250.002
c0 36 -11.834 66.333 -35.501 91s-52.5 37.667 -86.5 39s-63.167 -9.5 -87.5 -32.5s-37.166 -52.167 -38.499 -87.5s9 -65.5 31 -90.5s50.333 -38.167 85 -39.5s65 9.5 91 32.5s39.667 52.167 41 87.5z" />
    <glyph glyph-name="zero.oldstyle" horiz-adv-x="592" 
d="M295 -10c-66.667 0 -123.667 24 -171 72s-71 110 -71 186c0 76.667 23.667 138.667 71 186s104.333 71 171 71c68 0 125.667 -23.667 173 -71s71 -109.333 71 -186c0 -76 -23.833 -138 -71.5 -186s-105.167 -72 -172.5 -72zM295 79c42.667 0 79.001 15.667 109.001 47
s45 72 45 122c0 49.333 -15 89.5 -45 120.5s-66.333 46.5 -109 46.5s-78.834 -15.5 -108.501 -46.5s-44.5 -71.167 -44.5 -120.5c0 -50 15 -90.667 45 -122s66 -47 108 -47z" />
    <glyph glyph-name="one.oldstyle" horiz-adv-x="365" 
d="M280 516v-516h-90v370l-148 -77v95z" />
    <glyph glyph-name="two.oldstyle" horiz-adv-x="475" 
d="M48 41l235.001 254.001c24 24 36 46 36 66c0 18 -7.83301 32.833 -23.5 44.5s-35.5 17.5 -59.5 17.5c-22.667 0 -41.667 -6.66699 -57 -20s-24 -31.333 -26 -54l-88 15c4.66699 44.667 23.667 80.667 57 108s72.666 41 117.999 41c50 0 91.167 -14.333 123.5 -43
s48.5 -65 48.5 -109c0 -8 -0.666992 -16 -2 -24s-2.83301 -14.833 -4.5 -20.5s-4.66699 -12.5 -9 -20.5l-9.5 -17.5c-2 -3.66699 -6.5 -9.83398 -13.5 -18.501l-13.5 -16.5l-16.5 -18.5c-9 -10 -14.5 -16 -16.5 -18l-113 -117h199v-90h-365v41z" />
    <glyph glyph-name="three.oldstyle" horiz-adv-x="515" 
d="M140 325l-67.0029 53.0039c18 31.333 44 55.833 78 73.5s71 25.167 111 22.5c52.667 -2.66699 96.167 -21.834 130.5 -57.501s50.833 -76.834 49.5 -123.501c0 -12.667 -2 -26 -6 -40c-12 -39.333 -35.667 -69 -71 -89c32.667 -12 58.834 -35.333 78.501 -70
s27.834 -70 24.501 -106c-4.66699 -55.333 -30.5 -101 -77.5 -137s-100.833 -51.667 -161.5 -47c-42.667 2.66699 -81.334 16.5 -116.001 41.5s-60.667 56.5 -78 94.5l79 43c10.667 -23.333 27.334 -43.666 50.001 -60.999s46.667 -27 72 -29h-1
c36.667 -2 69.167 7.5 97.5 28.5s43.166 47.167 44.499 78.5c0.666992 31.333 -11.5 58.666 -36.5 81.999s-54.833 35 -89.5 35h-74v87h74c22.667 -0.666992 42.334 6.16602 59.001 20.499s27 32.5 31 54.5c4.66699 27.333 1 49.666 -11 66.999
c-15.333 23.333 -40.666 36 -75.999 38c-46.667 4 -84.667 -15.667 -114 -59z" />
    <glyph glyph-name="four.oldstyle" 
d="M449 -53v-134h-89v134h-340l362 519h67v-434h94v-85h-94zM173 32h187v272z" />
    <glyph glyph-name="five.oldstyle" horiz-adv-x="548" 
d="M41 -48l77.001 42.001c12.667 -32 31.5 -57.333 56.5 -76s52.833 -28 83.5 -28c52 0 91.167 12.333 117.5 37s39.5 56.667 39.5 96c0 40 -12.833 70.833 -38.5 92.5s-57.834 32.5 -96.501 32.5c-28 0 -53.333 -3.83301 -76 -11.5s-51.334 -21.834 -86.001 -42.501l-56 46
l57 325h348v-86h-274l-36 -185c14.667 10.667 33.834 19.667 57.501 27s45.5 11 65.5 11c63.333 0 116.333 -18.5 159 -55.5s64 -88.167 64 -153.5c0 -66.667 -22.5 -120 -67.5 -160s-104.167 -60 -177.5 -60c-46 0 -88.667 13.5 -128 40.5s-69 63.167 -89 108.5z" />
    <glyph glyph-name="six.oldstyle" horiz-adv-x="556" 
d="M492 535l-80 -34.002c-24.667 50 -61.667 75 -111 75c-45.333 0 -81.5 -21.5 -108.5 -64.5s-37.5 -97.5 -31.5 -163.5c19.333 49.333 64 74 134 74c58 0 106.667 -22.5 146 -67.5s58 -97.167 56 -156.5c-3.33301 -59.333 -26 -109.333 -68 -150s-92.333 -59.667 -151 -57
c-58 2.66699 -105.833 23.834 -143.5 63.501s-59.167 93.167 -64.5 160.5c-6 82 -2.33301 164.333 11 247c10 60 35.167 108.667 75.5 146s89.833 55 148.5 53c41.333 -2 77.833 -12.167 109.5 -30.5s57.5 -50.166 77.5 -95.499zM160 211.998
c0 -36 11.834 -66.333 35.501 -91s52.5 -37.667 86.5 -39s63.167 9.5 87.5 32.5s37.166 52.167 38.499 87.5s-9 65.5 -31 90.5s-50.333 38.167 -85 39.5s-65 -9.5 -91 -32.5s-39.667 -52.167 -41 -87.5z" />
    <glyph glyph-name="seven.oldstyle" horiz-adv-x="506" 
d="M502 465l-358 -653h-105l311 564h-299v89h451z" />
    <glyph glyph-name="eight.oldstyle" horiz-adv-x="562" 
d="M107 494c0 46.667 16.666 86.166 49.999 118.499s74.666 48.5 123.999 48.5s91 -16.167 125 -48.5s51 -71.833 51 -118.5c0 -46 -17 -84.333 -51 -115c31.333 -19.333 55.833 -44.333 73.5 -75s26.5 -64 26.5 -100c0 -59.333 -21.667 -109.666 -65 -150.999
s-96.666 -62 -159.999 -62c-64 0 -117.5 20.5 -160.5 61.5s-64.5 91.5 -64.5 151.5c0 36 8.83301 69.5 26.5 100.5s41.834 55.833 72.501 74.5c-32 30.667 -48 69 -48 115zM145.999 203.999c0 -34.667 13 -64.001 39 -88.001s58 -36 96 -36s70 12 96 36s39 53.333 39 88
s-13 64.334 -39 89.001s-58 37 -96 37h-7c-36 -0.666992 -66.333 -13.5 -91 -38.5s-37 -54.167 -37 -87.5zM195.999 493.998c0 -21.333 7.66699 -39.833 23 -55.5s34.333 -23.834 57 -24.501h8c24 0.666992 43.833 8.83398 59.5 24.501s23.5 34.167 23.5 55.5
s-8.16699 39.5 -24.5 54.5s-36.833 22.5 -61.5 22.5c-24 0 -44.167 -7.5 -60.5 -22.5s-24.5 -33.167 -24.5 -54.5z" />
    <glyph glyph-name="nine.oldstyle" horiz-adv-x="534" 
d="M57 -73l80 34.002c24.667 -50 61.667 -75 111 -75c45.333 0 81.5 21.5 108.5 64.5s37.5 97.5 31.5 163.5c-19.333 -49.333 -64 -74 -134 -74c-58 0 -106.667 22.5 -146 67.5s-58 97.167 -56 156.5c3.33301 59.333 26 109.333 68 150s92.333 59.667 151 57
c58 -2.66699 105.833 -23.834 143.5 -63.501s59.167 -93.167 64.5 -160.5c6 -81.333 2.33301 -164 -11 -248v1c-10 -60 -35.167 -108.667 -75.5 -146s-89.833 -55 -148.5 -53c-41.333 2 -77.833 12.167 -109.5 30.5s-57.5 50.166 -77.5 95.499zM389 250.002
c0 36 -11.834 66.333 -35.501 91s-52.5 37.667 -86.5 39s-63.167 -9.5 -87.5 -32.5s-37.166 -52.167 -38.499 -87.5s9 -65.5 31 -90.5s50.333 -38.167 85 -39.5s65 9.5 91 32.5s39.667 52.167 41 87.5z" />
    <glyph glyph-name="Lslash.sc" horiz-adv-x="434" 
d="M177 388l87 54v-63l-87 -55v-241h235v-83h-319v272l-54 -35v64l54 35v248h84v-196z" />
    <glyph glyph-name="Zcaron.sc" horiz-adv-x="507" 
d="M45 72l302 433h-290v79h399v-72l-305 -432h305v-80h-411v72zM249 715l63 71h75l-97 -134h-80l-98 134h76z" />
    <glyph glyph-name="exclam.sc" horiz-adv-x="262" 
d="M172 584l-8 -429h-65l-8 429h81zM79 46c0 14.667 5 26.834 15 36.501s22 14.5 36 14.5c14.667 0 27 -4.83301 37 -14.5s15 -21.834 15 -36.501c0 -13.333 -5 -24.833 -15 -34.5s-22.333 -14.5 -37 -14.5c-14 0 -26 4.83301 -36 14.5s-15 21.167 -15 34.5z" />
    <glyph glyph-name="ampersand.sc" horiz-adv-x="577" 
d="M252 360l110 -0.000976562v74h78v-75h73v-67h-73v-112c0 -35.333 6 -62.666 18 -81.999s35.333 -29 70 -29v-77c-30 0 -57.167 5.5 -81.5 16.5s-42.833 25.167 -55.5 42.5c-34 -39.333 -81 -59 -141 -59c-56 0 -102.167 18 -138.5 54s-54.5 80.667 -54.5 134
c0 66 28 117.333 84 154c-25.333 25.333 -38 59.333 -38 102c0 41.333 14.667 76.333 44 105s65.666 43 108.999 43c29.333 0 56.833 -7.83301 82.5 -23.5s46.167 -36.5 61.5 -62.5l-68 -43c-20.667 34 -46 51 -76 51c-21.333 0 -39.166 -6.66699 -53.499 -20
s-21.5 -30 -21.5 -50s6.83301 -37.667 20.5 -53s30.5 -23 50.5 -23zM362 291.999h-110.999c-32 0 -59.167 -11.333 -81.5 -34s-33.5 -48.667 -33.5 -78c0 -30.667 10.667 -56.5 32 -77.5s48.666 -31.5 81.999 -31.5c31.333 0 57.5 10 78.5 30s32.167 44.667 33.5 74v117z
" />
    <glyph glyph-name="question.sc" horiz-adv-x="426" 
d="M121 410l-78 -0.000976562c0 54 16.333 97.5 49 130.5s72.667 49.5 120 49.5c48 0 89.167 -15.167 123.5 -45.5s51.5 -70.166 51.5 -119.499c0 -40 -11.833 -74.333 -35.5 -103s-52.834 -48.334 -87.501 -59.001c-19.333 -6 -33.833 -13.167 -43.5 -21.5
s-14.5 -20.833 -14.5 -37.5l-1 -49h-80v49c0 38.667 9.83301 68.334 29.5 89.001s47.834 36.667 84.501 48c18 4.66699 33.833 15 47.5 31s20.5 33.667 20.5 53c0 24.667 -9.66699 45 -29 61s-41.333 24 -66 24s-46 -9.16699 -64 -27.5s-27 -42.5 -27 -72.5zM107 46.999
c0 16 5.66699 29.501 17 40.501s25 16.5 41 16.5c16.667 0 30.5 -5.33301 41.5 -16s16.5 -24.334 16.5 -41.001c0 -16 -5.5 -29.167 -16.5 -39.5s-24.833 -15.5 -41.5 -15.5c-16 0 -29.667 5.16699 -41 15.5s-17 23.5 -17 39.5z" />
    <glyph glyph-name="A.sc" horiz-adv-x="570" 
d="M193 223h184l-46 122l-46 122zM406 147h-241l-32 -83.5l-24 -63.5h-90l222 584h88l222 -584h-89z" />
    <glyph glyph-name="B.sc" horiz-adv-x="553" 
d="M470 431c0 -57.333 -22 -97.001 -66 -119.001c29.333 -8.66699 52.833 -27 70.5 -55s26.5 -57 26.5 -87c0 -48 -15.667 -88.333 -47 -121s-73 -49 -125 -49h-240v584h221c49.333 0 88.333 -13.667 117 -41s43 -64.666 43 -111.999zM174 344.999h136
c23.333 0 41.5 8 54.5 24s19.5 36 19.5 60s-7.33301 42.833 -22 56.5s-35 20.5 -61 20.5h-127v-161zM323 269.999h-149.001v-191h151c26.667 0 48.334 9.16699 65.001 27.5s25 39.833 25 64.5c0 24 -8.66699 46.5 -26 67.5s-39.333 31.5 -66 31.5z" />
    <glyph glyph-name="C.sc" horiz-adv-x="600" 
d="M508 148l63.001 -52.999c-27.333 -32 -60.333 -57.333 -99 -76s-80 -28 -124 -28c-82.667 0 -152.834 29.167 -210.501 87.5s-86.5 129.166 -86.5 212.499s28.833 154 86.5 212s127.834 87 210.501 87c89.333 0 163 -33.333 221 -100l-62 -53
c-44.667 48 -97.667 72 -159 72c-60 0 -110.5 -21.167 -151.5 -63.5s-61.5 -93.833 -61.5 -154.5s20.5 -112.167 61.5 -154.5s91.5 -63.5 151.5 -63.5c63.333 0 116.666 25 159.999 75z" />
    <glyph glyph-name="D.sc" horiz-adv-x="633" 
d="M316 0l-227 -0.000976562v584h227c81.333 0 145.5 -27.5 192.5 -82.5s70.5 -125.167 70.5 -210.5s-23.5 -155.166 -70.5 -209.499s-111.167 -81.5 -192.5 -81.5zM173 78.999h143c57.333 0 101.5 19.667 132.5 59s46.5 90.333 46.5 153s-15.667 114.167 -47 154.5
s-75.333 60.5 -132 60.5h-143v-427z" />
    <glyph glyph-name="E.sc" horiz-adv-x="499" 
d="M89 584h348v-78h-264v-179h231v-79h-231v-169h272v-79h-356v584z" />
    <glyph glyph-name="F.sc" horiz-adv-x="464" 
d="M89 584h343v-78h-259v-179h205v-79h-205v-248h-84v584z" />
    <glyph glyph-name="G.sc" horiz-adv-x="659" 
d="M545 511l-59.999 -55.9971c-38.667 36.667 -85 55 -139 55c-59.333 0 -109.333 -21.333 -150 -64s-61 -94.334 -61 -155.001s20.333 -112.334 61 -155.001s90.667 -64 150 -64c51.333 0 93.666 13.5 126.999 40.5s51.333 63.5 54 109.5h-164v74h259
c0 -100.667 -24.5 -176.667 -73.5 -228s-116.5 -77 -202.5 -77c-83.333 0 -153.333 29.167 -210 87.5s-85 129.166 -85 212.499s28.333 154 85 212s126.667 87 210 87c78 0 144.333 -26.333 199 -79z" />
    <glyph glyph-name="H.sc" horiz-adv-x="620" 
d="M531 584v-584h-85v252h-273v-252h-84v584h84v-255h273v255h85z" />
    <glyph glyph-name="I.sc" horiz-adv-x="262" 
d="M89 584h84v-584h-84v584z" />
    </font>
</defs>
</svg>
